<svg width="19" height="20" viewBox="0 0 19 20" fill="none" xmlns="http://www.w3.org/2000/svg">
<path d="M13.1203 6.38753L14.3313 5.50586C12.1022 3.0525 8.37726 2.61379 5.637 4.6114C4.56855 5.3866 3.79759 6.43012 3.34507 7.5844C3.18166 8.00607 2.73752 8.24459 2.30595 8.12959L0.805927 7.73773C0.298936 7.60569 0.0182059 7.05624 0.202566 6.55364C0.860397 4.73918 2.04617 3.09935 3.71379 1.88545C7.93312 -1.18977 13.7237 -0.410315 17.0254 3.54658L18.3034 2.61805C18.6051 2.39656 19.0241 2.63509 18.9989 3.01416L18.6721 7.52902C18.6302 8.08699 18.1064 8.47033 17.5743 8.32977L13.267 7.19254C12.9067 7.09032 12.8187 6.60901 13.1203 6.38753ZM0.328266 12.4741L0.00144593 16.9889C-0.0278841 17.368 0.395306 17.6065 0.696987 17.385L1.97494 16.4565C5.27666 20.4092 11.0672 21.1886 15.2866 18.1177C16.9542 16.9037 18.14 15.2639 18.802 13.4452C18.9863 12.9469 18.7056 12.3974 18.1986 12.2611L16.6986 11.8693C16.267 11.7543 15.8229 11.9928 15.6595 12.4144C15.207 13.5687 14.436 14.6122 13.3676 15.3874C10.6273 17.3808 6.90238 16.9421 4.6733 14.493L5.88421 13.6113C6.18589 13.3898 6.0979 12.9085 5.73756 12.8148L1.42605 11.6733C0.893917 11.5328 0.365976 11.9161 0.328266 12.4741Z" fill="white"/>
</svg>
