<svg width="36" height="36" viewBox="0 0 36 36" fill="none" xmlns="http://www.w3.org/2000/svg">
<g clip-path="url(#clip0_1_12948)">
<mask id="mask0_1_12948" style="mask-type:luminance" maskUnits="userSpaceOnUse" x="0" y="0" width="36" height="36">
<path d="M0 0H36V36H0V0Z" fill="white"/>
</mask>
<g mask="url(#mask0_1_12948)">
<path fill-rule="evenodd" clip-rule="evenodd" d="M19.5075 6.89646V4.10891C19.5078 3.89737 19.5696 3.6903 19.6857 3.51208C19.8017 3.33387 19.9672 3.19192 20.1627 3.10296C20.3581 3.01399 20.5754 2.98171 20.7889 3.00991C21.0024 3.03811 21.2033 3.12562 21.3678 3.26214L28.2874 9.00895C28.4131 9.11317 28.5141 9.24307 28.5834 9.38958C28.6526 9.53608 28.6885 9.69567 28.6885 9.8572C28.6885 10.0187 28.6526 10.1783 28.5834 10.3248C28.5141 10.4713 28.4131 10.6012 28.2874 10.7055L21.3678 16.4523C21.2034 16.5887 21.0026 16.6762 20.7893 16.7045C20.5759 16.7327 20.3588 16.7005 20.1634 16.6118C19.968 16.523 19.8025 16.3813 19.6863 16.2033C19.5701 16.0253 19.5081 15.8184 19.5075 15.607V12.818C13.9176 12.818 10.9176 12.818 5.70609 16.9467C5.20106 17.3464 4.44579 16.997 4.50308 16.3634C5.36086 6.89646 13.7895 6.89646 19.5075 6.89646ZM16.4925 29.1021V31.8896C16.4925 32.1013 16.4309 32.3085 16.3149 32.487C16.199 32.6654 16.0335 32.8076 15.838 32.8967C15.6425 32.9859 15.4251 33.0183 15.2115 32.9901C14.9978 32.962 14.7968 32.8745 14.6322 32.7379L7.71261 26.9896C7.5872 26.8853 7.48642 26.7555 7.4173 26.6092C7.34817 26.4628 7.31237 26.3034 7.31237 26.1421C7.31237 25.9807 7.34817 25.8213 7.4173 25.675C7.48642 25.5286 7.5872 25.3988 7.71261 25.2945L14.6322 19.5463C14.7967 19.4097 14.9976 19.3222 15.2111 19.294C15.4246 19.2658 15.6419 19.2981 15.8373 19.3871C16.0328 19.476 16.1983 19.618 16.3143 19.7962C16.4304 19.9744 16.4922 20.1815 16.4925 20.393V23.1806C22.0824 23.1806 25.0824 23.1806 30.2939 19.0518C30.7989 18.6521 31.5542 19.0015 31.4969 19.6351C30.6391 29.1021 22.2105 29.1021 16.4925 29.1021Z" fill="#43454C"/>
</g>
</g>
<defs>
<clipPath id="clip0_1_12948">
<rect width="36" height="36" fill="white"/>
</clipPath>
</defs>
</svg>
