<svg width="36" height="36" viewBox="0 0 36 36" fill="none" xmlns="http://www.w3.org/2000/svg">
<path d="M7.999 28.4762L3.42804 23.8946C3.15324 23.6191 3 23.2527 3 22.863V15.0142C3 14.2085 3.65378 13.5536 4.45755 13.5536C5.26133 13.5536 5.91416 14.2088 5.91416 15.0142V21.1179L5.88125 21.1561C5.2447 21.8941 5.28538 23.0054 5.97395 23.6957L8.66845 26.3971C8.68733 26.416 8.70974 26.4309 8.73439 26.4411C8.75903 26.4512 8.78544 26.4564 8.8121 26.4564C8.85214 26.4563 8.89127 26.4444 8.92455 26.4221C8.95783 26.3998 8.98376 26.368 8.99906 26.331C9.01437 26.2939 9.01835 26.2531 9.01052 26.2137C9.00269 26.1743 8.98339 26.1382 8.95507 26.1098L6.2605 23.4084C5.70612 22.8526 5.6924 21.9564 6.22098 21.3846V21.3828L6.2605 21.3431C6.82861 20.7737 7.75292 20.7737 8.32102 21.3431L14.2208 27.2563V30.3458H8.05873V28.6204C8.05873 28.566 8.03731 28.5146 7.999 28.4762ZM20.4559 4.42132L17.9998 3L9.67351 7.81823L12.1296 9.23955L20.4559 4.42132ZM14.354 10.5263L22.6793 5.70815L20.8614 4.65592L12.5351 9.47415L14.354 10.5263ZM12.3323 13.7295L14.1512 14.7817V10.8783L12.3323 9.82584V13.7295ZM7.49657 33H14.783V30.7523H7.49657V33ZM21.2166 33H28.503V30.7523H21.2166V33ZM14.5568 15.1338C14.5567 15.1695 14.5473 15.2045 14.5295 15.2354C14.5117 15.2663 14.4862 15.292 14.4554 15.3099C14.4245 15.3278 14.3897 15.3371 14.354 15.3371C14.3183 15.3371 14.2836 15.3278 14.2526 15.3099L12.0283 14.0227C11.9974 14.0049 11.9718 13.9793 11.954 13.9483C11.9362 13.9174 11.9269 13.8824 11.9269 13.8467V9.59124L9.47121 8.17026V17.8066L17.7972 22.6249V12.9884L14.5569 11.1129V15.1338H14.5568ZM31.5424 13.5536C30.7395 13.5536 30.0849 14.2093 30.0849 15.0142V21.1179L30.1177 21.1561C30.7535 21.894 30.7141 23.0056 30.0258 23.6957L27.3312 26.3972C27.3123 26.416 27.2899 26.431 27.2653 26.4411C27.2406 26.4513 27.2142 26.4565 27.1876 26.4564C27.134 26.4565 27.0825 26.4351 27.0446 26.3972C27.0066 26.3591 26.9853 26.3074 26.9853 26.2535C26.9853 26.1997 27.0066 26.148 27.0446 26.1099L29.7391 23.4084C30.2935 22.8526 30.3071 21.9564 29.7786 21.3846V21.3828L29.7391 21.3431C29.1709 20.7736 28.2467 20.7736 27.6786 21.3431L21.7788 27.2563V30.3458H27.9409V28.6204C27.9409 28.5662 27.9624 28.5145 28.0007 28.4762L32.5713 23.8946C32.8459 23.6193 33 23.2525 33 22.863V15.0142C32.9999 14.2093 32.3453 13.5536 31.5424 13.5536ZM26.5289 8.17026L18.2026 12.9884V22.6248L26.5289 17.8066L26.5289 8.17026ZM23.0848 5.94275L14.7595 10.7612L17.9998 12.6367L26.3262 7.81816L23.0848 5.94275Z" fill="white"/>
</svg>
