<svg width="36" height="36" viewBox="0 0 36 36" fill="none" xmlns="http://www.w3.org/2000/svg">
<path d="M31.4834 25.4203L30.4806 25.5483C30.5296 25.3707 30.542 25.1854 30.5174 25.0031L29.4384 17.0085C29.3328 16.2265 28.598 15.6895 27.8086 15.7904L26.8387 15.9141C26.8862 15.7389 26.8983 15.5551 26.8736 15.37L25.8446 7.7414C25.7401 6.96709 25.0115 6.4214 24.2141 6.52336C17.3876 7.39512 17.394 7.39406 13.6554 7.8709C13.4682 7.8944 13.2876 7.95328 13.1237 8.04422L13.0099 7.20041C12.9783 6.96675 12.8827 6.74565 12.7332 6.56022C12.5836 6.37478 12.3856 6.23183 12.1598 6.14631L10.1212 5.37451C9.91981 4.99587 9.58355 4.70152 9.17526 4.54646L5.45379 3.13687C3.23563 2.29746 1.92937 5.55914 4.14669 6.40154L7.86877 7.81172C8.2783 7.96506 8.72844 7.97068 9.14098 7.82344L10.4342 8.31357L12.6391 24.6523C11.2013 25.4353 10.2898 26.9285 10.2898 28.5442C10.2898 31.0014 12.3447 33 14.8704 33C16.9553 33 18.7959 31.6434 19.3151 29.6238L31.8351 28.0263C31.8353 28.0263 31.8354 28.0263 31.8355 28.0263C33.6058 27.799 33.2531 25.1951 31.4834 25.4203ZM23.1755 20.4126L22.0864 19.7807C21.9991 19.7301 21.8969 19.7096 21.7962 19.7224C21.6954 19.7353 21.6021 19.7808 21.5312 19.8516L20.6468 20.7352L20.2302 17.6439L22.7583 17.3212L23.1755 20.4126ZM13.7728 8.7416L16.8705 8.34633L17.3943 12.2289C17.4428 12.5891 17.8942 12.7386 18.1596 12.4842L19.4769 11.2152L21.0857 12.1105C21.4128 12.2914 21.8069 12.0291 21.7576 11.6719L21.2339 7.78945C24.5199 7.37015 24.3479 7.38949 24.4045 7.38949C24.6671 7.38949 24.9116 7.57763 24.9493 7.8556L25.9783 15.4842C26.0155 15.7573 25.8306 16.0321 25.5195 16.0827C25.5175 16.0829 14.9453 17.4325 14.9433 17.4325C14.6933 17.4637 14.4019 17.3303 14.328 16.971L13.2966 9.32373C13.2689 9.04025 13.4748 8.77998 13.7729 8.7416H13.7728ZM11.2952 7.94168C11.2847 7.86363 11.2528 7.78975 11.203 7.72775C11.1531 7.66575 11.087 7.6179 11.0117 7.58918L9.98451 7.20035C10.1677 6.95285 10.2791 6.66041 10.3102 6.38871L11.8323 6.96492C11.9072 6.99325 11.973 7.04063 12.0227 7.10213C12.0723 7.16362 12.1041 7.23697 12.1147 7.31449C12.8701 12.9143 13.6253 18.5142 14.3803 24.1141C14.0611 24.1471 13.764 24.2102 13.5013 24.291L11.2952 7.94168ZM14.8704 32.1216C12.8426 32.1216 11.1929 30.5171 11.1929 28.5442C11.1929 26.6187 12.7962 24.9674 14.8704 24.9674H14.8921C16.8842 24.9775 18.5479 26.556 18.5479 28.5442C18.5479 30.5184 16.9162 32.1216 14.8704 32.1216V32.1216ZM31.7176 27.1554L19.4476 28.721C19.4592 28.4294 19.4418 28.1374 19.3957 27.849C21.8732 27.5328 13.0722 28.6561 31.6007 26.2912C32.1891 26.2172 32.3038 27.0797 31.7176 27.1554ZM17.2246 28.5448C17.2246 29.8068 16.1685 30.8338 14.871 30.8338C13.5729 30.8338 12.5174 29.8067 12.5174 28.5448C12.5174 27.2822 13.5729 26.2551 14.871 26.2551C16.1685 26.2551 17.2246 27.2822 17.2246 28.5448Z" fill="#43454C"/>
</svg>
