<svg width="128" height="128" viewBox="0 0 128 128" fill="none" xmlns="http://www.w3.org/2000/svg">
<path d="M49.979 87.8417C49.284 86.444 38.5704 65.0155 27.6085 62.3198C23.9131 61.4904 20.9525 62.2226 20.9525 62.2226C16.8833 63.404 13.9176 66.9304 12.7605 70.0088C10.4437 76.8632 14.0059 82.0894 17.4862 86.9867C24.4469 96.7787 31.2027 106.449 38.1633 116.242C40.539 119.494 42.9544 122.909 46.7726 124.232C51.739 125.969 57.4133 123.518 60.7912 119.541C64.3342 115.523 66.0302 110.392 67.7672 105.425L70.8686 96.8056C74.4232 87.2005 78.3489 77.6798 82.4782 68.2808C86.6075 58.8818 90.9429 49.6094 95.6481 40.4178C100.353 31.2261 105.098 22.2008 110.377 13.2165C111.738 10.9598 112.935 8.74415 114.295 6.48751C114.544 6.07791 116.233 3.73935 115.946 3.28751C115.66 2.83439 113.397 4.26671 112.904 4.38831C108.709 6.47471 104.676 9.21775 101.055 12.2091C93.6859 18.3941 87.6712 25.8155 81.9022 33.5262C69.7319 50.6881 59.0519 68.8595 49.979 87.8417Z" fill="url(#paint0_linear_1_16218)"/>
<defs>
<linearGradient id="paint0_linear_1_16218" x1="9.01647" y1="-14.4968" x2="126.798" y2="114.578" gradientUnits="userSpaceOnUse">
<stop stop-color="white"/>
<stop offset="1" stop-color="#A5D1FF"/>
</linearGradient>
</defs>
</svg>
