<svg width="36" height="36" viewBox="0 0 36 36" fill="none" xmlns="http://www.w3.org/2000/svg">
<path d="M32.6863 28.9849C32.4914 29.2722 32.227 29.5079 31.9167 29.6709C31.6063 29.8338 31.2596 29.9191 30.9075 29.9189H30.6655L28.3318 29.6401L27.4352 31.7453C27.2802 32.0993 27.0278 32.4042 26.7061 32.6257C26.3845 32.8473 26.0063 32.9769 25.6137 33H25.4288C25.0564 32.9982 24.6912 32.8991 24.371 32.7128C24.0508 32.5265 23.7871 32.2599 23.6073 31.9404L21.0742 27.6325C21.538 27.3794 21.9642 27.0651 22.3408 26.6985L23.2942 25.7644H24.3615C25.587 25.7663 26.7781 25.3667 27.745 24.629C28.712 23.8913 29.3994 22.858 29.6979 21.6935L32.6863 26.81C32.8914 27.1371 33 27.5135 33 27.8974C33 28.2813 32.8914 28.6578 32.6863 28.9849ZM16.2928 27.8556L13.8737 31.9404C13.689 32.2538 13.4235 32.514 13.1038 32.6951C12.7841 32.8762 12.4215 32.9717 12.0522 32.9721H11.9241C11.5316 32.949 11.1534 32.8194 10.8317 32.5979C10.51 32.3763 10.2576 32.0714 10.1026 31.7174L9.17763 29.5983L6.87231 29.8911C6.48208 29.9368 6.08655 29.8754 5.72988 29.7137C5.37321 29.552 5.06942 29.2964 4.85244 28.9754C4.63546 28.6543 4.51383 28.2805 4.50111 27.8957C4.4884 27.5109 4.5851 27.1302 4.78044 26.7961L7.42729 22.3209C7.82265 23.3381 8.52434 24.2135 9.43929 24.831C10.3542 25.4485 11.4392 25.7789 12.5502 25.7783H13.6175L14.571 26.7124C15.0669 27.1956 15.651 27.5834 16.2928 27.8556ZM29.2994 12.2691L28.1183 11.1259C27.8726 10.8688 27.7353 10.5301 27.7341 10.1779V8.78371C27.7303 7.90853 27.3738 7.07025 26.7421 6.4514C26.1105 5.83255 25.2548 5.48326 24.3615 5.47959H22.9384C22.577 5.4746 22.231 5.33503 21.9708 5.08923L20.7896 3.93209C20.1492 3.33378 19.2981 3 18.4132 3C17.5282 3 16.6772 3.33378 16.0367 3.93209L14.8556 5.08923C14.5953 5.33503 14.2494 5.4746 13.8879 5.47959H12.4649C11.5803 5.50512 10.7415 5.87021 10.1292 6.49614C9.51692 7.12206 9.18028 7.95866 9.19186 8.82553V10.2197C9.18677 10.5738 9.04431 10.9127 8.79341 11.1677L7.61229 12.3109C7.29605 12.6158 7.04489 12.9793 6.87346 13.3802C6.70202 13.7811 6.61373 14.2114 6.61373 14.6461C6.61373 15.0808 6.70202 15.5111 6.87346 15.912C7.04489 16.3129 7.29605 16.6764 7.61229 16.9813L8.79341 18.1384C9.041 18.3899 9.1832 18.7232 9.19186 19.0725V20.4666C9.19186 21.3393 9.54569 22.1761 10.1755 22.7931C10.8053 23.4102 11.6595 23.7568 12.5502 23.7568H13.9733C14.3347 23.7618 14.6807 23.9014 14.9409 24.1472L16.1221 25.3043C16.7539 25.919 17.6081 26.264 18.4985 26.264C19.3889 26.264 20.2432 25.919 20.875 25.3043L22.0561 24.1472C22.3164 23.9014 22.6624 23.7618 23.0238 23.7568H24.4469C25.3389 23.7568 26.1946 23.4106 26.8266 22.794C27.4587 22.1774 27.8157 21.3405 27.8195 20.4666V19.0725C27.8243 18.7251 27.9613 18.392 28.2037 18.1384L29.3848 16.9813C29.7003 16.6692 29.9489 16.2984 30.1158 15.8907C30.2827 15.483 30.3645 15.0467 30.3566 14.6075C30.3486 14.1683 30.251 13.7352 30.0694 13.3335C29.8879 12.9319 29.626 12.57 29.2994 12.2691ZM23.3084 13.6632L18.5555 18.2778C18.3554 18.4736 18.0841 18.5836 17.8013 18.5836C17.5184 18.5836 17.2472 18.4736 17.047 18.2778L14.6706 15.9496C14.4707 15.7536 14.3584 15.4878 14.3584 15.2107C14.3584 14.9336 14.4707 14.6679 14.6706 14.4718C14.8749 14.2785 15.1478 14.1704 15.4319 14.1704C15.716 14.1704 15.9889 14.2785 16.1932 14.4718L17.8013 16.0611L21.7858 12.1436C21.9901 11.9502 22.263 11.8422 22.5471 11.8422C22.8312 11.8422 23.1041 11.9502 23.3084 12.1436C23.5083 12.3396 23.6206 12.6054 23.6206 12.8825C23.6206 13.1596 23.5083 13.4253 23.3084 13.6214V13.6632Z" fill="#45B9D7"/>
</svg>
