<svg width="20" height="20" viewBox="0 0 20 20" fill="none" xmlns="http://www.w3.org/2000/svg">
<path d="M19.7072 9.29299L17.0002 6.58593V3.99987C17.0002 3.73465 16.8948 3.48029 16.7073 3.29275C16.5197 3.10521 16.2654 2.99985 16.0001 2.99985H13.4141L10.707 0.292793C10.5195 0.105318 10.2652 0 10 0C9.73483 0 9.48052 0.105318 9.29299 0.292793L6.58593 2.99985H3.99987C3.73465 2.99985 3.48029 3.10521 3.29275 3.29275C3.10521 3.48029 2.99985 3.73465 2.99985 3.99987V6.58593L0.292793 9.29299C0.105318 9.48052 0 9.73483 0 10C0 10.2652 0.105318 10.5195 0.292793 10.707L2.99985 13.4141V16.0001C2.99985 16.2654 3.10521 16.5197 3.29275 16.7073C3.48029 16.8948 3.73465 17.0002 3.99987 17.0002H6.58593L9.29299 19.7072C9.48052 19.8947 9.73483 20 10 20C10.2652 20 10.5195 19.8947 10.707 19.7072L13.4141 17.0002H16.0001C16.2654 17.0002 16.5197 16.8948 16.7073 16.7073C16.8948 16.5197 17.0002 16.2654 17.0002 16.0001V13.4141L19.7072 10.707C19.8947 10.5195 20 10.2652 20 10C20 9.73483 19.8947 9.48052 19.7072 9.29299ZM14.2071 8.20696L9.20698 13.2071C9.01945 13.3945 8.76514 13.4999 8.49997 13.4999C8.2348 13.4999 7.98049 13.3945 7.79295 13.2071L5.79291 11.207C5.6974 11.1148 5.62121 11.0044 5.5688 10.8824C5.51639 10.7604 5.48881 10.6292 5.48765 10.4964C5.4865 10.3636 5.5118 10.2319 5.56208 10.109C5.61237 9.98615 5.68662 9.8745 5.78052 9.7806C5.87441 9.68671 5.98606 9.61245 6.10896 9.56217C6.23186 9.51189 6.36354 9.48658 6.49633 9.48774C6.62911 9.48889 6.76033 9.51648 6.88234 9.56889C7.00434 9.6213 7.11469 9.69748 7.20694 9.793L8.49997 11.086L12.7931 6.79293C12.9817 6.61077 13.2343 6.50997 13.4965 6.51225C13.7587 6.51453 14.0095 6.6197 14.1949 6.80511C14.3803 6.99053 14.4855 7.24134 14.4878 7.50355C14.4901 7.76575 14.3893 8.01836 14.2071 8.20696Z" fill="white"/>
</svg>
