<svg width="32" height="32" viewBox="0 0 32 32" fill="none" xmlns="http://www.w3.org/2000/svg">
<path d="M8.82659 26.0141C7.51639 24.6121 6.45812 23.2405 5.43584 21.9124C4.50185 20.7045 3.69201 19.4137 3.01754 18.058C2.59534 17.235 2.40846 16.4028 3.32277 15.8667C5.94387 14.3322 6.48096 15.7974 7.90467 17.4975C8.74907 18.5051 9.99491 20.1662 10.7749 21.216C11.5204 22.2184 12.4291 20.4095 12.7911 19.8985C14.0806 18.085 17.4305 13.643 18.8154 12.0017C20.1298 10.4428 24.3719 6.07666 25.1623 5.38227C25.8357 4.79075 27.2573 3.4943 28.2132 4.20979C29.2168 4.96155 29.7082 6.39055 29.0022 7.3197C27.7723 8.9373 25.8412 10.4758 24.5047 12.0162C21.7999 15.134 19.239 18.4945 16.7806 21.8412C15.9452 22.9781 14.7727 24.8825 14.0446 26.1157C12.6825 28.423 11.4864 28.8616 8.8259 26.0141H8.82659Z" fill="#45B9D7"/>
</svg>
