<svg width="36" height="36" viewBox="0 0 36 36" fill="none" xmlns="http://www.w3.org/2000/svg">
<path d="M18 33C26.2843 33 33 26.2843 33 18C33 9.71573 26.2843 3 18 3C9.71573 3 3 9.71573 3 18C3 26.2843 9.71573 33 18 33Z" fill="#EAB14D"/>
<path d="M17.9993 3C17.7316 3 17.4655 3.00732 17.2012 3.02115C25.1144 3.43611 31.4031 9.9835 31.4031 18C31.4031 26.0165 25.1144 32.5639 17.2012 32.9788C17.4655 32.9927 17.7316 33 17.9993 33C26.2836 33 32.9993 26.2843 32.9993 18C32.9993 9.71572 26.2836 3 17.9993 3Z" fill="#E49542"/>
<path d="M17.9992 29.6879C24.4547 29.6879 29.6879 24.4547 29.6879 17.9992C29.6879 11.5438 24.4547 6.31055 17.9992 6.31055C11.5438 6.31055 6.31055 11.5438 6.31055 17.9992C6.31055 24.4547 11.5438 29.6879 17.9992 29.6879Z" fill="#F4FBFF"/>
<path d="M18.0003 6.31055C17.6766 6.31055 17.3561 6.32432 17.0391 6.3501C23.0449 6.839 27.7666 11.8675 27.7666 17.9992C27.7666 24.131 23.0449 29.1594 17.0391 29.6484C17.3561 29.6742 17.6766 29.688 18.0003 29.688C24.4558 29.688 29.689 24.4547 29.689 17.9993C29.689 11.5438 24.4558 6.31055 18.0003 6.31055Z" fill="#DAF1F4"/>
<path d="M17.999 9.9085C17.8789 9.9085 17.7638 9.86081 17.6789 9.77591C17.594 9.69101 17.5463 9.57587 17.5463 9.45581V8.79135C17.5477 8.67218 17.596 8.55834 17.6807 8.47454C17.7655 8.39075 17.8798 8.34375 17.999 8.34375C18.1182 8.34375 18.2326 8.39075 18.3174 8.47454C18.4021 8.55834 18.4504 8.67218 18.4518 8.79135V9.45581C18.4517 9.57587 18.404 9.69102 18.3191 9.77591C18.2342 9.86081 18.1191 9.9085 17.999 9.9085ZM24.0158 12.4212C23.9263 12.4212 23.8387 12.3946 23.7643 12.3449C23.6898 12.2951 23.6318 12.2244 23.5975 12.1417C23.5633 12.059 23.5543 11.9679 23.5718 11.8801C23.5893 11.7923 23.6324 11.7116 23.6957 11.6483L24.1656 11.1785C24.2505 11.0936 24.3656 11.0459 24.4857 11.0459C24.6058 11.0459 24.7209 11.0936 24.8058 11.1786C24.8907 11.2635 24.9384 11.3786 24.9384 11.4987C24.9384 11.6187 24.8907 11.7339 24.8058 11.8188L24.3359 12.2886C24.2939 12.3307 24.244 12.3641 24.1891 12.3868C24.1342 12.4096 24.0753 12.4212 24.0158 12.4212ZM27.1581 18.4524H26.4936C26.3736 18.4524 26.2584 18.4047 26.1735 18.3198C26.0886 18.2349 26.0409 18.1198 26.0409 17.9997C26.0409 17.8797 26.0886 17.7645 26.1735 17.6796C26.2584 17.5947 26.3736 17.547 26.4936 17.547H27.1581C27.2781 17.547 27.3933 17.5947 27.4782 17.6796C27.5631 17.7645 27.6108 17.8797 27.6108 17.9997C27.6108 18.1198 27.5631 18.2349 27.4782 18.3198C27.3933 18.4047 27.2781 18.4524 27.1581 18.4524ZM24.4508 24.9391C24.3913 24.9392 24.3324 24.9275 24.2775 24.9047C24.2225 24.882 24.1726 24.8486 24.1306 24.8065L23.6608 24.3367C23.5759 24.2518 23.5282 24.1366 23.5282 24.0165C23.5282 23.8965 23.5759 23.7813 23.6608 23.6964C23.7457 23.6115 23.8609 23.5638 23.981 23.5638C24.101 23.5638 24.2162 23.6115 24.3011 23.6964L24.7709 24.1662C24.8342 24.2295 24.8773 24.3102 24.8947 24.398C24.9121 24.4858 24.9032 24.5768 24.8689 24.6595C24.8346 24.7422 24.7766 24.8129 24.7022 24.8627C24.6278 24.9125 24.5403 24.939 24.4508 24.9391ZM17.9497 27.6115C17.8296 27.6115 17.7145 27.5639 17.6296 27.479C17.5447 27.3941 17.497 27.2789 17.497 27.1589V26.4944C17.497 26.3743 17.5447 26.2592 17.6296 26.1743C17.7145 26.0894 17.8296 26.0417 17.9497 26.0417C18.0697 26.0417 18.1849 26.0894 18.2698 26.1743C18.3547 26.2592 18.4024 26.3743 18.4024 26.4944V27.1589C18.4024 27.2789 18.3547 27.3941 18.2698 27.479C18.1849 27.5639 18.0697 27.6115 17.9497 27.6115ZM11.463 24.9042C11.4035 24.9042 11.3446 24.8926 11.2897 24.8698C11.2348 24.847 11.1849 24.8136 11.1429 24.7715C11.1008 24.7295 11.0675 24.6796 11.0447 24.6246C11.022 24.5697 11.0103 24.5108 11.0103 24.4514C11.0103 24.3919 11.022 24.3331 11.0447 24.2781C11.0675 24.2232 11.1008 24.1733 11.1429 24.1313L11.6128 23.6614C11.698 23.5781 11.8127 23.5316 11.9319 23.5323C12.0511 23.5329 12.1653 23.5806 12.2496 23.6649C12.3339 23.7492 12.3815 23.8634 12.3822 23.9827C12.3828 24.1019 12.3364 24.2166 12.2529 24.3018L11.7831 24.7716C11.7411 24.8137 11.6912 24.8471 11.6363 24.8698C11.5813 24.8926 11.5224 24.9042 11.463 24.9042ZM9.45504 18.4031H8.79059C8.67052 18.4031 8.55538 18.3554 8.47048 18.2705C8.38559 18.1856 8.33789 18.0705 8.33789 17.9504C8.33789 17.8304 8.38559 17.7152 8.47048 17.6303C8.55538 17.5454 8.67052 17.4977 8.79059 17.4977H9.45504C9.5751 17.4977 9.69025 17.5454 9.77514 17.6303C9.86004 17.7152 9.90773 17.8304 9.90773 17.9504C9.90773 18.0705 9.86004 18.1856 9.77514 18.2705C9.69025 18.3554 9.5751 18.4031 9.45504 18.4031ZM11.9678 12.3863C11.9083 12.3864 11.8494 12.3747 11.7945 12.352C11.7396 12.3292 11.6897 12.2958 11.6477 12.2537L11.1778 11.7839C11.0944 11.6987 11.048 11.584 11.0486 11.4648C11.0492 11.3456 11.0969 11.2314 11.1812 11.1471C11.2655 11.0628 11.3796 11.0151 11.4989 11.0144C11.6181 11.0138 11.7328 11.0602 11.818 11.1436L12.2879 11.6135C12.3512 11.6768 12.3943 11.7574 12.4117 11.8453C12.4292 11.9331 12.4202 12.0241 12.386 12.1068C12.3517 12.1895 12.2937 12.2602 12.2193 12.31C12.1448 12.3597 12.0573 12.3863 11.9678 12.3863ZM17.999 18.4524H14.1541C14.0349 18.4511 13.9211 18.4028 13.8373 18.318C13.7535 18.2332 13.7065 18.1189 13.7065 17.9997C13.7065 17.8805 13.7535 17.7661 13.8373 17.6814C13.9211 17.5966 14.0349 17.5483 14.1541 17.547H17.5463V11.7874C17.5463 11.6673 17.5939 11.5522 17.6788 11.4673C17.7637 11.3824 17.8789 11.3347 17.9989 11.3347C18.119 11.3347 18.2342 11.3824 18.319 11.4673C18.4039 11.5522 18.4516 11.6673 18.4516 11.7874V17.9997C18.4517 18.0591 18.44 18.118 18.4172 18.1729C18.3945 18.2278 18.3611 18.2777 18.3191 18.3198C18.2771 18.3618 18.2272 18.3952 18.1722 18.4179C18.1173 18.4407 18.0585 18.4524 17.999 18.4524Z" fill="#2B4D66"/>
<path d="M22.6442 20.841C22.5723 20.841 22.5014 20.8238 22.4375 20.7908L17.7927 18.4023C17.5703 18.288 17.4828 18.015 17.5971 17.7927C17.7114 17.5703 17.9843 17.4827 18.2067 17.5971L22.8516 19.9856C22.9045 20.0127 22.9515 20.0501 22.9899 20.0954C23.0283 20.1408 23.0575 20.1932 23.0756 20.2499C23.0938 20.3065 23.1006 20.3661 23.0957 20.4253C23.0909 20.4846 23.0744 20.5423 23.0472 20.5952C23.0091 20.6692 22.9513 20.7314 22.8802 20.7748C22.8091 20.8181 22.7274 20.8411 22.6442 20.841Z" fill="#DA4A54"/>
<path d="M17.9993 19.2077C18.6667 19.2077 19.2077 18.6667 19.2077 17.9993C19.2077 17.332 18.6667 16.791 17.9993 16.791C17.332 16.791 16.791 17.332 16.791 17.9993C16.791 18.6667 17.332 19.2077 17.9993 19.2077Z" fill="#365E7D"/>
</svg>
