<svg width="19" height="16" viewBox="0 0 19 16" fill="none" xmlns="http://www.w3.org/2000/svg">
<path d="M0.0252255 5.4283V10.3618C-0.0299359 10.7447 0.00565669 11.1351 0.129186 11.502C0.252715 11.869 0.460789 12.2024 0.736936 12.4759C1.01308 12.7495 1.34972 12.9556 1.7202 13.0779C2.09068 13.2003 2.48483 13.2355 2.87144 13.1809H9.73082C9.80867 13.1804 9.88319 13.1495 9.93824 13.095C9.99329 13.0405 10.0244 12.9667 10.0249 12.8896C9.99811 12.6745 9.98543 12.4579 9.98698 12.2412C9.98949 10.8712 10.5401 9.55804 11.5181 8.58931C12.4961 7.62059 13.8219 7.07527 15.205 7.07278C15.7096 7.07206 16.2115 7.14489 16.6946 7.28892C16.7316 7.29975 16.7698 7.30606 16.8084 7.30771C16.8466 7.30897 16.8846 7.30261 16.9202 7.28901C16.9559 7.27541 16.9884 7.25484 17.0158 7.22854C17.0433 7.20223 17.0651 7.17073 17.08 7.1359C17.0949 7.10107 17.1025 7.06362 17.1025 7.0258V5.4283H0.0252255ZM6.6664 10.1268H3.82018C3.63146 10.1268 3.45048 10.0526 3.31704 9.92041C3.18359 9.78823 3.10863 9.60897 3.10863 9.42205C3.10863 9.23513 3.18359 9.05587 3.31704 8.9237C3.45048 8.79152 3.63146 8.71727 3.82018 8.71727H6.6664C6.85511 8.71727 7.0361 8.79152 7.16954 8.9237C7.30298 9.05587 7.37795 9.23513 7.37795 9.42205C7.37795 9.60897 7.30298 9.78823 7.16954 9.92041C7.0361 10.0526 6.85511 10.1268 6.6664 10.1268ZM15.205 8.48234C14.4545 8.48234 13.7208 8.7028 13.0967 9.11582C12.4726 9.52885 11.9862 10.1159 11.699 10.8027C11.4117 11.4896 11.3366 12.2453 11.483 12.9745C11.6294 13.7036 11.9909 14.3734 12.5216 14.8991C13.0523 15.4247 13.7285 15.7827 14.4647 15.9278C15.2008 16.0728 15.9639 15.9984 16.6573 15.7139C17.3507 15.4294 17.9434 14.9476 18.3604 14.3295C18.7774 13.7113 19 12.9846 19 12.2412C19 11.2443 18.6002 10.2882 17.8885 9.58328C17.1768 8.87836 16.2115 8.48234 15.205 8.48234ZM16.723 11.7901L15.1481 13.3594C15.0553 13.4448 14.9332 13.4918 14.8066 13.491C14.6828 13.4917 14.5636 13.4445 14.4745 13.3594L13.6871 12.5701C13.6005 12.4825 13.5522 12.3647 13.5529 12.2421C13.5535 12.1196 13.6029 12.0022 13.6904 11.9156C13.7779 11.8289 13.8964 11.78 14.0201 11.7793C14.1438 11.7787 14.2628 11.8265 14.3512 11.9123L14.8066 12.3633L16.0589 11.1229C16.1476 11.0368 16.2668 10.9886 16.391 10.9886C16.5151 10.9886 16.6344 11.0368 16.723 11.1229C16.7675 11.1666 16.8028 11.2186 16.8269 11.2758C16.8509 11.3331 16.8633 11.3945 16.8633 11.4565C16.8633 11.5185 16.8509 11.58 16.8269 11.6372C16.8028 11.6945 16.7675 11.7464 16.723 11.7901ZM14.2563 0.0249853H2.87144C2.48483 -0.029651 2.09068 0.00560301 1.7202 0.127956C1.34972 0.250309 1.01308 0.456402 0.736936 0.72992C0.460789 1.00344 0.252715 1.33687 0.129186 1.70382C0.00565669 2.07077 -0.0299359 2.46117 0.0252255 2.84411V4.01874H17.1025V2.84411C17.1577 2.46117 17.1221 2.07077 16.9986 1.70382C16.875 1.33687 16.667 1.00344 16.3908 0.72992C16.1147 0.456402 15.778 0.250309 15.4075 0.127956C15.0371 0.00560301 14.6429 -0.029651 14.2563 0.0249853Z" fill="black"/>
</svg>
