<svg width="18" height="18" viewBox="0 0 18 18" fill="none" xmlns="http://www.w3.org/2000/svg">
<path fill-rule="evenodd" clip-rule="evenodd" d="M4.19009 0.45002C4.19009 0.201483 3.98862 0 3.7401 0H3.14992C1.41027 0 0 1.41036 0 3.15014V11.2505C0 12.9903 1.41027 14.4007 3.14992 14.4007H9.00256C9.30819 14.4007 9.525 14.1023 9.45174 13.8056C9.29883 13.1865 9.20893 12.5238 9.20893 11.8211C9.20893 9.0206 11.4791 6.75027 14.2794 6.75027C14.3454 6.75027 14.3996 6.69739 14.3996 6.63144V3.15014C14.3996 1.41036 12.9894 0 11.2497 0H10.6602C10.4117 0 10.2102 0.201483 10.2102 0.45002V4.35528C10.2102 5.44129 8.96125 6.05217 8.10411 5.38543L7.36595 4.81127C7.26839 4.73543 7.13189 4.73543 7.03439 4.81127L6.29623 5.38543C5.43905 6.05217 4.19009 5.44129 4.19009 4.35528V0.45002ZM2.02495 11.2904C2.02495 10.9176 2.32715 10.6154 2.69993 10.6154H4.22016C4.59295 10.6154 4.89514 10.9176 4.89514 11.2904C4.89514 11.6632 4.59295 11.9654 4.22016 11.9654H2.69993C2.32715 11.9654 2.02495 11.6632 2.02495 11.2904Z" fill="white"/>
<path d="M8.41028 0C8.65877 0 8.86027 0.201483 8.86027 0.45002V3.71119C8.86027 3.93588 8.6018 4.06228 8.4245 3.92433L7.89082 3.50922C7.48457 3.19323 6.91573 3.19323 6.50949 3.50922L5.97581 3.92433C5.79846 4.06228 5.54006 3.93588 5.54006 3.7112V0.45002C5.54006 0.201483 5.74152 0 5.99005 0H8.41028Z" fill="white"/>
<path fill-rule="evenodd" clip-rule="evenodd" d="M15.5203 17.4537C16.6023 16.3097 18 14.3438 18 11.8212C18 9.76619 16.3342 8.10039 14.2794 8.10039C12.2247 8.10039 10.5589 9.76619 10.5589 11.8212C10.5589 14.3438 11.9566 16.3097 13.0386 17.4537C13.7275 18.1821 14.8314 18.1821 15.5203 17.4537ZM14.9542 11.2574C14.9542 10.8846 14.652 10.5823 14.2792 10.5823C13.9065 10.5823 13.6042 10.8846 13.6042 11.2574V12.0034C13.6042 12.3763 13.9065 12.6784 14.2792 12.6784C14.652 12.6784 14.9542 12.3763 14.9542 12.0034V11.2574Z" fill="white"/>
</svg>
