<svg width="80" height="39" viewBox="0 0 80 39" fill="none" xmlns="http://www.w3.org/2000/svg">
<path d="M9.5779 0.24279C4.00759 1.03375 1.56271 3.30458 0.45369 8.63721C0.075615 10.4743 0 12.1328 0 19.3535C0 30.5801 0.40328 32.9785 2.79775 35.6575C5.31825 38.4897 7.81355 39 19.181 39C23.6423 39 28.1792 38.8724 29.263 38.7193C34.2788 38.0049 36.7489 35.9637 37.9839 31.4476C38.5132 29.5595 38.5384 28.8961 38.5384 19.9914C38.5636 9.65781 38.4124 7.99933 37.2026 5.39681C35.7911 2.38605 33.2454 0.829634 28.7841 0.217275C26.4652 -0.0889041 11.7707 -0.0633892 9.5779 0.24279ZM21.399 12.6175C21.9788 12.8472 21.9283 14.174 21.3486 14.4801C20.2648 15.067 19.2062 14.0719 19.7859 12.9748C20.0632 12.4645 20.6681 12.3369 21.399 12.6175ZM14.997 21.905L15.6271 22.1601C16.2068 22.3898 16.2572 22.5173 16.2572 24.2013V25.9874H15.375C14.5181 25.9874 14.4929 25.9619 14.4929 24.9668V23.9462H8.69572V24.9668C8.69572 25.9619 8.67052 25.9874 7.81355 25.9874H6.93137V24.1248C6.93137 22.4663 6.98178 22.2622 7.48588 22.0326C8.31765 21.6498 8.64531 20.1445 8.67052 16.7254L8.69572 13.7402H14.997V21.905ZM21.2982 15.96C21.2982 16.2151 20.9706 17.6185 20.5673 19.0983C20.1388 20.5527 19.8615 21.8029 19.9119 21.8795C19.9876 21.9305 20.5673 21.6243 21.2226 21.1906C22.3064 20.4761 22.4324 20.4506 22.7349 20.8334C23.2642 21.5733 23.113 21.854 21.5755 22.9256C19.9371 24.0227 19.2062 24.1758 18.4753 23.5124C17.8703 22.9766 17.8955 22.2367 18.6265 19.5321L19.2566 17.3123H18.2484C17.1898 17.3123 17.0134 16.9806 17.5175 16.011C17.7443 15.6028 18.072 15.5262 19.5339 15.5262C21.0462 15.5262 21.2982 15.6028 21.2982 15.96ZM30.372 23.9462H29.6159C28.9101 23.9462 28.8849 23.9207 28.8093 22.4663C28.7337 21.114 28.6833 21.012 28.1036 20.9354C27.5743 20.8844 27.3474 21.063 26.8685 21.956C25.9863 23.5635 25.5831 23.9462 24.8017 23.9462C23.7431 23.9462 23.7179 23.5635 24.6757 22.1091L25.5831 20.7823L24.8269 19.9914C24.2472 19.4045 24.0708 18.9708 24.0708 18.2308C24.0708 16.2151 25.079 15.5518 28.3052 15.5262H30.372V23.9462Z" fill="black"/>
<path d="M10.4601 17.3888C10.4601 18.5625 10.2836 20.0934 10.082 20.7823C9.88036 21.4712 9.70392 22.0581 9.70392 22.0836C9.70392 22.1346 10.4853 22.1601 11.4179 22.1601H13.157L13.3082 18.9197C13.3839 17.1337 13.4091 15.6028 13.3334 15.4752C13.2578 15.3732 12.5773 15.2711 11.8211 15.2711H10.4601V17.3888Z" fill="black"/>
<path d="M26.2888 17.3378C25.6587 17.695 25.7091 18.7666 26.3392 19.0983C26.6417 19.2514 27.297 19.3535 27.8011 19.3025C28.7085 19.2259 28.7337 19.2004 28.7337 18.2053C28.7337 17.1847 28.7337 17.1847 27.7255 17.1337C27.171 17.0827 26.5157 17.1847 26.2888 17.3378Z" fill="black"/>
<path d="M51.1409 0.217277C45.1674 1.05927 42.546 3.63628 41.7395 9.50472C41.3362 12.4645 41.3866 27.6714 41.8151 30.1208C42.6721 34.8666 44.7641 37.265 49.0489 38.3876C51.1661 38.949 66.2891 39.2041 69.8934 38.7449C76.5224 37.9029 79.0176 35.3769 79.799 28.692C80.2023 25.1964 79.9502 9.78538 79.4713 7.84625C78.942 5.77954 78.1607 4.29967 76.9508 3.04944C74.4051 0.446912 72.9432 0.166248 61.6262 0.0897028C56.7112 0.0386729 51.9727 0.0897028 51.1409 0.217277ZM69.3137 0.727576C73.0693 1.1103 74.8084 1.77369 76.5476 3.53422C79.0933 6.13675 79.547 8.86684 79.3957 21.1395C79.2949 29.5084 79.0933 31.2435 77.9338 33.5398C76.7744 35.8361 74.8588 37.1629 71.7334 37.9029C69.4902 38.4132 56.7868 38.6683 52.7288 38.2601C48.3936 37.8263 46.7301 37.2395 44.9909 35.4534C42.3444 32.7999 41.8403 29.7381 42.0419 17.4654C42.1932 7.38698 42.5208 5.80505 45.0413 3.35562C46.6796 1.74817 48.5952 1.05927 52.5524 0.651032C54.5688 0.446912 66.9949 0.497942 69.3137 0.727576Z" fill="black"/>
<path d="M60.2651 7.64213C59.8871 8.56067 59.8871 9.12199 60.1139 12.5155C60.4416 16.9296 60.1391 19.3025 58.8537 22.0836C58.0723 23.7931 57.9715 23.8696 56.9885 23.3848C55.8291 22.8745 55.8291 21.3181 56.9885 20.8844C57.7194 20.6037 57.7446 20.1189 57.2153 16.4703C56.7112 12.7961 56.2575 11.648 54.6948 10.015C53.9639 9.24957 53.2329 8.63721 53.0817 8.63721C52.8801 8.63721 52.8045 11.5714 52.8045 18.4605V28.2837H57.0893L57.8203 29.8912C58.2235 30.7842 59.0301 31.9579 59.6854 32.5957L60.8196 33.7184L61.601 33.1571C62.6596 32.3916 63.5922 31.0904 64.1467 29.636L64.6004 28.4113L69.1625 28.2582L69.1121 18.4605C69.0869 11.699 68.9861 8.63721 68.7844 8.63721C68.2803 8.63721 66.1379 11.0611 65.533 12.3369C65.1297 13.2044 64.802 14.6843 64.55 16.6744C64.0459 20.5782 64.0207 20.4251 64.9029 20.9354C65.8606 21.4967 65.9615 22.6959 65.1045 23.2828C64.1215 23.9717 63.7434 23.7931 63.0629 22.2112C61.727 19.2259 61.5506 17.8991 61.7522 12.8217C61.9035 8.81581 61.8783 8.07588 61.5254 7.38698C61.2985 6.95322 61.0213 6.59601 60.8953 6.59601C60.7692 6.59601 60.492 7.05528 60.2651 7.64213ZM54.9469 12.5665C55.4258 13.4085 55.6778 14.4036 55.9803 16.5979L56.3584 19.5321L55.4762 20.4506C54.9973 20.9609 54.4932 21.3947 54.342 21.3947C54.1403 21.3947 54.0647 19.7872 54.0647 16.4193C54.0647 13.6892 54.1151 11.4439 54.1907 11.4439C54.2411 11.4439 54.594 11.9542 54.9469 12.5665ZM67.6754 16.5213C67.6754 19.2004 67.5746 21.4202 67.4738 21.4967C67.3477 21.5733 66.8436 21.1395 66.3395 20.5272L65.4322 19.43L65.8102 16.6744C66.1379 14.0464 66.9193 11.699 67.4486 11.699C67.5746 11.699 67.6754 13.7912 67.6754 16.5213ZM61.601 24.5075C60.8701 24.9413 60.8196 24.9413 60.2399 24.533C59.9123 24.2779 59.6098 23.9972 59.6098 23.9207C59.6098 23.8186 59.9123 23.1042 60.2651 22.2877L60.9205 20.8334L62.3319 24.0482L61.601 24.5075ZM55.2998 23.7165C55.6274 24.1503 56.2071 24.6096 56.6104 24.7627C57.291 24.9923 57.3666 25.1199 57.291 25.9619L57.2153 26.8804L54.0647 27.0335V24.9668C54.0647 22.6704 54.342 22.3898 55.2998 23.7165ZM67.6754 24.9668V27.008H64.7012L64.5248 26.0894C64.3736 25.1454 64.6004 24.7371 65.3313 24.7116C65.5078 24.7116 65.9615 24.3034 66.3395 23.8186C67.4486 22.4153 67.6754 22.6194 67.6754 24.9668ZM63.1889 26.2425C63.2645 26.8039 63.1385 26.8804 62.458 26.9569C61.475 27.059 61.3742 26.6763 62.1807 25.8088C62.7856 25.1454 63.0881 25.273 63.1889 26.2425ZM59.8115 25.7833C59.9879 25.9619 60.1139 26.2936 60.1139 26.5487C60.1139 26.8804 59.9123 27.008 59.3578 27.008C58.6772 27.008 58.6016 26.9314 58.6016 26.2425C58.6016 25.6812 58.7276 25.4771 59.0553 25.4771C59.3074 25.4771 59.635 25.6047 59.8115 25.7833ZM60.2399 29.6105C60.2399 30.2994 60.1643 30.8352 60.0383 30.8352C59.761 30.8352 58.8537 29.2278 58.8537 28.7175C58.8537 28.3603 59.0049 28.2582 59.5594 28.3347C60.1895 28.4113 60.2399 28.4878 60.2399 29.6105ZM63.1385 28.4113C63.1385 28.692 62.0547 30.8607 61.8531 30.9883C61.727 31.0648 61.6262 30.478 61.6262 29.7126C61.6262 28.2837 61.6262 28.2837 62.3824 28.2837C62.8108 28.2837 63.1385 28.3348 63.1385 28.4113Z" fill="black"/>
</svg>
