<svg width="128" height="128" viewBox="0 0 128 128" fill="none" xmlns="http://www.w3.org/2000/svg">
<path d="M125.866 40.5328V23.4661C125.866 21.203 124.967 19.0325 123.367 17.4322C121.766 15.8319 119.596 14.9328 117.333 14.9328H60.7397C57.5077 14.9328 54.5531 13.1067 53.1067 10.216L51.4235 6.84961C50.7145 5.4323 49.6249 4.24035 48.2768 3.40728C46.9286 2.57421 45.3752 2.13291 43.7904 2.13281H10.6661C8.40297 2.13281 6.23248 3.03186 4.63217 4.63217C3.03186 6.23248 2.13281 8.40297 2.13281 10.6661V53.3328H123.733L125.866 40.5328Z" fill="#69ADFE"/>
<path d="M115.201 51.2001V27.7335C115.201 26.6019 114.751 25.5166 113.951 24.7165C113.151 23.9163 112.066 23.4668 110.934 23.4668H17.0674C15.9359 23.4668 14.8506 23.9163 14.0505 24.7165C13.2503 25.5166 12.8008 26.6019 12.8008 27.7335V51.2001H115.201Z" fill="#E8ECEF"/>
<path d="M125.866 40.5333V104.533C125.866 106.797 124.967 108.967 123.367 110.567C121.766 112.168 119.596 113.067 117.333 113.067H10.6661C8.40297 113.067 6.23248 112.168 4.63217 110.567C3.03186 108.967 2.13281 106.797 2.13281 104.533V53.3333C2.13281 51.0702 3.03186 48.8997 4.63217 47.2994C6.23248 45.699 8.40297 44.8 10.6661 44.8H67.2592C70.4912 44.8 73.4459 42.9739 74.8923 40.0832L76.5755 36.7168C77.2845 35.2995 78.3741 34.1075 79.7222 33.2745C81.0704 32.4414 82.6238 32.0001 84.2085 32H117.335C119.598 32 121.769 32.899 123.369 34.4994C124.969 36.0997 125.866 38.2702 125.866 40.5333Z" fill="#8DD1FE"/>
<path d="M97.018 125.865H30.9828C25.0905 125.865 21.498 119.546 24.6212 114.674L57.6388 63.1689C60.5764 58.5843 67.4244 58.5843 70.3641 63.1689L103.382 114.674C106.505 119.546 102.91 125.865 97.018 125.865Z" fill="#FCC438"/>
<path d="M97.018 125.865H30.9828C25.0905 125.865 21.498 119.546 24.6212 114.674L57.6388 63.1689C60.5764 58.5843 67.4244 58.5843 70.3641 63.1689L103.382 114.674C106.505 119.546 102.91 125.865 97.018 125.865Z" fill="url(#paint0_linear_1_16230)"/>
<path d="M66.1324 74.666H61.8658C60.6875 74.666 59.7324 75.6211 59.7324 76.7993V98.1327C59.7324 99.3109 60.6875 100.266 61.8658 100.266H66.1324C67.3106 100.266 68.2658 99.3109 68.2658 98.1327V76.7993C68.2658 75.6211 67.3106 74.666 66.1324 74.666Z" fill="white"/>
<path d="M63.9991 117.332C66.3555 117.332 68.2658 115.422 68.2658 113.065C68.2658 110.709 66.3555 108.799 63.9991 108.799C61.6427 108.799 59.7324 110.709 59.7324 113.065C59.7324 115.422 61.6427 117.332 63.9991 117.332Z" fill="white"/>
<defs>
<linearGradient id="paint0_linear_1_16230" x1="21.1255" y1="50.1061" x2="79.4011" y2="141.672" gradientUnits="userSpaceOnUse">
<stop stop-color="white"/>
<stop offset="1" stop-color="#A5D1FF"/>
</linearGradient>
</defs>
</svg>
