<svg width="36" height="36" viewBox="0 0 36 36" fill="none" xmlns="http://www.w3.org/2000/svg">
<path fill-rule="evenodd" clip-rule="evenodd" d="M19.9303 6.08846L22.8739 7.86183L13.7161 13.3789V17.724L16.3719 19.324V14.9789L25.5296 9.46181L28.4733 11.2352C28.6688 11.353 28.7807 11.5551 28.7807 11.7907V17.6317C28.3597 17.5438 27.9314 17.4997 27.5021 17.4998C23.9224 17.4998 21.0206 20.5278 21.0206 24.2631C21.0206 25.1743 21.1937 26.0432 21.5068 26.8367L19.9303 27.7864C19.7348 27.9042 19.511 27.9042 19.3155 27.7864L11.3168 22.9676H3.4918C3.36137 22.9676 3.23628 22.9136 3.14405 22.8173C3.05181 22.7211 3 22.5906 3 22.4545C3 22.3184 3.05181 22.1878 3.14405 22.0916C3.23628 21.9953 3.36137 21.9413 3.4918 21.9413H10.4651V17.4505H5.91971C5.78928 17.4505 5.66419 17.3965 5.57196 17.3002C5.47972 17.204 5.42791 17.0735 5.42791 16.9374C5.42791 16.8013 5.47972 16.6707 5.57196 16.5745C5.66419 16.4782 5.78928 16.4242 5.91971 16.4242H10.4651V11.9334H3.4918C3.36137 11.9334 3.23628 11.8794 3.14405 11.7831C3.05181 11.6869 3 11.5564 3 11.4202C3 11.2841 3.05181 11.1536 3.14405 11.0574C3.23628 10.9611 3.36137 10.9071 3.4918 10.9071H11.317L17.7585 7.02637H14.4368C14.3063 7.02637 14.1812 6.9723 14.089 6.87606C13.9968 6.77982 13.945 6.64929 13.945 6.51318C13.945 6.37708 13.9968 6.24655 14.089 6.15031C14.1812 6.05407 14.3063 6 14.4368 6H19.623C19.7316 6.00013 19.8363 6.03188 19.9303 6.08846ZM27.5021 18.5262C24.4657 18.5262 22.0041 21.0948 22.0041 24.2631C22.0041 27.4315 24.4657 30 27.5021 30C30.5385 30 33 27.4315 33 24.2631C33 21.0947 30.5385 18.5262 27.5021 18.5262ZM30.6082 23.1487C29.5242 24.2904 28.4474 25.4396 27.3583 26.576C27.04 26.9083 26.5235 26.9083 26.2051 26.576L24.3982 24.6907C24.0799 24.3584 24.0799 23.8195 24.3982 23.4873C24.7166 23.1551 25.2331 23.1551 25.5515 23.4873L26.78 24.7692L29.4533 21.9518C29.7698 21.6183 30.286 21.6173 30.6047 21.9481C30.9234 22.2787 30.9243 22.8159 30.6082 23.1487ZM11.3722 6.00013H5.91971C5.78928 6.00013 5.66419 6.0542 5.57196 6.15044C5.47972 6.24668 5.42791 6.37721 5.42791 6.51331C5.42791 6.64942 5.47972 6.77995 5.57196 6.87619C5.66419 6.97243 5.78928 7.0265 5.91971 7.0265H11.3722C11.5026 7.0265 11.6277 6.97243 11.72 6.87619C11.8122 6.77995 11.864 6.64942 11.864 6.51331C11.864 6.37721 11.8122 6.24668 11.72 6.15044C11.6277 6.0542 11.5026 6.00013 11.3722 6.00013Z" fill="#45B9D7"/>
</svg>
