<svg width="24" height="24" viewBox="0 0 24 24" fill="none" xmlns="http://www.w3.org/2000/svg">
<mask id="mask0_1_12755" style="mask-type:luminance" maskUnits="userSpaceOnUse" x="0" y="0" width="24" height="24">
<path d="M0 7.05719e-05H23.9999V24H0V7.05719e-05Z" fill="white"/>
</mask>
<g mask="url(#mask0_1_12755)">
<path d="M12 5.16063C10.9458 5.16063 10.0881 6.03844 10.0881 7.11746C10.0881 7.44105 9.83176 7.7034 9.51559 7.7034C9.19942 7.7034 8.9431 7.44105 8.9431 7.11746C8.9431 5.39227 10.3144 3.98875 12 3.98875C12.3162 3.98875 12.5725 4.25109 12.5725 4.57469C12.5725 4.89828 12.3162 5.16063 12 5.16063ZM17 7.11746C17 4.29566 14.757 2 12 2C9.24301 2 7 4.29566 7 7.11746C7 9.74105 8.93917 11.9095 11.4275 12.2012V21.4141C11.4275 21.7377 11.6838 22 12 22C12.3162 22 12.5725 21.7377 12.5725 21.4141V12.2012C15.0608 11.9095 17 9.74105 17 7.11746Z" fill="black"/>
</g>
</svg>
