<svg width="36" height="36" viewBox="0 0 36 36" fill="none" xmlns="http://www.w3.org/2000/svg">
<rect width="36" height="36" rx="12" fill="white"/>
<path d="M19.7655 24.2306V20.0775H16.2345V24.2324H13.534L16.8084 27.5067C16.9648 27.6631 17.1504 27.7872 17.3547 27.8718C17.559 27.9564 17.778 28 17.9991 28C18.2202 28 18.4392 27.9564 18.6435 27.8718C18.8478 27.7872 19.0334 27.6631 19.1898 27.5067L22.4641 24.2324H19.7655V24.2306ZM11.7694 22.4659V13.5341L8.49327 16.8084C8.33688 16.9648 8.21283 17.1504 8.1282 17.3547C8.04356 17.559 8 17.778 8 17.9991C8 18.2202 8.04356 18.4392 8.1282 18.6435C8.21283 18.8478 8.33688 19.0334 8.49327 19.1898L11.7694 22.4659ZM16.2345 11.7694V15.9225H19.7655V11.7694H22.4659L19.1916 8.49327C19.0352 8.33688 18.8496 8.21283 18.6453 8.1282C18.441 8.04356 18.222 8 18.0009 8C17.7797 8 17.5608 8.04356 17.3565 8.1282C17.1522 8.21283 16.9665 8.33688 16.8102 8.49327L13.534 11.7694H16.2345ZM27.5067 16.8084L24.2323 13.5341V22.4659L27.5067 19.1916C28.1644 18.5338 28.1644 17.4662 27.5067 16.8084Z" fill="#DA292B"/>
</svg>
