<svg width="36" height="36" viewBox="0 0 36 36" fill="none" xmlns="http://www.w3.org/2000/svg">
<path fill-rule="evenodd" clip-rule="evenodd" d="M8.38018 0.90004C8.38018 0.402966 7.97724 0 7.4802 0H6.29985C2.82055 0 0 2.82073 0 6.30028V22.5011C0 25.9806 2.82055 28.8013 6.29985 28.8013H18.0051C18.6164 28.8013 19.05 28.2046 18.9035 27.6111C18.5977 26.373 18.4179 25.0476 18.4179 23.6421C18.4179 18.0412 22.9582 13.5005 28.5588 13.5005C28.6907 13.5005 28.7993 13.3948 28.7993 13.2629V6.30028C28.7993 2.82073 25.9787 0 22.4994 0H21.3205C20.8233 0 20.4205 0.402966 20.4205 0.90004V8.71057C20.4205 10.8826 17.9225 12.1043 16.2082 10.7709L14.7319 9.62254C14.5368 9.47087 14.2638 9.47087 14.0688 9.62254L12.5925 10.7709C10.8781 12.1043 8.38018 10.8826 8.38018 8.71057V0.90004ZM4.0499 22.5808C4.0499 21.8352 4.65431 21.2308 5.39987 21.2308H8.44032C9.18589 21.2308 9.79028 21.8352 9.79028 22.5808C9.79028 23.3264 9.18589 23.9309 8.44032 23.9309H5.39987C4.65431 23.9309 4.0499 23.3264 4.0499 22.5808Z" fill="#43454C"/>
<path d="M16.8206 0C17.3175 0 17.7205 0.402966 17.7205 0.90004V7.42238C17.7205 7.87177 17.2036 8.12455 16.849 7.84865L15.7816 7.01844C14.9691 6.38647 13.8315 6.38647 13.019 7.01844L11.9516 7.84865C11.5969 8.12455 11.0801 7.87177 11.0801 7.42239V0.90004C11.0801 0.402966 11.483 0 11.9801 0H16.8206Z" fill="#43454C"/>
<path fill-rule="evenodd" clip-rule="evenodd" d="M31.0406 34.9074C33.2047 32.6193 36 28.6876 36 23.6423C36 19.5324 32.6685 16.2008 28.5588 16.2008C24.4493 16.2008 21.1178 19.5324 21.1178 23.6423C21.1178 28.6876 23.9131 32.6193 26.0772 34.9074C27.4551 36.3642 29.6627 36.3642 31.0406 34.9074ZM29.9084 22.5147C29.9084 21.7692 29.304 21.1647 28.5584 21.1647C27.8129 21.1647 27.2085 21.7692 27.2085 22.5147V24.0068C27.2085 24.7526 27.8129 25.3569 28.5584 25.3569C29.304 25.3569 29.9084 24.7526 29.9084 24.0068V22.5147Z" fill="#43454C"/>
</svg>
