<svg width="36" height="36" viewBox="0 0 36 36" fill="none" xmlns="http://www.w3.org/2000/svg">
<path d="M6 29.2862V31.4483C6 32.3018 6.675 33 7.5 33H10.5C11.325 33 12 32.3018 12 31.4483V29.3793C11.779 29.3431 6.016 29.4735 6 29.2862ZM24 29.3793V31.4483C24 32.3018 24.675 33 25.5 33H28.5C29.325 33 30 32.3018 30 31.4483V29.2862C30.0015 29.4725 24.205 29.3442 24 29.3793ZM27.48 4.41211C27.1535 5.01004 26.07 7.03556 25.725 7.67073L24.79 9.41383C24.4887 9.97886 24.0463 10.4498 23.5088 10.7774C22.9714 11.1049 22.3588 11.2771 21.735 11.2759H14.265C13.6401 11.2766 13.0264 11.1037 12.4881 10.7752C11.9499 10.4468 11.5067 9.97481 11.205 9.40866C10.313 7.74144 9.41796 6.07592 8.52 4.41211C6.99 5.63797 6 7.56728 6 9.72418V27.8276C6 28.1121 6.225 28.3449 6.5 28.3449H29.5C29.775 28.3449 30 28.1121 30 27.8276V9.72418C30 7.56728 29.01 5.63797 27.48 4.41211ZM25.5 22.6552C25.5 24.0828 24.38 25.2414 23 25.2414H13C11.62 25.2414 10.5 24.0828 10.5 22.6552V16.9656C10.495 15.5623 11.61 14.3752 13 14.3794H23C23.905 14.3794 24.7 14.8759 25.135 15.6259C25.3745 16.0211 25.497 16.4721 25.5 16.9656V22.6552Z" fill="#43454C"/>
<path d="M9.84437 4.7431L11.1444 7.16897L12.0794 8.9069C12.2951 9.31102 12.6115 9.64795 12.9958 9.88265C13.3801 10.1173 13.8181 10.2412 14.2644 10.2414H21.7344C22.6444 10.2414 23.4794 9.72931 23.9144 8.91207L24.8544 7.16897L26.1544 4.7431H26.1594C26.2799 4.51914 26.5214 4.06397 26.6394 3.83793C25.6783 3.28766 24.5978 2.99931 23.4994 3H12.4994C11.3644 3 10.2894 3.30517 9.35938 3.83793C9.47788 4.06448 9.71838 4.51862 9.83938 4.7431H9.84437ZM13.4994 6.62069H22.4994C23.1544 6.6331 23.1579 7.64172 22.4994 7.65517H13.4994C12.8454 7.64328 12.8404 6.63414 13.4994 6.62069ZM19.5744 20.9638C18.6654 21.7241 17.3334 21.7241 16.4244 20.9638L11.5094 16.831C11.4994 16.8724 11.4994 16.919 11.4994 16.9655V22.6552C11.4994 23.5086 12.1744 24.2069 12.9994 24.2069H22.9994C23.8244 24.2069 24.4994 23.5086 24.4994 22.6552V16.9655C24.4994 16.919 24.4994 16.8724 24.4894 16.831L19.5744 20.9638Z" fill="#43454C"/>
<path d="M18.9453 20.1572L24.0553 15.8641C23.7741 15.5771 23.3953 15.4155 23.0003 15.4141H13.0003C12.5903 15.4141 12.2153 15.5899 11.9453 15.8641L17.0553 20.1572C17.6003 20.6175 18.3953 20.6175 18.9453 20.1572Z" fill="#43454C"/>
</svg>
