<svg width="40" height="40" viewBox="0 0 40 40" fill="none" xmlns="http://www.w3.org/2000/svg">
<path d="M39.3054 35.9536L31.6162 28.266C33.9465 25.216 35.2246 21.5165 35.2251 17.6128C35.2251 12.9084 33.3925 8.4852 30.0648 5.15871C26.7376 1.83223 22.3141 0 17.6081 0C12.9027 0 8.47859 1.83223 5.1514 5.15871C-1.71713 12.0264 -1.71713 23.2003 5.1514 30.0668C8.47859 33.3939 12.9027 35.2261 17.6081 35.2261C21.5127 35.2256 25.2129 33.9478 28.2635 31.618L35.9527 39.3055C36.4152 39.7685 37.0224 40 37.6291 40C38.2357 40 38.8429 39.7685 39.3054 39.3055C40.2315 38.3802 40.2315 36.879 39.3054 35.9536ZM8.50406 26.7149C3.48434 21.6962 3.48492 13.5299 8.50406 8.51066C10.9358 6.08004 14.1692 4.74088 17.6081 4.74088C21.0476 4.74088 24.2804 6.08004 26.7121 8.51066C29.1438 10.9419 30.4833 14.1746 30.4833 17.6128C30.4833 21.0515 29.1438 24.2837 26.7121 26.7149C24.2804 29.1461 21.0476 30.4853 17.6081 30.4853C14.1692 30.4853 10.9358 29.1461 8.50406 26.7149Z" fill="#CBCDD7"/>
</svg>
