<svg width="36" height="36" viewBox="0 0 36 36" fill="none" xmlns="http://www.w3.org/2000/svg">
<path d="M25.8623 12.7958H21.7459C21.3061 12.1907 20.734 11.6992 20.0756 11.3606C19.4171 11.022 18.6904 10.8457 17.9535 10.8457C17.2165 10.8457 16.4898 11.022 15.8314 11.3606C15.1729 11.6992 14.6009 12.1907 14.161 12.7958H10.7753V18.5655H14.161C14.6008 19.1709 15.1729 19.6627 15.8316 20.0015C16.4902 20.3404 17.2172 20.5168 17.9544 20.5168C18.6916 20.5168 19.4185 20.3404 20.0772 20.0015C20.7358 19.6627 21.3079 19.1709 21.7477 18.5655H25.8623V23.0917H31.5V18.5655C31.5 17.8078 31.3543 17.0575 31.0709 16.3575C30.7876 15.6574 30.3724 15.0213 29.8489 14.4856C29.3253 13.9498 28.7038 13.5248 28.0198 13.2349C27.3358 12.9449 26.6026 12.7957 25.8623 12.7958ZM10.0406 12.7958V11.2654H4.5V20.0955H10.0406V18.5655V12.7958Z" fill="#45B9D7"/>
<path d="M17.9505 10.0943C18.403 10.0948 18.8537 10.1525 19.2923 10.266V6.5003C18.9119 6.76916 18.4605 6.91316 17.9981 6.91316C17.5358 6.91316 17.0844 6.76916 16.7039 6.5003V10.2424C17.1126 10.1444 17.5308 10.0947 17.9505 10.0943ZM24.641 3.38706L19.289 3.71256C19.1484 3.49362 18.9568 3.31387 18.7315 3.1895C18.5062 3.06512 18.2542 3 17.9981 3C17.7421 3 17.4901 3.06512 17.2648 3.1895C17.0395 3.31387 16.8479 3.49362 16.7072 3.71256L11.3553 3.38706C11.1963 3.37745 11.037 3.40122 10.8872 3.45689C10.7374 3.51257 10.6004 3.59899 10.4844 3.71083C10.3685 3.82268 10.2761 3.9576 10.213 4.10731C10.1498 4.25702 10.1172 4.41836 10.1172 4.58143C10.1173 4.74445 10.1499 4.90573 10.2131 5.05538C10.2762 5.20503 10.3686 5.33988 10.4846 5.45166C10.6005 5.56344 10.7376 5.64978 10.8873 5.70539C11.037 5.76101 11.1963 5.78471 11.3553 5.77505L16.7072 5.44993C16.8479 5.66887 17.0395 5.84861 17.2648 5.97299C17.4901 6.09737 17.7421 6.16248 17.9981 6.16248C18.2542 6.16248 18.5062 6.09737 18.7315 5.97299C18.9568 5.84861 19.1484 5.66887 19.289 5.44993L24.641 5.77505C24.8 5.78471 24.9594 5.76099 25.1091 5.70533C25.2589 5.64967 25.396 5.56326 25.512 5.4514C25.6279 5.33954 25.7203 5.2046 25.7834 5.05486C25.8466 4.90513 25.8791 4.74376 25.8791 4.58068C25.879 4.41768 25.8463 4.25642 25.7831 4.1068C25.7199 3.95718 25.6275 3.82234 25.5116 3.71058C25.3956 3.59881 25.2586 3.51246 25.1089 3.45683C24.9592 3.4012 24.8 3.37745 24.641 3.38706ZM30.1189 32.5792C33.4797 30.6191 28.5635 25.2457 28.5635 25.2457C28.5635 25.2457 23.6469 30.6191 27.008 32.5792C27.4822 32.855 28.0181 33 28.5635 33C29.1088 33 29.6448 32.855 30.1189 32.5792Z" fill="#45B9D7"/>
</svg>
