<svg width="36" height="36" viewBox="0 0 36 36" fill="none" xmlns="http://www.w3.org/2000/svg">
<path d="M10.436 26.3859C10.7128 26.3859 10.9782 26.2671 11.1739 26.0557C11.3696 25.8442 11.4795 25.5574 11.4795 25.2584C11.4795 24.9593 11.3696 24.6726 11.1739 24.4611C10.9782 24.2497 10.7128 24.1309 10.436 24.1309C10.1593 24.1309 9.89389 24.2497 9.6982 24.4611C9.50251 24.6726 9.39258 24.9593 9.39258 25.2584C9.39258 25.5574 9.50251 25.8442 9.6982 26.0557C9.89389 26.2671 10.1593 26.3859 10.436 26.3859ZM26.8705 26.3859C27.1473 26.3859 27.4127 26.2671 27.6084 26.0557C27.8041 25.8442 27.914 25.5574 27.914 25.2584C27.914 24.9593 27.8041 24.6726 27.6084 24.4611C27.4127 24.2497 27.1473 24.1309 26.8705 24.1309C26.5938 24.1309 26.3284 24.2497 26.1327 24.4611C25.937 24.6726 25.8271 24.9593 25.8271 25.2584C25.8271 25.5574 25.937 25.8442 26.1327 26.0557C26.3284 26.2671 26.5938 26.3859 26.8705 26.3859Z" fill="#43454C"/>
<path fill-rule="evenodd" clip-rule="evenodd" d="M5.87003 11.3054C5.87003 11.1559 5.925 11.0125 6.02284 10.9067C6.12069 10.801 6.25339 10.7416 6.39176 10.7416H13.5755C13.8349 10.7416 14.0837 10.6302 14.2672 10.432C14.4506 10.2338 14.5537 9.96491 14.5537 9.68456C14.5537 9.40422 14.4506 9.13535 14.2672 8.93712C14.0837 8.73888 13.8349 8.62752 13.5755 8.62752H11.1943V8.62695C11.0618 8.62051 10.9366 8.55984 10.8441 8.45725C10.7516 8.35466 10.6987 8.21786 10.6961 8.07464C10.6936 7.93142 10.7415 7.79251 10.8303 7.68614C10.9191 7.57978 11.0421 7.51393 11.1742 7.50197V7.5H22.3045C22.4429 7.5 22.5756 7.5594 22.6735 7.66512C22.7713 7.77085 22.8263 7.91424 22.8263 8.06376V12.7148H27.1819C27.456 12.7148 27.7253 12.7925 27.9629 12.9403C28.2004 13.0881 28.3979 13.3006 28.5356 13.5567L30.4307 17.0839H31.4348C31.8499 17.0839 32.248 17.2621 32.5416 17.5793C32.8351 17.8964 33 18.3266 33 18.7752V23.9899C33 24.4385 32.8351 24.8687 32.5416 25.1858C32.248 25.503 31.8499 25.6812 31.4348 25.6812H29.9567C29.7084 27.2809 28.4208 28.5 26.8697 28.5C25.3186 28.5 24.0309 27.2809 23.7826 25.6812H13.5222C13.2739 27.2809 11.9863 28.5 10.4352 28.5C8.88407 28.5 7.59644 27.2809 7.34809 25.6812H3.91354C3.77517 25.6812 3.64247 25.6218 3.54462 25.5161C3.44678 25.4104 3.39181 25.267 3.39181 25.1174V21.3121C3.39181 21.013 3.50175 20.7263 3.69743 20.5148C3.89312 20.3034 4.15853 20.1846 4.43527 20.1846H5.87994C6.3482 20.1846 6.72775 19.7744 6.72775 19.2685C6.72775 18.7625 6.3482 18.3346 5.87994 18.3346H3.39181C3.2797 18.3034 3.18036 18.2329 3.10943 18.134C3.0385 18.0352 3 17.9137 3 17.7886C3 17.6635 3.0385 17.542 3.10943 17.4431C3.18036 17.3443 3.2797 17.2737 3.39181 17.2426L9.00041 17.2248V17.2231C9.23258 17.2079 9.45062 17.0975 9.61002 16.9145C9.76942 16.7315 9.85816 16.4896 9.85814 16.2383C9.85814 15.7007 9.47649 15.2517 9.00041 15.2517C8.86204 15.2517 8.72934 15.1923 8.63149 15.0866C8.53365 14.9808 8.47868 14.8374 8.47868 14.6879C8.47868 14.5384 8.53365 14.395 8.63149 14.2893C8.72934 14.1836 8.86204 14.1242 9.00041 14.1242H11.2929V14.1157C11.5489 14.0813 11.7839 13.9457 11.9528 13.735C12.1217 13.5243 12.2123 13.2535 12.2073 12.9749C12.2023 12.6962 12.1019 12.4294 11.9256 12.226C11.7493 12.0226 11.5095 11.897 11.2525 11.8734V11.8691H6.39176C6.25339 11.8691 6.12069 11.8097 6.02284 11.704C5.925 11.5983 5.87003 11.4549 5.87003 11.3054ZM27.7759 18.0321C27.7157 18.0575 27.6517 18.0705 27.5871 18.0705H24.3915L22.8263 18.0321V13.8423H27.1819C27.2733 13.8423 27.3631 13.8682 27.4423 13.9175C27.5215 13.9667 27.5873 14.0376 27.6332 14.123L29.3732 17.361L27.7759 18.0321ZM12.5221 25.1174C12.5221 25.7155 12.3022 26.2891 11.9108 26.712C11.5195 27.1349 10.9887 27.3725 10.4352 27.3725C9.88168 27.3725 9.35087 27.1349 8.95949 26.712C8.56812 26.2891 8.34825 25.7155 8.34825 25.1174C8.34825 24.5194 8.56812 23.9458 8.95949 23.5229C9.35087 23.1 9.88168 22.8624 10.4352 22.8624C10.9887 22.8624 11.5195 23.1 11.9108 23.5229C12.3022 23.9458 12.5221 24.5194 12.5221 25.1174ZM26.8697 27.3725C27.4232 27.3725 27.954 27.1349 28.3453 26.712C28.7367 26.2891 28.9566 25.7155 28.9566 25.1174C28.9566 24.5194 28.7367 23.9458 28.3453 23.5229C27.954 23.1 27.4232 22.8624 26.8697 22.8624C26.3162 22.8624 25.7854 23.1 25.394 23.5229C25.0026 23.9458 24.7828 24.5194 24.7828 25.1174C24.7828 25.7155 25.0026 26.2891 25.394 26.712C25.7854 27.1349 26.3162 27.3725 26.8697 27.3725ZM23.2176 19.6208C23.2176 19.4713 23.2725 19.3279 23.3704 19.2222C23.4682 19.1164 23.6009 19.057 23.7393 19.057H24.1306C24.269 19.057 24.4017 19.1164 24.4995 19.2222C24.5974 19.3279 24.6523 19.4713 24.6523 19.6208C24.6523 19.7703 24.5974 19.9137 24.4995 20.0194C24.4017 20.1252 24.269 20.1846 24.1306 20.1846H23.7393C23.6009 20.1846 23.4682 20.1252 23.3704 20.0194C23.2725 19.9137 23.2176 19.7703 23.2176 19.6208Z" fill="black"/>
<path d="M7.30574 15.2517H4.56665C4.42828 15.2517 4.29558 15.1923 4.19773 15.0866C4.09989 14.9808 4.04492 14.8374 4.04492 14.6879C4.04492 14.5384 4.09989 14.395 4.19773 14.2893C4.29558 14.1836 4.42828 14.1242 4.56665 14.1242H7.30574C7.44411 14.1242 7.57681 14.1836 7.67465 14.2893C7.7725 14.395 7.82747 14.5384 7.82747 14.6879C7.82747 14.8374 7.7725 14.9808 7.67465 15.0866C7.57681 15.1923 7.44411 15.2517 7.30574 15.2517ZM9.39266 8.62752C9.53103 8.62752 9.66373 8.56812 9.76158 8.4624C9.85942 8.35667 9.91439 8.21328 9.91439 8.06376C9.91439 7.91424 9.85942 7.77085 9.76158 7.66512C9.66373 7.5594 9.53103 7.5 9.39266 7.5H9.00136C8.86299 7.5 8.73028 7.5594 8.63244 7.66512C8.5346 7.77085 8.47963 7.91424 8.47963 8.06376C8.47963 8.21328 8.5346 8.35667 8.63244 8.4624C8.73028 8.56812 8.86299 8.62752 9.00136 8.62752H9.39266Z" fill="black"/>
</svg>
