<svg width="36" height="36" viewBox="0 0 36 36" fill="none" xmlns="http://www.w3.org/2000/svg">
<path d="M26.087 20.1308L16.7249 17.894C14.3123 17.3192 12.6209 15.0256 12.6856 12.4167C12.7503 9.80779 14.5531 7.61071 16.9909 7.16993C19.4286 6.72915 21.8218 8.16752 22.706 10.6049C23.5902 13.0422 22.7189 15.7992 20.6253 17.1887C20.5854 17.2202 20.566 17.273 20.5756 17.3247C20.5852 17.3763 20.622 17.4176 20.6702 17.4308L24.835 18.4255C24.9341 18.4498 25.0375 18.4107 25.0994 18.3255C27.1168 15.5136 27.5028 11.7579 26.1036 8.55501C24.7044 5.3521 21.7473 3.22256 18.4107 3.01502H18.0217C14.1333 2.95084 10.5383 5.19 8.71261 8.81326C6.88691 12.4365 7.13803 16.8335 9.36287 20.1992L17.6925 32.7519C17.7291 32.8048 17.7875 32.8361 17.8496 32.8361C17.9117 32.8361 17.9701 32.8048 18.0067 32.7519L26.2067 20.4624C26.2502 20.4055 26.2618 20.3286 26.2372 20.2603C26.2125 20.192 26.1553 20.1427 26.087 20.1308Z" fill="#FFC627"/>
</svg>
