<svg width="36" height="36" viewBox="0 0 36 36" fill="none" xmlns="http://www.w3.org/2000/svg">
<path fill-rule="evenodd" clip-rule="evenodd" d="M18 33C26.2841 33 33 26.2841 33 18C33 9.71591 26.2841 3 18 3C9.71591 3 3 9.71591 3 18C3 26.2841 9.71591 33 18 33ZM19.3636 9.81818C19.3636 9.45652 19.22 9.10968 18.9642 8.85395C18.7085 8.59821 18.3617 8.45455 18 8.45455C17.6383 8.45455 17.2915 8.59821 17.0358 8.85395C16.78 9.10968 16.6364 9.45652 16.6364 9.81818V10.6173C14.7123 11.0618 13.2273 12.7336 13.2273 14.8105C13.2273 16.8764 14.7205 18.6014 16.7236 19.0241L18.6232 19.4223C19.4905 19.605 20.0455 20.3209 20.0455 21.0764C20.0455 21.9614 19.2818 22.7727 18.2223 22.7727H18C17.01 22.7727 16.23 22.1264 16.0159 21.3286C15.9695 21.1556 15.8895 20.9935 15.7805 20.8514C15.6714 20.7094 15.5355 20.5902 15.3804 20.5006C15.2252 20.4111 15.054 20.353 14.8764 20.3297C14.6989 20.3063 14.5184 20.3182 14.3455 20.3645C14.1725 20.4109 14.0103 20.4909 13.8682 20.6C13.7262 20.709 13.607 20.845 13.5174 21.0001C13.4279 21.1552 13.3698 21.3264 13.3465 21.504C13.3231 21.6816 13.335 21.862 13.3814 22.035C13.8068 23.6236 15.06 24.8509 16.6364 25.3077V26.1818C16.6364 26.5435 16.78 26.8903 17.0358 27.1461C17.2915 27.4018 17.6383 27.5455 18 27.5455C18.3617 27.5455 18.7085 27.4018 18.9642 27.1461C19.22 26.8903 19.3636 26.5435 19.3636 26.1818V25.3582C21.2959 24.87 22.7727 23.1736 22.7727 21.0764C22.7727 18.9573 21.2414 17.1845 19.1836 16.7536L17.2841 16.3541C16.47 16.1836 15.9545 15.5127 15.9545 14.8105C15.9545 13.9882 16.665 13.2273 17.6591 13.2273H18C18.99 13.2273 19.77 13.8736 19.9841 14.6714C20.0305 14.8444 20.1105 15.0065 20.2195 15.1486C20.3286 15.2906 20.4645 15.4098 20.6196 15.4994C20.7748 15.5889 20.946 15.647 21.1236 15.6703C21.3011 15.6937 21.4816 15.6818 21.6545 15.6355C21.8275 15.5891 21.9897 15.5091 22.1318 15.4C22.2738 15.291 22.393 15.155 22.4826 14.9999C22.5721 14.8448 22.6302 14.6736 22.6535 14.496C22.6769 14.3184 22.665 14.138 22.6186 13.965C22.1932 12.3764 20.94 11.1491 19.3636 10.6923V9.81818Z" fill="#45B9D7"/>
</svg>
