<svg width="199" height="184" viewBox="0 0 199 184" fill="none" xmlns="http://www.w3.org/2000/svg">
<g clip-path="url(#clip0_1_12078)">
<path d="M166.276 86.7417C166.276 95.3665 168.016 103.187 170.834 108.962L170.781 113.033L176.405 116.473C178.369 118.081 180.525 118.969 182.788 118.969C187.421 118.969 191.605 115.241 194.594 109.242C193.612 107.623 192.961 105.76 192.747 103.638C191.883 94.9811 193.857 86.0248 191.146 77.6569C189.054 71.197 182.073 61.1251 174.676 57.9863L171.539 59.915L171.496 63.2469C168.283 69.1274 166.276 77.4738 166.276 86.7417Z" fill="#6D7E83"/>
<path d="M177.023 56.5393L174.675 57.9856C182.072 61.1244 189.053 71.1963 191.145 77.6562C193.856 86.0241 191.881 94.9804 192.746 103.638C192.96 105.759 193.611 107.623 194.592 109.241C197.506 103.444 199.289 95.5059 199.289 86.7418C199.289 68.9452 191.903 54.5137 182.787 54.5137C181.357 54.5137 179.969 54.8676 178.646 55.5315V55.5422C178.091 55.8216 177.546 56.1539 177.023 56.5393Z" fill="#8DA2A8"/>
<path d="M194.592 109.242C191.604 115.241 187.419 118.969 182.787 118.969C180.524 118.969 178.368 118.081 176.404 116.474L170.779 113.033L170.833 108.962C168.015 103.187 166.275 95.3666 166.275 86.7418C166.275 77.4739 168.281 69.1276 171.494 63.2454L171.537 59.9135L174.675 57.9848L177.023 56.5385C177.546 56.1531 178.091 55.8207 178.646 55.5422V55.5315C179.97 54.8668 181.358 54.5137 182.787 54.5137C191.902 54.5137 199.289 68.9452 199.289 86.7418C199.289 95.5059 197.506 103.445 194.592 109.242Z" stroke="#231F20" stroke-width="0.5" stroke-miterlimit="10"/>
<path d="M167.346 64.2754C163.877 69.4398 161.646 77.5822 161.646 86.7433C161.646 102.375 168.135 115.038 176.141 115.038C181.67 115.038 186.473 108.996 188.906 100.103C184.476 99.9639 178.979 97.1136 176.45 94.9818C171.892 91.1361 168.765 84.9638 167.933 79.0716C167.378 75.1505 167.409 71.2185 167.399 67.2111C167.399 66.4718 167.366 65.4432 167.346 64.2754Z" fill="#6D7E83"/>
<path d="M167.347 64.2746C167.368 65.4424 167.4 66.471 167.4 67.2103C167.411 71.2177 167.378 75.1496 167.933 79.0708C168.766 84.9638 171.893 91.1353 176.451 94.981C178.981 97.1136 184.477 99.964 188.907 100.102C190.007 96.1273 190.625 91.5737 190.625 86.7425C190.625 71.1207 184.136 58.457 176.141 58.457C172.832 58.457 169.78 60.6319 167.347 64.2746Z" fill="#8DA2A8"/>
<path d="M167.346 64.2746C163.877 69.439 161.646 77.5814 161.646 86.7425C161.646 102.374 168.136 115.037 176.141 115.037C181.67 115.037 186.473 108.995 188.907 100.102C190.007 96.1273 190.625 91.5737 190.625 86.7425C190.625 71.1207 184.136 58.457 176.141 58.457C172.831 58.457 169.78 60.6319 167.346 64.2746Z" stroke="#231F20" stroke-width="0.5" stroke-miterlimit="10"/>
<path d="M126.42 33.5352C121.286 32.9028 127.904 40.9814 128.448 41.9885C130.818 46.3381 129.815 51.8457 135.376 53.9667C139.976 55.7238 148.046 53.9236 149.669 48.6415C150.031 47.4413 150.074 46.3166 149.872 45.2988C145.506 48.9092 136.294 48.0629 133.189 43.1778C131.246 40.1244 131.267 35.2285 126.752 34.0823L126.838 33.6107C126.698 33.5783 126.559 33.5568 126.42 33.5352Z" fill="#6D7E83"/>
<path d="M126.837 33.6113L126.752 34.0829C131.267 35.2292 131.245 40.1259 133.188 43.1785C136.294 48.0644 145.505 48.9107 149.871 45.2995C149.124 41.6999 145.185 39.3966 141.439 39.1819C138.664 39.0319 135.878 38.668 133.305 37.5532C130.969 36.547 129.346 34.1468 126.837 33.6113Z" fill="#8DA2A8"/>
<path d="M149.872 45.3007C150.074 46.3185 150.032 47.4433 149.668 48.6434C148.046 53.9255 139.977 55.7249 135.376 53.9686C129.815 51.8477 130.818 46.3401 128.448 41.9904C127.904 40.9834 121.286 32.9048 126.42 33.5372C126.559 33.5587 126.698 33.5803 126.836 33.6126C129.345 34.148 130.967 36.5483 133.305 37.5553C135.877 38.6701 138.663 39.034 141.438 39.184C145.186 39.397 149.124 41.7003 149.872 45.3007Z" stroke="#231F20" stroke-width="0.5" stroke-miterlimit="10"/>
<path d="M96.1495 26.0509C96.1495 32.0409 100.05 35.4822 104.711 38.388C106.332 39.3984 107.918 40.4071 108.361 42.3681C108.814 44.3763 108.79 47.4181 108.149 49.375C108.106 49.4222 108.104 49.4197 108.143 49.3684C111.261 48.5934 114.794 50.4624 117.818 49.3725C117.934 47.0949 117.436 44.0348 118.46 41.9246C120.06 38.6251 124.905 37.8783 127.552 35.5841C130.338 33.1705 132.086 29.779 132.086 26.0501C132.086 17.6673 123.863 14.0859 113.941 14.0859C104.015 14.0868 96.1495 17.6681 96.1495 26.0509Z" fill="#8DA2A8" stroke="#231F20" stroke-width="0.5" stroke-miterlimit="10"/>
<path d="M97.4718 20.7539C96.618 22.2425 96.1481 24.0004 96.1481 26.0468C96.1481 32.0359 100.045 35.4855 104.708 38.3889C106.331 39.3959 107.922 40.4029 108.36 42.364C108.808 44.378 108.786 47.4206 108.146 49.3709C111.263 48.5992 114.796 50.4633 117.816 49.3709C117.934 47.0991 117.432 44.0349 118.457 41.9247C120.058 38.6243 124.904 37.875 127.551 35.5825C130.199 33.2891 131.917 30.1081 132.066 26.593C129.654 30.3327 123.528 31.9613 119.632 32.4537C113.985 33.1606 107.282 32.946 103.974 27.3961C102.757 25.339 102.896 22.8003 100.867 21.8471C99.7772 21.3432 98.6451 20.9793 97.4718 20.7539Z" fill="#6D7E83"/>
<path d="M97.4715 20.7545C98.6448 20.9791 99.7769 21.3438 100.865 21.8477C102.894 22.8008 102.755 25.3404 103.972 27.3967C107.28 32.9465 113.984 33.1612 119.63 32.4542C123.526 31.9611 129.653 30.3332 132.064 26.5936C132.075 26.5836 132.075 26.5836 132.075 26.572C132.086 26.4013 132.086 26.2189 132.086 26.0474C132.087 17.6687 123.857 14.0898 113.941 14.0898C106.437 14.0898 100.107 16.1371 97.4715 20.7545Z" fill="#8DA2A8"/>
<path d="M132.075 26.572C132.086 26.4013 132.086 26.2189 132.086 26.0474C132.086 17.6687 123.856 14.0898 113.94 14.0898C106.436 14.0898 100.106 16.1362 97.4707 20.7545C96.6169 22.243 96.147 24.001 96.147 26.0474C96.147 32.0365 100.044 35.4861 104.707 38.3894C106.33 39.3965 107.921 40.4035 108.359 42.3645C108.807 44.3786 108.785 47.4212 108.145 49.3714C108.135 49.3822 108.123 49.393 108.123 49.4029C108.113 49.4137 108.113 49.4137 108.113 49.4137" stroke="#231F20" stroke-width="0.5" stroke-miterlimit="10"/>
<path d="M108.142 49.3716C111.259 48.6 114.792 50.464 117.812 49.3716C117.93 47.0998 117.428 44.0356 118.453 41.9254C120.054 38.625 124.9 37.8758 127.547 35.5832C130.195 33.2899 131.913 30.1088 132.062 26.5938" stroke="#231F20" stroke-width="0.5" stroke-miterlimit="10"/>
<path d="M132.078 26.5723C132.078 26.583 132.078 26.583 132.067 26.5938" stroke="#231F20" stroke-width="0.5" stroke-miterlimit="10"/>
<path d="M133.349 13.6998C136.907 8.4765 142.183 3.70658 148.984 5.65682C153.408 6.9241 157.862 11.6509 159.211 15.9592C160.738 20.8426 159.088 26.3162 154.572 28.9511C150.414 31.377 145.789 30.4952 141.513 28.9676C138.341 27.8346 135.838 27.2395 132.657 28.6792C130.182 29.7998 127.486 31.9324 124.611 31.0447C122.159 30.288 120.244 27.3431 120.609 24.7762C121.033 21.7949 124.245 20.6827 126.597 19.5646C129.536 18.1663 131.518 16.3893 133.349 13.6998Z" fill="#8DA2A8" stroke="#231F20" stroke-width="0.5" stroke-miterlimit="10"/>
<path d="M140.387 65.9994L130.447 65.1191" stroke="#231F20" stroke-width="0.5" stroke-miterlimit="10"/>
<path d="M76.9375 68.7289C76.9375 68.7289 36.0211 65.5147 33.1748 82.3001C38.5115 83.0138 44.56 83.0138 44.56 83.0138C44.56 83.0138 43.8482 71.5859 76.9375 68.7289Z" fill="#E7F6FD"/>
<path d="M109.488 58.4463C108.615 61.6174 109.015 61.9108 105.782 62.5382C103.791 62.9245 100.739 63.1458 98.7878 62.8449C97.342 62.6228 104.462 51.9574 105.543 51.1377C109.06 48.4722 114.859 47.0507 118.914 49.2057C117.797 48.6123 113.412 50.6702 112.488 51.5115C110.742 53.1004 110.09 56.2632 109.488 58.4463Z" fill="#E7F6FD"/>
<path d="M52.2239 107.259C52.3519 105.588 52.1604 103.574 52.3742 102.342C52.8977 99.4385 53.8473 96.8235 55.5657 94.4349C58.6927 90.0412 63.5389 87.5034 68.7253 86.3239C83.0285 83.0782 101.196 84.7815 115.872 85.6169C127.603 86.2916 139.355 86.774 151.053 87.4603C155.109 87.7064 159.315 88.1026 163.382 88.1026C166.926 88.1026 170.244 87.481 173.009 85.2208C175.667 83.0351 176.542 80.5818 177.001 77.3883C177.172 76.2313 177.215 75.1919 177.172 74.2172C174.215 68.442 169.839 67.4349 169.839 67.4349L140.39 65.9994L129.46 51.2139C129.46 51.2139 125.361 44.304 115.679 44.0678C103.255 43.7677 100.086 49.6391 100.086 49.6391L91.9298 61.7028C91.9298 61.7028 72.9307 62.1851 47.2812 65.0454C21.6324 67.9057 24.4829 103.187 24.4829 103.187V117.49L59.151 120.351C59.151 120.351 58.2757 117.287 59.0445 107.805L52.2239 107.259Z" fill="#8DA2A8"/>
<path d="M52.2255 107.26L59.0468 107.806C59.0782 107.388 59.1104 106.972 59.1533 106.532C60.1145 96.0435 74.8339 97.4682 74.8339 97.4682L172.691 103.672C172.691 103.672 180.121 99.3745 179.811 86.2293C179.683 80.851 178.595 76.9829 177.174 74.2188C177.217 75.1935 177.174 76.2328 177.003 77.3899C176.544 80.5825 175.669 83.0358 173.011 85.2223C170.247 87.4825 166.927 88.1041 163.384 88.1041C159.317 88.1041 155.112 87.7079 151.055 87.4618C139.357 86.7755 127.605 86.2931 115.874 85.6185C101.198 84.7822 83.0308 83.0789 68.7276 86.3255C63.5404 87.5049 58.695 90.0428 55.568 94.4364C53.8489 96.8251 52.8993 99.44 52.3766 102.343C52.1619 103.575 52.3535 105.589 52.2255 107.26Z" fill="#6D7E83"/>
<path d="M172.692 103.672L74.8339 97.4687C74.8339 97.4687 60.1145 96.0439 59.1534 106.533C59.1104 106.972 59.0782 107.39 59.0468 107.807C58.2773 117.289 59.1534 120.353 59.1534 120.353L24.4853 117.492V103.189C24.4853 103.189 21.6357 67.9077 47.2836 65.0474C72.9331 62.1871 91.9322 61.7047 91.9322 61.7047L100.088 49.6411C100.088 49.6411 103.258 43.7697 115.682 44.0697C125.363 44.3059 129.462 51.2159 129.462 51.2159L140.392 66.0014L169.841 67.4369C169.841 67.4369 174.217 68.4439 177.174 74.2192C178.594 76.9833 179.682 80.8507 179.811 86.2298C180.12 99.375 172.692 103.672 172.692 103.672Z" stroke="#231F20" stroke-width="0.5" stroke-miterlimit="10"/>
<path d="M11.8292 116.58C11.6261 120.436 11.6583 123.308 11.7112 125.065C14.6037 123.898 18.1477 123.372 20.4639 122.719C29.3776 120.234 38.3218 119.623 47.3297 120.479C51.9736 120.929 60.2985 119.334 59.093 112.755C58.5695 109.916 55.7092 107.323 52.7415 105.234C49.4543 104.708 45.9103 104.398 40.7437 104.322C32.247 104.194 24.4876 106.229 24.4876 106.229C24.4876 106.229 12.1818 109.797 11.8292 116.58Z" fill="#8DA2A8"/>
<path d="M11.7102 125.065C11.7647 126.414 11.8283 127.122 11.8283 127.122C11.8283 131.751 25.1282 135.511 41.5338 135.511C57.95 135.511 71.25 131.751 71.25 127.122V116.944C71.25 116.944 70.5242 109.133 59.1564 106.531C56.8832 106.005 54.8659 105.577 52.7414 105.234C55.709 107.324 58.5693 109.916 59.0928 112.755C60.2992 119.334 51.9734 120.93 47.3295 120.48C38.3217 119.623 29.3766 120.234 20.4637 122.719C18.1467 123.372 14.6027 123.897 11.7102 125.065Z" fill="#6D7E83"/>
<path d="M11.8283 116.579C12.1809 109.797 24.4875 106.229 24.4875 106.229C24.4875 106.229 32.2468 104.193 40.7436 104.322C45.9093 104.398 49.4533 104.709 52.7414 105.234C54.8659 105.576 56.8824 106.005 59.1564 106.53C70.5242 109.134 71.25 116.944 71.25 116.944V127.122C71.25 131.751 57.95 135.511 41.5338 135.511C25.1282 135.511 11.8283 131.751 11.8283 127.122C11.8283 127.122 11.7647 126.415 11.7102 125.065C11.6574 123.307 11.6251 120.436 11.8283 116.579Z" stroke="#231F20" stroke-width="0.5" stroke-miterlimit="10"/>
<path d="M40.8388 132.292C30.7046 132.232 22.596 130.9 22.596 129.262C22.596 127.586 31.0745 126.227 41.5324 126.227C51.9902 126.227 60.4688 127.586 60.4688 129.262C60.4688 130.331 57.0073 131.27 51.7904 131.81C48.9251 136.735 52.0298 154.055 53.1636 156.81C55.6779 162.923 63.931 172.542 56.947 178.572C50.6269 184.03 40.1418 179.432 41.4853 170.808C42.752 162.684 48.6163 156.766 48.4685 148.093C48.3595 141.711 46.6056 134.983 40.8388 132.292Z" fill="#9DDBEF"/>
<path d="M40.8388 132.292C30.7046 132.232 22.596 130.9 22.596 129.262C22.596 127.586 31.0745 126.227 41.5324 126.227C51.9902 126.227 60.4688 127.586 60.4688 129.262C60.4688 130.331 57.0073 131.27 51.7904 131.81C48.9251 136.735 52.0298 154.055 53.1636 156.81C55.6779 162.923 63.931 172.542 56.947 178.572C50.6269 184.03 40.1418 179.432 41.4853 170.808C42.752 162.684 48.6163 156.766 48.4685 148.093C48.3595 141.711 46.6056 134.983 40.8388 132.292Z" fill="#9DDBEF" stroke="#231F20" stroke-width="0.5" stroke-miterlimit="10"/>
<path d="M25.1873 109.677C20.2131 111.36 17.2785 114.47 17.191 120.07C20.5756 116.112 26.7942 113.85 31.6635 112.753C33.9326 112.243 48.5776 113.808 45.5926 109.309C45.0377 108.474 40.763 107.736 39.7217 107.6C35.4494 107.041 30.1747 108.201 26.0873 109.393C25.7818 109.483 25.4812 109.578 25.1873 109.677Z" fill="#E7F6FD"/>
<path d="M45.4444 71.1624C36.2326 74.2879 32.3426 82.1295 32.369 91.5847C32.374 93.4455 32.3013 95.3385 32.4218 97.1826C34.5118 93.8996 34.3598 88.8397 36.9708 85.216C40.1333 80.8265 44.3296 78.2381 49.1866 75.7823C60.224 70.2026 73.06 72.2896 85.2023 71.4947C86.0164 71.4417 86.8339 71.3257 87.6406 71.2212C74.7841 67.8603 58.1639 66.8458 45.4444 71.1624Z" fill="#E7F6FD"/>
<path d="M51.2678 172.359C50.8698 171.989 50.5907 171.49 50.5181 170.867C50.419 170.011 52.1423 163.58 52.9919 164.203C54.6161 165.395 57.0124 169.958 55.6921 171.952C54.7317 173.402 52.4635 173.467 51.2678 172.359Z" fill="#F0F9FE"/>
<path d="M121.28 60.1541C118.835 56.2345 116.619 52.2081 113.986 48.4129C117.054 44.7942 125.041 51.0676 127.026 53.7306C128.577 55.8118 132.561 60.7467 132.515 63.3823C132.458 66.6388 128.008 66.0752 125.392 64.6521C123.576 63.6641 122.347 61.8664 121.28 60.1541Z" fill="#E7F6FD"/>
<path d="M179.619 72.0447C178.027 71.4653 173.258 66.8744 173.2 65.0999C173.107 62.2993 176.67 61.9603 178.492 62.5828C180.82 63.3784 182.374 65.3469 183.342 67.5383C184.163 69.3957 184.241 69.7173 183.127 70.9597C182.11 72.0936 180.664 72.4235 179.619 72.0447Z" fill="#E7F6FD"/>
<path d="M186.623 62.3296C188.211 63.6582 190.058 67.344 192.167 66.0933C193.62 65.2314 189.113 58.711 188.31 58.091C184.163 54.8959 183.314 59.5597 186.623 62.3296Z" fill="#E7F6FD"/>
<path d="M120.614 24.7738C120.24 27.3448 122.162 30.2913 124.617 31.0521C127.488 31.9307 130.178 29.7989 132.654 28.6842C135.835 27.2379 138.343 27.8379 141.513 28.9734C145.793 30.4943 150.416 31.3837 154.578 28.9519C159.093 26.3162 160.736 20.8418 159.21 15.9666C159.167 15.8166 159.115 15.6774 159.061 15.5273C158.378 18.3561 154.813 20.5525 152.539 21.5488C149.497 22.8774 146.636 23.199 143.466 22.1704C140.531 21.2164 138.076 20.274 134.927 21.0134C132.066 21.688 130.124 23.6706 127.466 24.6237C125.78 25.2238 122.877 24.86 120.934 23.649C120.785 23.9913 120.668 24.366 120.614 24.7738Z" fill="#6D7E83"/>
<path d="M126.603 19.5655C124.564 20.5303 121.897 21.4834 120.935 23.6475C122.878 24.8584 125.781 25.2231 127.468 24.6222C130.126 23.669 132.069 21.6865 134.929 21.0118C138.077 20.2725 140.532 21.2157 143.468 22.1689C146.638 23.1974 149.498 22.8758 152.541 21.5472C154.814 20.551 158.379 18.3546 159.062 15.5258C157.568 11.3369 153.267 6.87945 148.986 5.65859C142.187 3.70918 136.914 8.4766 133.349 13.7049C131.525 16.3936 129.539 18.1731 126.603 19.5655Z" fill="#8DA2A8"/>
<path d="M120.934 23.6478C121.894 21.4837 124.563 20.5305 126.602 19.5658C129.537 18.1733 131.522 16.3947 133.348 13.7051C136.912 8.47688 142.186 3.70863 148.985 5.65886C153.264 6.88056 157.566 11.338 159.061 15.5261C159.115 15.6761 159.167 15.8153 159.21 15.9653C160.736 20.8405 159.093 26.3149 154.578 28.9506C150.415 31.3824 145.793 30.4931 141.513 28.9722C138.343 27.8367 135.835 27.2366 132.654 28.6829C130.178 29.7977 127.488 31.9294 124.617 31.0509C122.162 30.29 120.24 27.3435 120.614 24.7725C120.667 24.3655 120.784 23.9909 120.934 23.6478Z" stroke="#231F20" stroke-width="0.5" stroke-miterlimit="10"/>
<path d="M65.6959 11.4767C64.2129 13.9839 63.4119 17.2403 63.4871 20.4446C65.0031 22.1802 66.7528 23.8088 68.2581 24.9766C71.7807 27.7192 75.4205 27.8054 79.6573 27.0868C81.5251 26.7661 83.2442 25.8121 85.1228 25.4689C86.6809 25.1905 87.8873 25.6297 89.3926 26.0151C92.5849 26.8191 97.4302 29.3048 100.419 28.9078L100.471 29.0039C101.133 28.6823 101.678 28.1684 102.04 27.3869C103.45 24.3649 101.87 20.9154 98.6894 20.1122C95.4014 19.2768 91.5064 18.5582 88.9649 16.1372C85.3366 12.6867 82.4218 8.35861 77.3312 7.08387C72.8269 5.94837 68.15 7.35241 65.6959 11.4767Z" fill="#8DA2A8"/>
<path d="M68.2555 24.9773C66.7502 23.8095 65.0005 22.1809 63.4845 20.4453C63.5704 24.0772 64.7866 27.6346 67.4125 29.9271C70.1555 32.3382 74.0728 33.7091 77.7134 33.3121C80.5737 32.9905 82.8899 31.3088 85.3547 29.9909C85.803 29.7555 86.2308 29.5624 86.6577 29.3917C88.7707 28.5886 90.8094 28.577 93.2106 28.9201C95.2708 29.2201 98.4086 30.034 100.469 29.0055L100.416 28.9093C97.4276 29.3055 92.5814 26.8198 89.39 26.0167C87.8847 25.6313 86.6791 25.192 85.1202 25.4705C83.2416 25.8136 81.5233 26.7668 79.6547 27.0884C75.417 27.8061 71.7772 27.7199 68.2555 24.9773Z" fill="#6D7E83"/>
<path d="M86.6563 29.3902C88.7694 28.5871 90.8081 28.5755 93.2093 28.9186C95.2695 29.2187 98.4073 30.0326 100.467 29.004C101.129 28.6824 101.674 28.1685 102.036 27.387C103.446 24.365 101.866 20.9155 98.6855 20.1123C95.3975 19.2769 91.5025 18.5583 88.9609 16.1373C85.3327 12.6868 82.4179 8.3587 77.3273 7.08396C72.823 5.94847 68.1469 7.35167 65.6928 11.4768C64.2098 13.984 63.4089 17.2404 63.484 20.4447C63.5699 24.0766 64.7862 27.6339 67.412 29.9265C70.155 32.3375 74.0723 33.7084 77.7129 33.3114C80.5732 32.9898 82.8894 31.3081 85.3542 29.9903C85.8017 29.7541 86.2294 29.5618 86.6563 29.3902Z" stroke="#231F20" stroke-width="0.5" stroke-miterlimit="10"/>
<path d="M79.4707 41.5716C79.0223 45.2251 81.7868 48.2578 84.4977 50.1541C89.6964 53.8076 95.2998 52.072 98.9933 47.2822C100.574 45.2466 102.067 43.3826 104.106 41.7755C105.792 40.4577 108.461 38.2182 107.105 36.4727C104.395 40.0623 99.1428 43.5757 94.9481 44.2719C89.3769 45.1936 83.9866 43.608 79.578 40.9831C79.5243 41.1754 79.493 41.3685 79.4707 41.5716Z" fill="#6D7E83"/>
<path d="M87.4012 36.2794C84.1148 35.9901 80.3462 37.5442 79.5782 40.983C83.9868 43.6079 89.3763 45.1934 94.9483 44.2718C99.143 43.5756 104.395 40.0613 107.105 36.4725C106.828 36.1186 106.39 35.7763 105.74 35.4762C102.111 33.7945 99.0365 37.2872 95.504 37.4373C92.7502 37.5657 90.1244 36.5156 87.4012 36.2794Z" fill="#8DA2A8"/>
<path d="M95.5069 37.4365C92.7531 37.5649 90.1273 36.5156 87.4048 36.2794C84.1184 35.9901 80.3498 37.5442 79.5819 40.983C79.5274 41.1761 79.496 41.3684 79.4746 41.5723C79.0262 45.2258 81.7907 48.2585 84.5016 50.1548C89.7004 53.8083 95.3037 52.0727 98.9972 47.2829C100.578 45.2473 102.071 43.3833 104.11 41.7762C105.796 40.4584 108.465 38.2189 107.109 36.4734C106.832 36.1194 106.394 35.7771 105.743 35.4771C102.114 33.7938 99.0393 37.2856 95.5069 37.4365Z" stroke="#231F20" stroke-width="0.5" stroke-miterlimit="10"/>
<path d="M74.6534 18.6486C71.9995 18.0543 68.8807 15.0167 70.8443 12.2161C72.8459 9.36159 79.322 9.23312 81.0866 12.6015C83.302 16.8293 78.0785 19.4153 74.6534 18.6486Z" fill="#E7F6FD"/>
<path d="M145.803 16.881C140.861 12.9424 143.919 10.107 149.187 11.0311C158.063 12.5868 150.834 20.8909 145.803 16.881Z" fill="#E7F6FD"/>
</g>
<defs>
<clipPath id="clip0_1_12078">
<rect width="199" height="184" fill="white" transform="matrix(-1 0 0 1 199 0)"/>
</clipPath>
</defs>
</svg>
