<svg width="111" height="29" viewBox="0 0 111 29" fill="none" xmlns="http://www.w3.org/2000/svg">
<path d="M43.0604 16.9242C42.889 17.1068 42.6404 17.2528 42.3147 17.3624C41.9889 17.472 41.5174 17.5907 40.9002 17.7186C39.94 17.9194 39.2799 18.1751 38.9199 18.4855C38.5598 18.796 38.3798 19.2435 38.3798 19.8278C38.3798 20.8323 38.9199 21.3345 40 21.3345C40.4287 21.3345 40.823 21.2615 41.183 21.1153C41.5602 20.951 41.8774 20.7409 42.1346 20.4853C42.409 20.2114 42.6232 19.9009 42.7775 19.5539C42.949 19.1887 43.0347 18.8052 43.0347 18.4034L43.0604 16.9242ZM43.2919 23.8821C43.189 23.5351 43.1205 22.7772 43.0862 22.3207C42.6918 22.7955 42.1689 23.179 41.5174 23.4712C40.8659 23.7452 40.1115 23.8821 39.2542 23.8821C37.7969 23.8821 36.7253 23.5443 36.0395 22.8686C35.3708 22.1746 35.0365 21.2798 35.0365 20.184C35.0365 19.216 35.1822 18.4491 35.4737 17.8829C35.7651 17.2985 36.1681 16.8419 36.6825 16.5132C37.1968 16.1845 37.8055 15.9471 38.5084 15.801C39.2285 15.6367 40.0086 15.4905 40.8487 15.3627C41.6888 15.2348 42.2547 15.0705 42.5461 14.8696C42.8375 14.6505 42.9833 14.3034 42.9833 13.8286C42.9833 13.3903 42.7861 13.0525 42.3918 12.8151C42.0146 12.5594 41.5002 12.4316 40.8487 12.4316C40.0772 12.4316 39.52 12.6142 39.1771 12.9794C38.8513 13.3447 38.6455 13.8286 38.5598 14.4313H35.448C35.4652 13.7373 35.5679 13.0981 35.7566 12.5137C35.9623 11.9293 36.2795 11.4271 36.7082 11.0071C37.1539 10.5871 37.7283 10.2674 38.4312 10.0483C39.1342 9.81085 39.9914 9.69214 41.0031 9.69214C41.9975 9.69214 42.8375 9.81085 43.5234 10.0483C44.2263 10.2857 44.7836 10.6327 45.1951 11.0893C45.6236 11.5275 45.9323 12.0845 46.1209 12.7602C46.3095 13.4177 46.4038 14.1665 46.4038 15.0066V23.8821H43.2919Z" fill="#1D1D1B"/>
<path d="M47.8769 23.8821V5.11743H51.2202V23.8821H47.8769Z" fill="#1D1D1B"/>
<path d="M52.701 23.8821V10.0483H56.0444V23.8821H52.701ZM52.701 8.43207V5.11743H56.0444V8.43207H52.701Z" fill="#1D1D1B"/>
<path d="M68.9645 18.6499C68.8789 19.4352 68.6646 20.1474 68.3216 20.7867C67.9959 21.4258 67.5758 21.9737 67.0615 22.4303C66.5471 22.8868 65.9556 23.243 65.2869 23.4987C64.6355 23.7542 63.9239 23.8821 63.1524 23.8821C62.2951 23.8821 61.5064 23.7361 60.7863 23.4438C60.0834 23.1333 59.4747 22.6768 58.9604 22.0742C58.446 21.4532 58.043 20.6953 57.7516 19.8005C57.4773 18.8874 57.3401 17.8281 57.3401 16.6228C57.3401 15.4174 57.4773 14.3765 57.7516 13.4999C58.043 12.6233 58.446 11.911 58.9604 11.3632C59.4747 10.797 60.0919 10.377 60.812 10.1031C61.5493 9.82912 62.3637 9.69214 63.2553 9.69214C64.0782 9.69214 64.824 9.81085 65.4927 10.0483C66.1784 10.2857 66.77 10.6327 67.2672 11.0893C67.7815 11.5458 68.1845 12.0937 68.476 12.7329C68.7674 13.372 68.9388 14.0843 68.9903 14.8696H65.6213C65.5355 14.1756 65.2698 13.6369 64.824 13.2533C64.3954 12.8516 63.8639 12.6507 63.2295 12.6507C62.8695 12.6507 62.5351 12.7146 62.2265 12.8424C61.9179 12.9703 61.6436 13.1894 61.4035 13.4999C61.1806 13.7921 61.0006 14.1939 60.8634 14.7052C60.7263 15.1983 60.6577 15.8101 60.6577 16.5406C60.6577 18.0199 60.9063 19.1156 61.4035 19.8278C61.9008 20.5401 62.4751 20.8962 63.1267 20.8962C63.7781 20.8962 64.3354 20.7044 64.7983 20.3209C65.2612 19.9375 65.527 19.3805 65.5956 18.6499H68.9645Z" fill="#1D1D1B"/>
<path d="M76.1777 20.8962C78.218 20.8962 79.2381 19.5265 79.2381 16.7872C79.2381 14.066 78.218 12.7054 76.1777 12.7054C74.1375 12.7054 73.1173 14.066 73.1173 16.7872C73.1173 19.5265 74.1375 20.8962 76.1777 20.8962ZM76.1777 23.8821C75.149 23.8821 74.2318 23.7086 73.4259 23.3617C72.6201 23.0146 71.9343 22.5307 71.3685 21.9097C70.8198 21.2889 70.3997 20.5401 70.1083 19.6635C69.8169 18.7869 69.6711 17.8281 69.6711 16.7872C69.6711 15.7279 69.8169 14.76 70.1083 13.8834C70.4169 13.0068 70.8541 12.2581 71.42 11.6372C71.9857 11.0162 72.663 10.5414 73.4516 10.2127C74.2575 9.86566 75.1662 9.69214 76.1777 9.69214C77.1721 9.69214 78.0637 9.86566 78.8524 10.2127C79.6411 10.5414 80.3097 11.0162 80.8584 11.6372C81.4241 12.2398 81.8528 12.9794 82.1443 13.8561C82.4529 14.7326 82.6072 15.7096 82.6072 16.7872C82.6072 17.8646 82.4529 18.8416 82.1443 19.7183C81.8528 20.5766 81.4241 21.3162 80.8584 21.9372C80.3097 22.5581 79.6325 23.042 78.8266 23.389C78.038 23.7178 77.1549 23.8821 76.1777 23.8821Z" fill="#1D1D1B"/>
<path d="M98.6569 23.8821V15.3627C98.6569 14.5408 98.4764 13.8743 98.1163 13.363C97.7563 12.8516 97.2762 12.5959 96.6769 12.5959C96.0597 12.5959 95.5453 12.8699 95.1338 13.4177C94.7394 13.9656 94.5418 14.6505 94.5418 15.4722V23.8821H91.1982V15.4174C91.1982 14.8696 91.1639 14.4221 91.0954 14.0752C91.0268 13.7282 90.9067 13.4542 90.7353 13.2533C90.581 13.0525 90.3752 12.9155 90.1185 12.8424C89.8613 12.7512 89.5526 12.7054 89.1927 12.7054C87.8382 12.7054 87.1609 13.5821 87.1609 15.3352V23.8821H83.8176V10.0483H86.9551V12.0206C87.3838 11.1258 87.8981 10.514 88.4982 10.1852C89.0984 9.85657 89.8184 9.69214 90.6586 9.69214C91.0872 9.69214 91.4645 9.72868 91.7902 9.80176C92.1332 9.87484 92.4328 10.0026 92.69 10.1852C92.9643 10.3497 93.2215 10.5688 93.4616 10.8427C93.7016 11.1166 93.9416 11.4454 94.1817 11.8289C94.5246 11.0801 94.9795 10.5414 95.5453 10.2127C96.1111 9.86566 96.797 9.69214 97.6019 9.69214C98.2364 9.69214 98.8193 9.81085 99.3509 10.0483C99.8824 10.2674 100.337 10.5871 100.714 11.0071C101.092 11.4088 101.383 11.8837 101.589 12.4316C101.812 12.9794 101.923 13.5638 101.923 14.1847V23.8821H98.6569Z" fill="#1D1D1B"/>
<path d="M25.1849 23.6162L14.9286 17.0792C14.5671 16.8488 14.3426 16.4405 14.3333 15.9966L14.0694 3.4024C14.0412 2.05754 15.7389 1.55886 16.3795 2.72384L19.9731 9.25872C20.0788 9.45115 20.1359 9.66888 20.1388 9.89102L20.1719 12.4463C20.1777 12.8981 20.4066 13.3143 20.7763 13.5455L22.8675 14.8532C23.0493 14.9669 23.2004 15.1276 23.3061 15.3201L26.8997 21.855C27.5403 23.02 26.2801 24.3143 25.1849 23.6162Z" fill="#ED233A"/>
<path d="M12.7399 15.9966L13.0038 3.4024C13.0319 2.05754 11.3343 1.55886 10.6936 2.72384L7.10015 9.25873C6.99434 9.45115 6.93727 9.66888 6.93439 9.89102L6.90128 12.4463C6.89543 12.8981 6.66657 13.3143 6.29685 13.5455L4.20568 14.8532C4.02386 14.9669 3.87283 15.1276 3.76702 15.3201L0.173491 21.855C-0.467125 23.02 0.793036 24.3143 1.88825 23.6162L12.1446 17.0792C12.5061 16.8488 12.7306 16.4405 12.7399 15.9966Z" fill="#ED233A"/>
<path d="M13.0104 18.4314L2.49022 24.4886C1.36682 25.1355 1.80433 26.9283 3.08556 26.9283H10.2726C10.4842 26.9283 10.6923 26.8714 10.8771 26.7629L13.0013 25.5155C13.3769 25.2949 13.8346 25.2949 14.2101 25.5155L16.3345 26.7629C16.5191 26.8714 16.7272 26.9283 16.9388 26.9283H24.126C25.4071 26.9283 25.8447 25.1355 24.7213 24.4886L14.2011 18.4314C13.8302 18.218 13.3812 18.218 13.0104 18.4314Z" fill="#ED233A"/>
<path d="M107.496 20.4706H104.311V23.8823H107.496V20.4706Z" fill="#ED233A"/>
</svg>
