<svg width="80" height="80" viewBox="0 0 80 80" fill="none" xmlns="http://www.w3.org/2000/svg">
<path d="M63.2596 27.0059C64.8835 26.1404 65.4983 24.1224 64.6328 22.4985C63.7673 20.8746 61.7493 20.2598 60.1254 21.1253C58.5015 21.9908 57.8867 24.0089 58.7522 25.6327C59.6177 27.2566 61.6358 27.8714 63.2596 27.0059Z" fill="#45B9D7"/>
<path d="M51.4985 33.2744C53.1224 32.4089 53.7372 30.3908 52.8717 28.767C52.0062 27.1431 49.9881 26.5283 48.3643 27.3938C46.7404 28.2593 46.1256 30.2773 46.9911 31.9012C47.8566 33.5251 49.8746 34.1399 51.4985 33.2744Z" fill="#45B9D7"/>
<path d="M40.7226 20.1401C41.5882 21.764 43.6061 22.3788 45.23 21.5132L56.9912 15.2448C58.6151 14.3792 59.2298 12.3613 58.3643 10.7374C57.4988 9.11345 55.4808 8.49868 53.8569 9.3642L50.9166 10.9313C47.4602 4.44623 39.3721 1.98223 32.887 5.43866C26.402 8.8951 23.938 16.9832 27.3944 23.4683L35.23 38.1697C36.0955 39.7936 38.1135 40.4084 39.7374 39.5428C41.3613 38.6773 41.9761 36.6594 41.1105 35.0354L33.275 20.334C31.5467 17.0915 32.7787 13.0474 36.0213 11.3192C39.2638 9.59101 43.3079 10.823 45.0361 14.0656L42.0958 15.6327C40.4719 16.4982 39.8571 18.5162 40.7226 20.1401Z" fill="#45B9D7"/>
<path d="M94.5818 16.3526L36.9523 47.0681C32.0884 49.6604 30.2404 55.7265 32.8328 60.5903C33.5053 61.8521 34.4172 62.9326 35.5435 63.8015L49.4982 74.5688C53.7786 77.8715 59.3543 78.8475 64.4184 77.3496L66.1456 80.5904C67.0111 82.2143 69.0291 82.8291 70.653 81.9636C72.2769 81.0981 72.8917 79.0801 72.0262 77.4562L70.4591 74.5159L98.6858 59.4716L100.253 62.4118C101.118 64.0358 103.136 64.6505 104.76 63.785C106.384 62.9195 106.999 60.9015 106.133 59.2776L104.406 56.037C108.473 52.6681 110.772 47.4953 110.416 42.1006L109.258 24.5128C109.165 23.0933 108.777 21.7339 108.104 20.4721C105.512 15.6083 99.4456 13.7603 94.5818 16.3526ZM102.609 24.9506L103.767 42.5384C104.025 46.4552 101.954 50.1784 98.4918 52.0239L64.3846 70.2024C60.9219 72.048 56.6767 71.6909 53.5689 69.293L39.6142 58.5258C39.2415 58.2381 38.9384 57.8783 38.7133 57.4561C37.8492 55.8348 38.4652 53.8128 40.0865 52.9487L97.716 22.2332C99.3373 21.3691 101.359 21.9851 102.223 23.6063C102.448 24.0285 102.578 24.4808 102.609 24.9506Z" fill="#45B9D7"/>
</svg>
