<svg width="607" height="148" viewBox="0 0 607 148" fill="none" xmlns="http://www.w3.org/2000/svg">
<path d="M427.082 150.506V44.9744H448.78V88.5164H492.827V44.9744H514.475V150.506H492.827V106.912H448.78V150.506H427.082Z" fill="#F3F4F6"/>
<path d="M349.146 150.506V44.9744H418.298V63.3702H370.844V88.5164H414.74V106.912H370.844V132.11H418.499V150.506H349.146Z" fill="#F3F4F6"/>
<path d="M259.448 63.3702V44.9744H343.733V63.3702H312.314V150.506H290.867V63.3702H259.448Z" fill="#F3F4F6"/>
<path d="M253.895 44.9744V150.506H235.154L190.506 84.0849H189.754V150.506H168.056V44.9744H187.098L231.396 111.344H232.298V44.9744H253.895Z" fill="#F3F4F6"/>
<path d="M88.6538 150.506H65.4026L100.831 44.9744H128.792L164.17 150.506H140.919L115.212 69.09H114.411L88.6538 150.506ZM87.2006 109.025H142.122V126.442H87.2006V109.025Z" fill="#F3F4F6"/>
<path d="M44.98 75.325C44.5792 71.1683 42.8587 67.9392 39.8187 65.6375C36.7786 63.3359 32.6529 62.1851 27.4414 62.1851C23.9002 62.1851 20.9103 62.7004 18.4716 63.731C16.0329 64.7272 14.1621 66.1185 12.8592 67.9048C11.5898 69.6912 10.955 71.718 10.955 73.9852C10.8882 75.8746 11.2724 77.5236 12.1076 78.932C12.9761 80.3405 14.1621 81.56 15.6654 82.5906C17.1687 83.5868 18.9059 84.4628 20.8769 85.2185C22.8479 85.9399 24.9525 86.5583 27.1908 87.0736L36.4111 89.3409C40.8877 90.3714 44.9967 91.7455 48.7383 93.4632C52.4799 95.1808 55.7204 97.2935 58.4597 99.8012C61.1991 102.309 63.3205 105.263 64.8238 108.664C66.3605 112.065 67.1456 115.964 67.179 120.361C67.1456 126.82 65.542 132.419 62.3684 137.16C59.2281 141.866 54.6848 145.525 48.7383 148.135C42.8253 150.712 35.6929 152 27.3412 152C19.0562 152 11.8403 150.695 5.69342 148.084C-0.42006 145.473 -5.19726 141.608 -8.63818 136.49C-12.0457 131.337 -13.833 124.965 -14 117.373H6.99629C7.23014 120.911 8.21565 123.865 9.95281 126.236C11.7234 128.572 14.0786 130.341 17.0184 131.543C19.9916 132.711 23.349 133.295 27.0906 133.295C30.7654 133.295 33.9557 132.745 36.6617 131.646C39.4011 130.547 41.5224 129.018 43.0257 127.06C44.529 125.102 45.2807 122.852 45.2807 120.31C45.2807 117.939 44.5959 115.947 43.2262 114.332C41.8899 112.718 39.9189 111.344 37.3131 110.21C34.7408 109.076 31.5838 108.046 27.8423 107.118L16.6676 104.233C8.0152 102.068 1.18348 98.6848 -3.82757 94.0815C-8.83862 89.4783 -11.3274 83.2776 -11.294 75.4796C-11.3274 69.09 -9.6738 63.5077 -6.3331 58.7327C-2.95899 53.9577 1.66788 50.2304 7.54751 47.5509C13.4271 44.8714 20.1085 43.5316 27.5917 43.5316C35.2085 43.5316 41.8565 44.8714 47.5357 47.5509C53.2483 50.2304 57.6914 53.9577 60.8651 58.7327C64.0387 63.5077 65.6757 69.0385 65.7759 75.325H44.98Z" fill="#F3F4F6"/>
<path d="M621 43.5316C621 67.5735 602.047 87.0633 578.667 87.0633C555.287 87.0633 536.333 67.5735 536.333 43.5316C536.333 19.4898 555.287 0 578.667 0C602.047 0 621 19.4898 621 43.5316Z" fill="#F3F4F6"/>
<path d="M586.659 34.5254C586.484 32.8573 585.737 31.5613 584.416 30.6376C583.094 29.7139 581.302 29.252 579.037 29.252C577.498 29.252 576.199 29.4588 575.139 29.8724C574.079 30.2722 573.266 30.8306 572.7 31.5475C572.148 32.2644 571.872 33.0778 571.872 33.9878C571.843 34.746 572.01 35.4078 572.373 35.9731C572.751 36.5383 573.266 37.0277 573.919 37.4413C574.573 37.8412 575.328 38.1927 576.184 38.496C577.041 38.7855 577.955 39.0337 578.928 39.2405L582.935 40.1504C584.88 40.564 586.666 41.1155 588.292 41.8048C589.918 42.4942 591.326 43.3421 592.516 44.3485C593.707 45.3549 594.629 46.5406 595.282 47.9055C595.95 49.2704 596.291 50.8352 596.306 52.5999C596.291 55.1918 595.594 57.439 594.215 59.3416C592.85 61.2304 590.876 62.6987 588.292 63.7464C585.722 64.7804 582.623 65.2974 578.993 65.2974C575.393 65.2974 572.257 64.7736 569.586 63.7258C566.929 62.678 564.853 61.127 563.358 59.0727C561.877 57.0047 561.1 54.4473 561.028 51.4004H570.152C570.254 52.8204 570.682 54.0061 571.437 54.9574C572.206 55.8949 573.23 56.6049 574.507 57.0874C575.799 57.5562 577.258 57.7906 578.884 57.7906C580.481 57.7906 581.868 57.57 583.044 57.1288C584.234 56.6876 585.156 56.0741 585.809 55.2883C586.463 54.5024 586.789 53.5994 586.789 52.5792C586.789 51.6279 586.492 50.8283 585.896 50.1803C585.316 49.5323 584.459 48.9808 583.327 48.5259C582.209 48.0709 580.837 47.6573 579.211 47.2851L574.355 46.127C570.595 45.2584 567.626 43.9004 565.448 42.053C563.271 40.2056 562.189 37.7171 562.204 34.5875C562.189 32.0231 562.908 29.7828 564.36 27.8665C565.826 25.9501 567.837 24.4542 570.392 23.3789C572.947 22.3035 575.85 21.7658 579.102 21.7658C582.412 21.7658 585.301 22.3035 587.769 23.3789C590.252 24.4542 592.183 25.9501 593.562 27.8665C594.941 29.7828 595.652 32.0025 595.696 34.5254H586.659Z" fill="white"/>
</svg>
