<svg width="169" height="40" viewBox="0 0 169 40" fill="none" xmlns="http://www.w3.org/2000/svg">
<path d="M117.39 39.6068V11.8354H123.165V23.2938H134.888V11.8354H140.649V39.6068H134.888V28.1348H123.165V39.6068H117.39Z" fill="#1B2D58"/>
<path d="M96.6482 39.6068V11.8354H115.053V16.6764H102.423V23.2938H114.106V28.1348H102.423V34.7657H115.106V39.6068H96.6482Z" fill="#1B2D58"/>
<path d="M72.7758 16.6764V11.8354H95.2078V16.6764H86.8458V39.6068H81.1378V16.6764H72.7758Z" fill="#1B2D58"/>
<path d="M71.2981 11.8354V39.6068H66.3103L54.4275 22.1276H54.2274V39.6068H48.4527V11.8354H53.5206L65.31 29.301H65.5501V11.8354H71.2981Z" fill="#1B2D58"/>
<path d="M27.3205 39.6068H21.1323L30.5612 11.8354H38.003L47.4186 39.6068H41.2304L34.3888 18.1816H34.1754L27.3205 39.6068ZM26.9337 28.6908H41.5505V33.2741H26.9337V28.6908Z" fill="#1B2D58"/>
<path d="M15.697 19.8224C15.5904 18.7285 15.1325 17.8787 14.3234 17.273C13.5143 16.6673 12.4163 16.3645 11.0293 16.3645C10.0868 16.3645 9.29109 16.5001 8.64205 16.7713C7.993 17.0335 7.49511 17.3996 7.14836 17.8697C6.8105 18.3398 6.64157 18.8731 6.64157 19.4698C6.62379 19.967 6.72604 20.4009 6.94831 20.7716C7.17948 21.1422 7.49511 21.4632 7.8952 21.7344C8.2953 21.9965 8.75763 22.227 9.2822 22.4259C9.80676 22.6158 10.3669 22.7785 10.9626 22.9141L13.4165 23.5107C14.6079 23.782 15.7015 24.1436 16.6973 24.5956C17.6931 25.0476 18.5555 25.6035 19.2846 26.2635C20.0136 26.9234 20.5782 27.7009 20.9783 28.5958C21.3873 29.4908 21.5962 30.5169 21.6051 31.674C21.5962 33.3736 21.1695 34.8471 20.3248 36.0947C19.4891 37.3332 18.2799 38.2959 16.6973 38.983C15.1236 39.661 13.2254 40 11.0026 40C8.79764 40 6.87718 39.6565 5.24124 38.9694C3.61419 38.2824 2.34278 37.2654 1.427 35.9184C0.520123 34.5623 0.044455 32.8854 0 30.8875H5.58799C5.65023 31.8187 5.91251 32.5961 6.37484 33.2199C6.84607 33.8346 7.47288 34.3002 8.25529 34.6166C9.04659 34.924 9.94013 35.0776 10.9359 35.0776C11.9139 35.0776 12.763 34.933 13.4832 34.6437C14.2123 34.3544 14.7768 33.9521 15.1769 33.4368C15.577 32.9216 15.7771 32.3294 15.7771 31.6605C15.7771 31.0367 15.5948 30.5124 15.2303 30.0875C14.8746 29.6626 14.3501 29.301 13.6566 29.0026C12.972 28.7043 12.1318 28.4331 11.136 28.189L8.16193 27.4297C5.85916 26.8601 4.04096 25.9697 2.70731 24.7583C1.37366 23.5469 0.71128 21.9152 0.720171 19.863C0.71128 18.1816 1.15138 16.7125 2.04048 15.456C2.93847 14.1994 4.16988 13.2185 5.73469 12.5134C7.29951 11.8083 9.0777 11.4557 11.0693 11.4557C13.0964 11.4557 14.8657 11.8083 16.3772 12.5134C17.8976 13.2185 19.0801 14.1994 19.9247 15.456C20.7694 16.7125 21.205 18.168 21.2317 19.8224H15.697Z" fill="#1B2D58"/>
<path d="M169 11.4557C169 17.7825 163.956 22.9114 157.733 22.9114C151.511 22.9114 146.467 17.7825 146.467 11.4557C146.467 5.12889 151.511 0 157.733 0C163.956 0 169 5.12889 169 11.4557Z" fill="#45B9D7"/>
<path d="M159.86 9.08564C159.814 8.64664 159.615 8.3056 159.263 8.06252C158.912 7.81944 158.435 7.6979 157.832 7.6979C157.422 7.6979 157.076 7.75232 156.794 7.86116C156.512 7.96638 156.296 8.11332 156.145 8.30198C155.999 8.49064 155.925 8.70469 155.925 8.94415C155.917 9.14369 155.962 9.31784 156.058 9.46659C156.159 9.61534 156.296 9.74414 156.47 9.85298C156.644 9.9582 156.845 10.0507 157.073 10.1305C157.301 10.2067 157.544 10.272 157.803 10.3265L158.869 10.5659C159.387 10.6747 159.862 10.8199 160.295 11.0013C160.728 11.1827 161.103 11.4058 161.419 11.6707C161.736 11.9355 161.982 12.2475 162.155 12.6067C162.333 12.9659 162.424 13.3777 162.428 13.8421C162.424 14.5241 162.238 15.1155 161.871 15.6162C161.508 16.1133 160.983 16.4996 160.295 16.7754C159.611 17.0475 158.786 17.1835 157.82 17.1835C156.862 17.1835 156.027 17.0457 155.317 16.7699C154.609 16.4942 154.057 16.086 153.659 15.5455C153.265 15.0012 153.058 14.3282 153.039 13.5264H155.467C155.494 13.9001 155.608 14.2121 155.809 14.4625C156.014 14.7092 156.286 14.896 156.626 15.023C156.97 15.1464 157.359 15.208 157.791 15.208C158.216 15.208 158.585 15.15 158.898 15.0339C159.215 14.9178 159.46 14.7563 159.634 14.5495C159.808 14.3427 159.895 14.1051 159.895 13.8366C159.895 13.5863 159.816 13.3759 159.657 13.2053C159.503 13.0348 159.275 12.8897 158.974 12.77C158.676 12.6502 158.311 12.5414 157.878 12.4434L156.586 12.1387C155.585 11.9101 154.795 11.5527 154.215 11.0666C153.636 10.5804 153.348 9.92554 153.352 9.10197C153.348 8.42714 153.539 7.83758 153.926 7.33328C154.316 6.82897 154.851 6.43532 155.531 6.15233C156.211 5.86934 156.984 5.72785 157.849 5.72785C158.73 5.72785 159.499 5.86934 160.156 6.15233C160.817 6.43532 161.33 6.82897 161.698 7.33328C162.065 7.83758 162.254 8.4217 162.266 9.08564H159.86Z" fill="white"/>
</svg>
