<svg width="903" height="423" viewBox="0 0 903 423" fill="none" xmlns="http://www.w3.org/2000/svg">
<path d="M16.1669 282.398V249.713L112.448 97.5909H139.704V144.125H123.085L58.2692 246.832V248.605H192.664V282.398H16.1669ZM124.414 324.5V272.426L124.857 257.801V97.5909H163.636V324.5H124.414Z" fill="#6495B4"/>
<path d="M454.895 204.188C454.471 201.776 454.069 199.357 453.694 196.923C452.872 191.601 452.645 184.408 449.547 179.818C444.589 172.472 435.338 176.534 427.473 176.236C420.425 175.968 416.19 174.168 414.898 182.429C414.123 187.386 413.026 192.268 412.275 197.183C410.36 209.704 408.194 222.186 406.155 234.648C402.758 255.408 400.045 276.275 396.505 297.012C397.085 293.619 427.465 295.502 430.971 295.403C442.301 295.083 455.962 302.801 466.437 295.907C473.807 291.056 468.225 279.912 467.152 272.73C465.175 259.5 463.336 245.285 460.548 232.299C458.522 222.859 456.546 213.589 454.895 204.188Z" fill="#4A9AD4"/>
<path d="M449.796 193.172C455.789 185.481 447.874 163.958 447.46 155.973C446.996 147.009 448.517 137.829 444.142 129.505C441.488 124.456 432.69 120.62 428.623 127.011C426.056 131.045 425.015 140.166 423.386 145.083C420.059 155.127 416.122 169.052 415.957 179.677C415.781 191.001 437.365 197.917 446.012 195.628C447.647 195.195 448.883 194.343 449.796 193.172Z" fill="#4A9AD4"/>
<path d="M436.093 136.399C436.125 142.648 437.227 148.83 437.261 155.079C437.275 157.714 441.362 157.715 441.347 155.079C441.314 148.83 440.214 142.648 440.18 136.399C440.167 133.763 436.08 133.762 436.093 136.399Z" fill="#E5E9EC"/>
<path d="M427.629 137.273C426.485 137.273 425.625 138.203 425.586 139.317C425.558 140.08 425.09 141.003 424.696 141.788C424.2 142.785 424.423 143.994 425.43 144.584C426.344 145.119 427.728 144.847 428.226 143.851C428.95 142.401 429.616 140.963 429.672 139.317C429.711 138.203 428.714 137.273 427.629 137.273Z" fill="#E5E9EC"/>
<path d="M450.407 134.201C449.967 133.178 448.487 132.956 447.613 133.468C446.568 134.08 446.439 135.241 446.881 136.264C449.112 141.423 449.553 147.218 450.105 152.746C450.364 155.342 454.453 155.367 454.191 152.746C453.56 146.434 452.952 140.08 450.407 134.201Z" fill="#4A9AD4"/>
<path d="M462.674 202.153C462.656 199.517 458.568 199.516 458.587 202.153C458.648 211.748 462.034 220.747 463.257 230.173C463.4 231.277 464.078 232.217 465.3 232.217C466.304 232.217 467.486 231.279 467.343 230.173C466.122 220.768 462.734 211.704 462.674 202.153Z" fill="#4A9AD4"/>
<path d="M398.24 199.001C399.701 198.688 401.183 198.297 402.677 197.842C402.675 197.812 402.673 197.783 402.671 197.754L398.24 199.001Z" fill="#2F2F2F"/>
<path d="M512.787 132.616C512.583 120.302 511.463 105.174 506.359 93.8825C495.101 68.969 467.415 60.6663 445.974 75.4888C438.57 80.6079 432.9 89.1046 429.004 97.4797C427.831 100.003 421.091 128.429 424.215 128.599C428.374 128.825 432.991 129.555 437.518 129.937C440.937 130.226 444.308 130.315 447.391 129.836C448.874 114.008 452.446 87.2868 474.008 100.219C488.687 109.023 486.441 133.764 487.763 149.027C489.99 174.674 489.305 200.488 490.471 226.192C490.992 237.689 489.441 249.192 488.754 260.656C488.373 266.988 485.536 277.985 492.621 281.821C497.6 284.517 509.17 283.382 514.879 283.057C512.899 274.159 514.599 263.846 514.408 254.646C514.178 243.545 514.329 232.357 513.841 221.27C512.536 191.709 513.28 162.197 512.787 132.616Z" fill="#8CBFE0"/>
<path d="M522.602 235.691L521.033 232.555C511.76 238.639 478.725 260.148 491.769 273.003C502.412 283.489 530.55 271.307 537.204 260.128C543.826 249.005 530.841 240.774 522.602 235.691Z" fill="#6EA2D7"/>
<path d="M542.201 239.961C536.285 227.57 523.13 227.211 513.807 235.989C496.256 252.514 524.721 278.415 539.475 259.829C543.835 254.337 545.214 246.771 542.397 240.389C542.335 240.245 542.269 240.103 542.201 239.961Z" fill="#5F718B"/>
<path d="M503.111 287.025C501.183 287.089 499.262 287.138 497.34 287.176C475.031 287.618 453.055 286.488 430.728 286.321C411.54 286.18 390.495 284.256 371.515 285.955C349.574 287.916 350.928 297.85 350.577 310.789C350.221 323.781 349.131 342.419 373.431 343.909C397.534 345.386 424.174 343.377 448.504 343.115C470.276 342.884 492.521 343.813 514.23 342.589C537.28 341.286 545.514 322.019 543.702 308.712C541.139 289.901 528.554 286.194 503.111 287.025Z" fill="#C0CCDB"/>
<path d="M524.148 241.844C518.033 246.535 528.634 256.592 531.666 247.914C533.159 243.647 528.04 238.859 524.148 241.844Z" fill="#96CFDF"/>
<path d="M446.62 113.089C440.268 111.858 433.671 111.858 427.319 113.089C425.842 113.375 426.468 115.626 427.94 115.34C433.855 114.195 440.084 114.195 446.001 115.34C447.472 115.626 448.098 113.375 446.62 113.089Z" fill="#E5E9EC"/>
<path d="M445.826 82.2062C441.097 86.9367 436.05 92.0897 435.217 99.0365C435.066 100.302 436.394 101.372 437.554 101.372C438.942 101.372 439.738 100.3 439.888 99.0365C440.54 93.5832 445.475 89.1628 449.128 85.5092C451.26 83.3773 447.956 80.0751 445.826 82.2062Z" fill="#E5E9EC"/>
<path d="M484.74 78.7041C480.898 75.5724 476.44 73.4324 471.411 73.35C468.399 73.3001 468.402 77.9703 471.411 78.0199C475.134 78.0811 478.58 79.6778 481.437 82.0066C483.749 83.8914 487.074 80.6081 484.74 78.7041Z" fill="#E5E9EC"/>
<path d="M494.774 90.0153C492.132 88.569 489.776 92.6016 492.418 94.0482C501.659 99.1053 502.783 111.949 503.005 121.422C503.284 133.328 501.561 145.162 501.693 157.072C501.693 157.135 501.694 157.197 501.696 157.26C503.23 157.283 504.766 157.307 506.302 157.333C506.274 154.009 506.315 150.686 506.47 147.362C506.979 136.464 508.351 125.62 507.286 114.702C506.375 105.401 503.595 94.8429 494.774 90.0153Z" fill="#E5E9EC"/>
<path d="M499.533 260.796C497.588 262.743 495.64 264.689 493.697 266.633C491.564 268.766 494.866 272.068 496.998 269.937C498.944 267.99 500.891 266.044 502.836 264.099C504.967 261.968 501.665 258.665 499.533 260.796Z" fill="#E5E9EC"/>
<path d="M508.763 264.518C507.119 265.723 505.579 266.504 503.521 266.534C500.51 266.577 500.507 271.248 503.521 271.205C506.375 271.163 508.829 270.228 511.121 268.552C512.145 267.8 512.652 266.54 511.959 265.356C511.365 264.342 509.792 263.764 508.763 264.518Z" fill="#E5E9EC"/>
<path d="M498.95 250.29C496.371 252.902 494.074 255.803 492.164 258.934C490.59 261.513 494.631 263.857 496.196 261.293C497.909 258.484 499.942 255.931 502.251 253.591C504.371 251.447 501.07 248.145 498.95 250.29Z" fill="#E5E9EC"/>
<path d="M375.441 291.189C370.947 292.673 366.153 293.688 362.145 296.328C360.034 297.72 358.433 299.53 357.508 301.889C356.518 304.417 357.058 307.392 358.048 309.823C358.525 311 359.582 311.822 360.921 311.454C362.039 311.146 363.031 309.762 362.55 308.581C362.153 307.601 361.78 306.572 361.687 305.512C361.617 304.676 361.738 303.754 361.975 303.208C362.66 301.642 363.95 300.65 365.475 299.757C368.915 297.744 372.931 296.931 376.682 295.69C379.528 294.751 378.309 290.241 375.441 291.189Z" fill="#E5E9EC"/>
<path d="M508.754 294.487C472.643 299.153 436.298 290.479 400.172 295.072C398.908 295.232 397.836 296.012 397.836 297.407C397.836 298.558 398.906 299.903 400.172 299.742C436.298 295.15 472.643 303.823 508.754 299.158C510.017 298.994 511.091 298.218 511.091 296.823C511.091 295.675 510.019 294.324 508.754 294.487Z" fill="#E5E9EC"/>
<path d="M477.803 331.765C477.817 331.826 477.825 331.884 477.84 331.941C477.878 331.97 477.923 331.996 477.964 332.027C478.145 332.155 478.324 332.132 478.439 331.968C478.534 331.835 478.489 331.628 478.352 331.535C478.183 331.422 478.006 331.465 477.89 331.644C477.864 331.686 477.833 331.726 477.803 331.765Z" fill="#E5E9EC"/>
<path d="M497.062 326.577C497.157 327.014 497.769 327.38 498.246 327.319C498.618 327.273 498.956 326.793 498.869 326.188C498.808 325.746 498.36 325.489 497.871 325.578C497.345 325.67 496.966 326.139 497.062 326.577Z" fill="#E5E9EC"/>
<path d="M496.613 332.612C496.707 333.097 497.286 333.477 497.782 333.387C498.22 333.303 498.504 332.799 498.403 332.283C498.308 331.788 497.955 331.552 497.444 331.645C496.871 331.744 496.525 332.148 496.613 332.612Z" fill="#E5E9EC"/>
<path d="M502.254 329.979C502.356 330.472 502.917 330.864 503.4 330.774C503.863 330.687 504.16 330.194 504.056 329.685C503.958 329.218 503.553 328.942 503.086 329.021C502.68 329.089 502.109 329.565 502.254 329.979Z" fill="#E5E9EC"/>
<path d="M496.469 322.199C496.478 322.248 496.498 322.299 496.517 322.343C496.399 322.51 496.365 322.724 496.456 322.914C496.587 323.204 496.946 323.325 497.264 323.186C497.466 323.103 497.599 322.925 497.632 322.734C497.915 322.573 498.09 322.233 498.035 321.903C497.964 321.526 497.529 321.265 497.102 321.344C496.684 321.422 496.392 321.812 496.469 322.199Z" fill="#E5E9EC"/>
<path d="M504.245 335.581C504.299 335.974 504.682 336.256 505.08 336.2C505.555 336.131 505.876 335.734 505.805 335.302C505.745 334.933 505.312 334.644 504.902 334.695C504.487 334.748 504.184 335.158 504.245 335.581Z" fill="#E5E9EC"/>
<path d="M497.525 337.483C497.603 337.896 498.031 338.16 498.494 338.081C498.886 338.013 499.156 337.634 499.085 337.244C499.011 336.838 498.584 336.537 498.183 336.603C497.74 336.68 497.445 337.073 497.525 337.483Z" fill="#E5E9EC"/>
<path d="M503.411 323.33C503.486 323.74 503.901 324.017 504.32 323.94C504.767 323.86 505.028 323.511 504.947 323.104C504.855 322.657 504.444 322.385 503.986 322.468C503.585 322.537 503.333 322.915 503.411 323.33Z" fill="#E5E9EC"/>
<path d="M491.312 326.827C491.397 327.202 491.78 327.431 492.204 327.353C492.67 327.27 492.912 326.934 492.828 326.497C492.745 326.079 492.353 325.792 491.957 325.862C491.519 325.935 491.216 326.391 491.312 326.827Z" fill="#E5E9EC"/>
<path d="M495.984 317.813C496.045 318.135 496.389 318.383 496.7 318.338C497.011 318.294 497.243 317.949 497.193 317.623C497.142 317.323 496.796 317.084 496.481 317.131C496.179 317.177 495.926 317.522 495.984 317.813Z" fill="#E5E9EC"/>
<path d="M509.285 336.726C509.358 337.055 509.716 337.302 510.033 337.239C510.345 337.173 510.559 336.866 510.503 336.56C510.438 336.218 510.118 336.015 509.755 336.081C509.426 336.138 509.219 336.426 509.285 336.726Z" fill="#E5E9EC"/>
<path d="M488.597 336.548C488.65 336.855 488.985 337.068 489.315 337.01C489.652 336.946 489.895 336.608 489.824 336.288C489.761 335.993 489.436 335.808 489.098 335.872C488.764 335.932 488.536 336.237 488.597 336.548Z" fill="#E5E9EC"/>
<path d="M502.016 317.889C502.084 318.23 502.355 318.432 502.676 318.379C503.044 318.324 503.257 318.029 503.195 317.682C503.129 317.345 502.839 317.14 502.495 317.194C502.184 317.241 501.961 317.571 502.016 317.889Z" fill="#E5E9EC"/>
<path d="M511.422 331.312C511.478 331.553 511.723 331.745 511.982 331.784C511.988 331.819 511.999 331.858 512.019 331.892C512.099 332.038 512.299 332.091 512.447 332.015C512.608 331.932 512.664 331.764 512.58 331.604C512.571 331.588 512.56 331.572 512.547 331.557C512.65 331.424 512.699 331.258 512.664 331.095C512.59 330.78 512.28 330.589 511.931 330.647C511.583 330.716 511.355 331.01 511.422 331.312Z" fill="#E5E9EC"/>
<path d="M507.336 320.692C507.399 321.011 507.677 321.204 508.005 321.155C508.338 321.103 508.603 320.759 508.539 320.45C508.482 320.153 508.151 319.931 507.84 319.982C507.491 320.038 507.27 320.344 507.336 320.692Z" fill="#E5E9EC"/>
<path d="M486.488 331.06C486.552 331.39 486.854 331.583 487.201 331.523C487.535 331.461 487.762 331.163 487.705 330.853C487.641 330.529 487.323 330.325 486.971 330.388C486.622 330.45 486.423 330.722 486.488 331.06Z" fill="#E5E9EC"/>
<path d="M510.724 325.526C510.784 325.836 511.104 326.03 511.451 325.967C511.787 325.909 512.016 325.598 511.949 325.294C511.877 324.972 511.564 324.773 511.233 324.833C510.892 324.895 510.659 325.207 510.724 325.526Z" fill="#E5E9EC"/>
<path d="M490.663 320.476C490.731 320.82 491.046 321.025 491.404 320.962C491.735 320.904 491.906 320.644 491.845 320.313C491.78 319.973 491.465 319.737 491.146 319.791C490.825 319.84 490.602 320.161 490.663 320.476Z" fill="#E5E9EC"/>
<path d="M510.394 317.371C510.442 317.63 510.699 317.802 510.966 317.753C511.196 317.713 511.381 317.456 511.339 317.229C511.292 316.975 511.006 316.788 510.743 316.838C510.492 316.887 510.342 317.117 510.394 317.371Z" fill="#E5E9EC"/>
<path d="M482.131 327.972C482.171 328.235 482.404 328.404 482.665 328.36C482.938 328.317 483.12 328.068 483.07 327.816C483.022 327.57 482.77 327.4 482.513 327.442C482.251 327.481 482.091 327.71 482.131 327.972Z" fill="#E5E9EC"/>
<path d="M486.324 318.648C486.369 318.891 486.63 319.059 486.885 319.007C487.138 318.962 487.316 318.696 487.257 318.445C487.201 318.203 486.958 318.047 486.711 318.094C486.447 318.145 486.274 318.387 486.324 318.648Z" fill="#E5E9EC"/>
<path d="M495.376 313.496C495.411 313.722 495.714 313.927 495.958 313.885C496.181 313.85 496.387 313.567 496.353 313.338C496.315 313.105 496.048 312.934 495.787 312.975C495.52 313.015 495.337 313.249 495.376 313.496Z" fill="#E5E9EC"/>
<path d="M515.744 326.219C515.793 326.475 516.037 326.641 516.297 326.598C516.557 326.554 516.734 326.31 516.686 326.065C516.633 325.812 516.381 325.638 516.127 325.677C515.88 325.721 515.7 325.974 515.744 326.219Z" fill="#E5E9EC"/>
<path d="M513.783 321.39C513.829 321.637 514.081 321.805 514.334 321.766C514.618 321.722 514.774 321.513 514.723 321.246C514.674 320.981 514.421 320.805 514.162 320.848C513.915 320.889 513.735 321.15 513.783 321.39Z" fill="#E5E9EC"/>
<path d="M516.077 331.41C516.126 331.643 516.406 331.831 516.646 331.785C516.906 331.738 517.062 331.493 517.005 331.218C516.954 330.974 516.71 330.805 516.469 330.846C516.23 330.884 516.029 331.176 516.077 331.41Z" fill="#E5E9EC"/>
<path d="M484.42 337.98C484.469 338.233 484.707 338.402 484.963 338.362C485.225 338.32 485.405 338.086 485.364 337.842C485.322 337.598 485.045 337.4 484.799 337.444C484.54 337.488 484.371 337.722 484.42 337.98Z" fill="#E5E9EC"/>
<path d="M482.459 333.149C482.504 333.403 482.756 333.575 483.012 333.528C483.276 333.484 483.44 333.249 483.396 332.993C483.35 332.744 483.096 332.569 482.84 332.609C482.591 332.648 482.412 332.899 482.459 333.149Z" fill="#E5E9EC"/>
<path d="M483.469 323.001C483.527 323.261 483.742 323.4 484.014 323.348C484.264 323.301 484.447 323.053 484.406 322.811C484.361 322.569 484.091 322.385 483.846 322.434C483.58 322.481 483.416 322.736 483.469 323.001Z" fill="#E5E9EC"/>
<path d="M490.413 315.36C490.452 315.6 490.712 315.767 490.976 315.724C491.253 315.677 491.434 315.433 491.38 315.181C491.323 314.945 491.085 314.795 490.825 314.84C490.555 314.886 490.377 315.111 490.413 315.36Z" fill="#E5E9EC"/>
<path d="M514.745 336.425C514.802 336.667 515.046 336.822 515.296 336.776C515.574 336.725 515.73 336.494 515.673 336.221C515.621 335.975 515.376 335.811 515.132 335.857C514.884 335.903 514.688 336.196 514.745 336.425Z" fill="#E5E9EC"/>
<path d="M500.724 313.204C500.778 313.49 500.992 313.635 501.285 313.579C501.545 313.533 501.722 313.294 501.669 313.054C501.618 312.81 501.367 312.66 501.098 312.705C500.814 312.756 500.675 312.938 500.724 313.204Z" fill="#E5E9EC"/>
<path d="M505.399 314.343C505.487 314.498 505.669 314.553 505.824 314.47C505.852 314.459 505.873 314.44 505.89 314.422C505.886 314.467 505.888 314.511 505.897 314.558C505.949 314.825 506.171 314.966 506.454 314.916C506.706 314.875 506.88 314.647 506.839 314.407C506.798 314.175 506.502 313.971 506.258 314.012C506.146 314.03 506.051 314.093 505.984 314.175C505.98 314.127 505.968 314.073 505.942 314.027C505.857 313.89 505.654 313.847 505.504 313.933C505.337 314.029 505.299 314.178 505.399 314.343Z" fill="#E5E9EC"/>
<path d="M516.175 316.86C516.211 317.035 516.392 317.158 516.563 317.122C516.726 317.086 516.837 316.92 516.805 316.753C516.772 316.581 516.587 316.455 516.42 316.49C516.257 316.526 516.146 316.697 516.175 316.86Z" fill="#E5E9EC"/>
<path d="M478.425 324.191C478.459 324.359 478.632 324.478 478.797 324.45C478.969 324.416 479.087 324.241 479.048 324.068C479.011 323.906 478.837 323.795 478.669 323.828C478.485 323.865 478.385 324.016 478.425 324.191Z" fill="#E5E9EC"/>
<path d="M520.091 335.144C520.121 335.304 520.296 335.429 520.458 335.405C520.627 335.38 520.745 335.218 520.721 335.048C520.695 334.862 520.562 334.764 520.37 334.789C520.181 334.813 520.062 334.968 520.091 335.144Z" fill="#E5E9EC"/>
<path d="M481.798 317.281C481.834 317.43 482.027 317.553 482.186 317.522C482.363 317.487 482.46 317.34 482.425 317.159C482.386 316.987 482.225 316.868 482.063 316.897C481.906 316.925 481.768 317.13 481.798 317.281Z" fill="#E5E9EC"/>
<path d="M478.366 321.679C478.634 322.115 479.298 322.296 479.716 322.051C480.122 321.816 480.225 321.248 479.948 320.804C479.943 320.795 479.935 320.788 479.929 320.777C479.994 320.82 480.076 320.842 480.162 320.829C480.329 320.804 480.46 320.615 480.419 320.45C480.385 320.29 480.208 320.185 480.038 320.219C479.847 320.256 479.761 320.387 479.798 320.575C479.802 320.599 479.809 320.619 479.82 320.643C479.55 320.371 479.156 320.309 478.809 320.503C478.455 320.703 478.082 321.338 478.366 321.679Z" fill="#E5E9EC"/>
<path d="M480.171 339.209C480.199 339.371 480.365 339.488 480.536 339.461C480.719 339.432 480.826 339.294 480.802 339.117C480.772 338.938 480.603 338.817 480.427 338.849C480.261 338.879 480.143 339.046 480.171 339.209Z" fill="#E5E9EC"/>
<path d="M513.437 314.017C513.466 314.215 513.61 314.321 513.806 314.29C513.98 314.261 514.1 314.109 514.073 313.944C514.049 313.783 513.879 313.658 513.712 313.678C513.544 313.697 513.419 313.852 513.437 314.017Z" fill="#E5E9EC"/>
<path d="M518.725 338.768C518.759 338.913 518.959 339.046 519.111 339.019C519.27 338.991 519.378 338.825 519.35 338.651C519.315 338.476 519.161 338.36 518.991 338.389C518.825 338.412 518.691 338.609 518.725 338.768Z" fill="#E5E9EC"/>
<path d="M487.534 312.024C487.564 312.182 487.733 312.284 487.912 312.259C488.099 312.226 488.211 312.084 488.177 311.914C488.154 311.76 487.969 311.63 487.809 311.65C487.649 311.669 487.502 311.87 487.534 312.024Z" fill="#E5E9EC"/>
<path d="M510.22 311.754C510.251 311.922 510.413 312.039 510.581 312.016C510.756 311.99 510.884 311.815 510.849 311.643C510.811 311.473 510.656 311.377 510.472 311.408C510.281 311.44 510.185 311.573 510.22 311.754Z" fill="#E5E9EC"/>
<path d="M478.674 335.614C478.706 335.795 478.88 335.923 479.045 335.889C479.209 335.859 479.335 335.682 479.308 335.53C479.273 335.368 479.105 335.253 478.936 335.279C478.74 335.309 478.645 335.433 478.674 335.614Z" fill="#E5E9EC"/>
<path d="M506.613 310.065C506.637 310.232 506.804 310.344 506.983 310.318C507.17 310.292 507.3 310.123 507.263 309.955C507.23 309.804 507.042 309.679 506.881 309.71C506.728 309.731 506.591 309.911 506.613 310.065Z" fill="#E5E9EC"/>
<path d="M502.785 309.052C502.813 309.227 502.993 309.354 503.163 309.316C503.329 309.285 503.446 309.11 503.412 308.951C503.377 308.79 503.203 308.671 503.039 308.697C502.863 308.727 502.753 308.878 502.785 309.052Z" fill="#E5E9EC"/>
<path d="M494.855 309.148C494.877 309.307 495.076 309.447 495.238 309.419C495.39 309.393 495.53 309.207 495.507 309.055C495.49 308.899 495.31 308.781 495.137 308.806C494.955 308.836 494.834 308.983 494.855 309.148Z" fill="#E5E9EC"/>
<path d="M518.347 320.118C518.374 320.289 518.533 320.391 518.713 320.359C518.888 320.328 519.001 320.176 518.971 320.004C518.942 319.845 518.777 319.721 518.608 319.745C518.433 319.77 518.312 319.943 518.347 320.118Z" fill="#E5E9EC"/>
<path d="M491.072 310.279C491.111 310.445 491.275 310.542 491.453 310.5C491.626 310.458 491.731 310.295 491.696 310.135C491.657 309.972 491.481 309.862 491.315 309.894C491.14 309.927 491.03 310.098 491.072 310.279Z" fill="#E5E9EC"/>
<path d="M520.664 327.475C520.697 327.653 520.861 327.771 521.04 327.735C521.204 327.706 521.321 327.531 521.293 327.37C521.268 327.212 521.088 327.097 520.92 327.125C520.732 327.155 520.634 327.291 520.664 327.475Z" fill="#E5E9EC"/>
<path d="M498.815 308.755C498.854 308.929 499.006 309.029 499.188 308.997C499.357 308.967 499.482 308.81 499.455 308.65C499.431 308.496 499.219 308.357 499.057 308.392C498.898 308.422 498.779 308.597 498.815 308.755Z" fill="#E5E9EC"/>
<path d="M519.838 323.684C519.862 323.837 520.064 323.983 520.226 323.958C520.382 323.937 520.498 323.765 520.468 323.602C520.433 323.41 520.305 323.321 520.115 323.346C519.937 323.371 519.812 323.523 519.838 323.684Z" fill="#E5E9EC"/>
<path d="M482.2 326.304C482.39 326.655 482.842 326.795 483.197 326.608C483.272 326.572 483.333 326.521 483.393 326.468C483.344 326.638 483.353 326.812 483.427 326.968C483.622 327.371 484.302 327.596 484.754 327.431C485.102 327.304 485.315 326.759 485.09 326.187C484.929 325.77 484.438 325.621 483.976 325.814C483.847 325.872 483.731 325.953 483.637 326.048C483.677 325.876 483.657 325.69 483.561 325.523C483.377 325.193 482.873 325.066 482.503 325.252C482.132 325.437 481.993 325.924 482.2 326.304Z" fill="#E5E9EC"/>
<path d="M484.413 332.957C484.617 333.407 485.265 333.65 485.729 333.451C486.135 333.274 486.292 332.719 486.074 332.239C485.864 331.777 485.465 331.628 484.988 331.826C484.46 332.054 484.216 332.521 484.413 332.957Z" fill="#E5E9EC"/>
<path d="M489.274 329.139C489.487 329.599 490.127 329.853 490.572 329.662C491.005 329.473 491.176 328.921 490.953 328.45C490.75 328.013 490.293 327.84 489.858 328.019C489.481 328.179 489.032 328.766 489.274 329.139Z" fill="#E5E9EC"/>
<path d="M479.483 334.056C479.582 334.213 479.745 334.307 479.923 334.328C479.843 334.503 479.844 334.71 479.938 334.919C480.118 335.317 480.606 335.529 480.975 335.365C481.339 335.202 481.528 334.68 481.357 334.319C481.219 334.036 480.899 333.878 480.573 333.899C480.607 333.758 480.581 333.598 480.488 333.45C480.311 333.157 479.927 333.04 479.67 333.196C479.387 333.372 479.301 333.768 479.483 334.056Z" fill="#E5E9EC"/>
<path d="M481.823 322.827C482 323.208 482.496 323.397 482.884 323.229C483.261 323.061 483.441 322.579 483.272 322.192C483.117 321.84 482.634 321.683 482.237 321.856C481.849 322.023 481.658 322.47 481.823 322.827Z" fill="#E5E9EC"/>
<path d="M491.79 333.529C491.861 333.907 492.196 334.192 492.547 334.207C492.707 334.544 493.12 334.713 493.478 334.58C493.926 334.409 494.144 333.948 493.976 333.542C493.866 333.28 493.562 333.111 493.256 333.104C493.106 332.802 492.735 332.612 492.367 332.68C491.95 332.751 491.707 333.108 491.79 333.529Z" fill="#E5E9EC"/>
<path d="M493.584 327.46C493.746 327.801 494.273 327.988 494.643 327.832C495.038 327.667 495.181 327.251 494.99 326.832C494.816 326.448 494.378 326.26 494.009 326.416C493.623 326.577 493.415 327.092 493.584 327.46Z" fill="#E5E9EC"/>
<path d="M486.438 337.503C486.616 337.893 487.095 338.054 487.522 337.876C487.886 337.719 488.059 337.291 487.899 336.929C487.733 336.547 487.246 336.346 486.875 336.503C486.464 336.676 486.268 337.126 486.438 337.503Z" fill="#E5E9EC"/>
<path d="M488.833 322.396C489.004 322.777 489.471 322.956 489.86 322.789C490.274 322.612 490.449 322.21 490.272 321.834C490.078 321.416 489.618 321.243 489.186 321.427C488.816 321.586 488.662 322.006 488.833 322.396Z" fill="#E5E9EC"/>
<path d="M477.781 328.007C477.792 328.045 477.807 328.078 477.827 328.107C477.818 328.235 477.84 328.364 477.899 328.486C478.069 328.835 478.493 328.972 478.888 328.803C479.321 328.618 479.478 328.237 479.292 327.827C479.116 327.437 478.67 327.248 478.301 327.4C478.183 327.448 478.087 327.528 478.013 327.62C477.846 327.661 477.738 327.834 477.781 328.007Z" fill="#E5E9EC"/>
<path d="M480.32 318.662C480.457 318.959 480.849 319.126 481.139 319.013C481.428 318.897 481.578 318.514 481.448 318.209C481.331 317.925 480.939 317.766 480.644 317.886C480.358 317.997 480.194 318.389 480.32 318.662Z" fill="#E5E9EC"/>
<path d="M497.693 334.159C497.839 334.466 498.244 334.627 498.538 334.494C498.828 334.363 498.962 334.014 498.835 333.729C498.686 333.412 498.332 333.284 497.994 333.428C497.692 333.558 497.558 333.882 497.693 334.159Z" fill="#E5E9EC"/>
<path d="M477.545 338.568C477.669 338.856 478.044 338.994 478.35 338.863C478.667 338.726 478.82 338.342 478.676 338.045C478.548 337.774 478.188 337.662 477.874 337.799C477.563 337.935 477.414 338.28 477.545 338.568Z" fill="#E5E9EC"/>
<path d="M486.204 317.395C486.341 317.716 486.656 317.85 486.956 317.729C487.297 317.59 487.44 317.257 487.293 316.934C487.154 316.619 486.822 316.483 486.5 316.609C486.21 316.725 486.067 317.096 486.204 317.395Z" fill="#E5E9EC"/>
<path d="M494.243 338.916C494.298 339.035 494.386 339.129 494.491 339.191C494.551 339.188 494.607 339.179 494.664 339.178C494.834 339.168 495.004 339.163 495.17 339.162C495.381 339.006 495.455 338.726 495.332 338.46C495.186 338.142 494.851 338.009 494.525 338.144C494.211 338.273 494.094 338.592 494.243 338.916Z" fill="#E5E9EC"/>
<path d="M498.495 328.405C498.632 328.684 499.04 328.827 499.338 328.699C499.638 328.574 499.787 328.2 499.647 327.92C499.504 327.629 499.156 327.51 498.835 327.646C498.509 327.783 498.355 328.125 498.495 328.405Z" fill="#E5E9EC"/>
<path d="M491.821 318.453C491.857 318.509 491.916 318.56 491.982 318.593C491.961 318.708 491.974 318.833 492.028 318.952C492.159 319.246 492.477 319.375 492.785 319.253C493.101 319.129 493.275 318.735 493.14 318.445C493.06 318.269 492.88 318.15 492.685 318.115C492.674 318.063 492.651 318.013 492.624 317.96C492.488 317.747 492.202 317.67 491.987 317.787C491.779 317.904 491.69 318.246 491.821 318.453Z" fill="#E5E9EC"/>
<path d="M473.553 327.879C473.693 328.163 474.088 328.3 474.394 328.168C474.697 328.034 474.82 327.727 474.69 327.434C474.54 327.107 474.184 326.964 473.862 327.101C473.56 327.229 473.414 327.595 473.553 327.879Z" fill="#E5E9EC"/>
<path d="M475.776 322.437C475.923 322.756 476.277 322.888 476.612 322.742C476.917 322.612 477.028 322.323 476.887 322.014C476.743 321.697 476.38 321.539 476.082 321.66C475.783 321.781 475.642 322.138 475.776 322.437Z" fill="#E5E9EC"/>
<path d="M494.219 315.033C494.327 315.275 494.617 315.387 494.864 315.282C495.078 315.19 495.197 314.899 495.101 314.687C494.998 314.449 494.676 314.331 494.433 314.438C494.204 314.54 494.112 314.8 494.219 315.033Z" fill="#E5E9EC"/>
<path d="M469.247 331.639C469.348 331.885 469.617 331.999 469.857 331.899C470.111 331.799 470.232 331.515 470.122 331.281C470.016 331.05 469.734 330.94 469.496 331.037C469.249 331.133 469.144 331.391 469.247 331.639Z" fill="#E5E9EC"/>
<path d="M471.13 321.611C471.233 321.84 471.524 321.945 471.759 321.843C471.995 321.739 472.103 321.439 471.986 321.209C471.876 320.987 471.606 320.888 471.377 320.988C471.13 321.094 471.019 321.371 471.13 321.611Z" fill="#E5E9EC"/>
<path d="M478.713 314.579C478.801 314.793 479.142 314.925 479.373 314.833C479.579 314.748 479.713 314.424 479.625 314.211C479.534 313.99 479.237 313.882 478.992 313.979C478.741 314.081 478.619 314.347 478.713 314.579Z" fill="#E5E9EC"/>
<path d="M501.498 322.482C501.603 322.716 501.88 322.826 502.124 322.727C502.367 322.629 502.479 322.35 502.375 322.12C502.268 321.886 501.979 321.77 501.744 321.866C501.513 321.966 501.396 322.251 501.498 322.482Z" fill="#E5E9EC"/>
<path d="M498.453 318.203C498.558 318.431 498.844 318.544 499.084 318.447C499.342 318.34 499.443 318.104 499.335 317.854C499.224 317.61 498.94 317.492 498.697 317.593C498.47 317.683 498.356 317.978 498.453 318.203Z" fill="#E5E9EC"/>
<path d="M503.039 327.471C503.142 327.689 503.463 327.81 503.678 327.713C503.923 327.607 504.018 327.331 503.897 327.079C503.792 326.854 503.515 326.741 503.289 326.833C503.066 326.926 502.937 327.256 503.039 327.471Z" fill="#E5E9EC"/>
<path d="M474.669 340.958C474.748 340.837 474.768 340.689 474.71 340.551C474.611 340.321 474.294 340.193 474.062 340.287C473.968 340.327 473.893 340.396 473.843 340.479C474.122 340.639 474.395 340.8 474.669 340.958Z" fill="#E5E9EC"/>
<path d="M470.785 336.617C470.886 336.853 471.17 336.965 471.411 336.862C471.656 336.759 471.761 336.496 471.658 336.257C471.551 336.021 471.267 335.909 471.024 336.005C470.79 336.1 470.68 336.38 470.785 336.617Z" fill="#E5E9EC"/>
<path d="M469.381 326.489C469.495 326.731 469.739 326.82 469.99 326.712C470.226 326.608 470.342 326.329 470.241 326.099C470.145 325.871 469.838 325.754 469.609 325.855C469.367 325.96 469.264 326.246 469.381 326.489Z" fill="#E5E9EC"/>
<path d="M474.331 317.498C474.425 317.725 474.714 317.829 474.964 317.729C475.218 317.62 475.34 317.342 475.229 317.109C475.119 316.889 474.852 316.799 474.607 316.901C474.358 317.004 474.237 317.264 474.331 317.498Z" fill="#E5E9EC"/>
<path d="M501.168 337.528C501.265 337.745 501.552 337.858 501.78 337.769C502.02 337.669 502.132 337.372 502.031 337.133C501.923 336.9 501.676 336.805 501.426 336.909C501.172 337.013 501.057 337.287 501.168 337.528Z" fill="#E5E9EC"/>
<path d="M502.925 332.655C503.037 332.879 503.313 332.978 503.543 332.874C503.798 332.765 503.899 332.504 503.779 332.253C503.671 332.024 503.394 331.916 503.168 332.015C502.937 332.115 502.816 332.441 502.925 332.655Z" fill="#E5E9EC"/>
<path d="M483.84 313.111C483.96 313.377 484.206 313.47 484.475 313.355C484.718 313.251 484.832 312.977 484.726 312.751C484.621 312.53 484.341 312.435 484.088 312.542C483.824 312.65 483.731 312.862 483.84 313.111Z" fill="#E5E9EC"/>
<path d="M489.187 313.289C489.276 313.48 489.448 313.573 489.642 313.557C489.651 313.595 489.663 313.631 489.684 313.667C489.816 313.891 490.103 313.966 490.334 313.839C490.564 313.713 490.642 313.427 490.512 313.21C490.416 313.059 490.251 312.974 490.081 312.974C490.077 312.961 490.074 312.947 490.066 312.931C489.974 312.715 489.638 312.581 489.409 312.671C489.173 312.771 489.072 313.045 489.187 313.289Z" fill="#E5E9EC"/>
<path d="M499.718 313.255C499.791 313.414 499.997 313.498 500.152 313.424C500.305 313.354 500.374 313.164 500.303 313.01C500.229 312.85 500.022 312.767 499.864 312.838C499.718 312.91 499.649 313.099 499.718 313.255Z" fill="#E5E9EC"/>
<path d="M464.756 328.772C464.831 328.927 465.026 329.003 465.176 328.938C465.338 328.871 465.412 328.671 465.333 328.511C465.261 328.359 465.065 328.292 464.91 328.362C464.74 328.437 464.677 328.606 464.756 328.772Z" fill="#E5E9EC"/>
<path d="M506.854 329.306C506.933 329.671 507.402 329.97 507.8 329.9C507.839 329.894 507.87 329.884 507.905 329.872C507.803 329.957 507.761 330.092 507.82 330.224C507.886 330.376 508.083 330.459 508.24 330.396C508.394 330.334 508.468 330.15 508.409 329.99C508.346 329.837 508.226 329.767 508.081 329.794C508.321 329.637 508.438 329.34 508.373 329.005C508.295 328.596 507.907 328.315 507.516 328.383C507.1 328.453 506.775 328.91 506.854 329.306Z" fill="#E5E9EC"/>
<path d="M507.557 326.384C507.629 326.529 507.828 326.601 507.982 326.532C508.14 326.464 508.206 326.281 508.137 326.123C508.061 325.949 507.905 325.888 507.73 325.964C507.564 326.033 507.48 326.228 507.557 326.384Z" fill="#E5E9EC"/>
<path d="M466.411 321.281C466.479 321.421 466.696 321.494 466.844 321.431C467.008 321.356 467.068 321.193 466.991 321.026C466.914 320.864 466.725 320.786 466.578 320.847C466.433 320.911 466.343 321.145 466.411 321.281Z" fill="#E5E9EC"/>
<path d="M465.239 324.938C465.315 325.102 465.493 325.173 465.655 325.108C465.812 325.046 465.895 324.833 465.818 324.68C465.743 324.532 465.549 324.471 465.389 324.541C465.214 324.617 465.159 324.762 465.239 324.938Z" fill="#E5E9EC"/>
<path d="M496.389 311.088C496.463 311.273 496.627 311.347 496.806 311.273C496.973 311.204 497.051 311.026 496.988 310.874C496.928 310.723 496.732 310.639 496.575 310.695C496.414 310.747 496.329 310.931 496.389 311.088Z" fill="#E5E9EC"/>
<path d="M507.343 334.06C507.409 334.193 507.636 334.279 507.775 334.22C507.927 334.157 507.991 333.974 507.919 333.809C507.846 333.646 507.67 333.567 507.512 333.632C507.354 333.694 507.27 333.911 507.343 334.06Z" fill="#E5E9EC"/>
<path d="M470.746 314.883C470.815 315.028 471.006 315.092 471.17 315.025C471.345 314.953 471.418 314.789 471.349 314.631C471.288 314.486 471.079 314.402 470.928 314.456C470.775 314.509 470.679 314.741 470.746 314.883Z" fill="#E5E9EC"/>
<path d="M468.274 317.862C468.339 318.025 468.542 318.111 468.705 318.044C468.859 317.982 468.932 317.797 468.865 317.638C468.793 317.464 468.644 317.401 468.461 317.472C468.285 317.541 468.212 317.703 468.274 317.862Z" fill="#E5E9EC"/>
<path d="M506.168 337.716C506.241 337.882 506.416 337.952 506.576 337.882C506.742 337.812 506.819 337.617 506.745 337.458C506.677 337.313 506.477 337.246 506.318 337.313C506.154 337.384 506.09 337.552 506.168 337.716Z" fill="#E5E9EC"/>
<path d="M488.829 308.747C488.89 308.902 489.078 308.977 489.245 308.907C489.419 308.842 489.507 308.649 489.432 308.491C489.366 308.353 489.153 308.273 489.003 308.336C488.856 308.393 488.77 308.601 488.829 308.747Z" fill="#E5E9EC"/>
<path d="M484.866 308.602C484.937 308.769 485.139 308.853 485.298 308.781C485.45 308.711 485.524 308.517 485.455 308.368C485.386 308.217 485.184 308.14 485.031 308.204C484.866 308.27 484.796 308.438 484.866 308.602Z" fill="#E5E9EC"/>
<path d="M477.187 310.453C477.242 310.608 477.47 310.698 477.623 310.635C477.765 310.575 477.853 310.362 477.799 310.218C477.741 310.07 477.542 309.996 477.381 310.061C477.21 310.13 477.123 310.298 477.187 310.453Z" fill="#E5E9EC"/>
<path d="M502.59 315.954C502.662 316.112 502.836 316.176 503.005 316.106C503.168 316.037 503.243 315.865 503.173 315.705C503.105 315.551 502.916 315.472 502.757 315.532C502.596 315.595 502.515 315.789 502.59 315.954Z" fill="#E5E9EC"/>
<path d="M473.779 312.397C473.857 312.551 474.036 312.606 474.199 312.526C474.356 312.449 474.421 312.27 474.343 312.12C474.273 311.97 474.076 311.902 473.921 311.969C473.76 312.039 473.69 312.233 473.779 312.397Z" fill="#E5E9EC"/>
<path d="M465.029 332.635C465.117 332.805 465.264 332.844 465.434 332.79C465.59 332.739 465.675 332.508 465.598 332.363C465.529 332.221 465.31 332.139 465.173 332.2C465.013 332.275 464.947 332.475 465.029 332.635Z" fill="#E5E9EC"/>
<path d="M506.572 322.612C506.647 322.786 506.831 322.861 507 322.785C507.149 322.721 507.224 322.526 507.159 322.376C507.097 322.227 506.897 322.154 506.737 322.219C506.566 322.29 506.499 322.442 506.572 322.612Z" fill="#E5E9EC"/>
<path d="M480.938 309.197C481.017 309.354 481.193 309.415 481.36 309.349C481.52 309.284 481.602 309.102 481.539 308.948C481.479 308.803 481.241 308.715 481.092 308.783C480.94 308.852 480.869 309.051 480.938 309.197Z" fill="#E5E9EC"/>
<path d="M504.878 319.102C504.938 319.244 505.169 319.34 505.318 319.282C505.47 319.224 505.543 319.034 505.468 318.878C505.394 318.702 505.25 318.64 505.068 318.709C504.905 318.772 504.816 318.949 504.878 319.102Z" fill="#E5E9EC"/>
<path d="M486.978 340.403C487.035 340.419 487.093 340.429 487.151 340.442C487.204 340.414 487.255 340.384 487.306 340.355C487.322 340.298 487.335 340.242 487.35 340.188C487.399 339.996 487.306 339.842 487.121 339.795C486.949 339.752 486.782 339.852 486.736 340.018C486.689 340.207 486.779 340.353 486.978 340.403Z" fill="#E5E9EC"/>
<path d="M472.299 320.192C472.546 320.575 473.249 320.715 473.674 320.501C474.004 320.335 474.152 319.769 473.858 319.227C473.644 318.832 473.14 318.738 472.709 318.981C472.251 319.244 472.06 319.811 472.299 320.192Z" fill="#E5E9EC"/>
<path d="M474.005 326.033C474.265 326.459 474.937 326.627 475.37 326.374C475.75 326.153 475.842 325.583 475.566 325.131C475.3 324.695 474.891 324.592 474.442 324.845C473.941 325.131 473.76 325.625 474.005 326.033Z" fill="#E5E9EC"/>
<path d="M469.805 328.496C470.034 328.874 470.543 329.028 470.885 328.822C471.228 328.62 471.353 328.08 471.137 327.737C470.922 327.397 470.424 327.289 470.05 327.502C469.683 327.711 469.58 328.127 469.805 328.496Z" fill="#E5E9EC"/>
<path d="M470.211 316.263C470.431 316.62 470.949 316.751 471.306 316.539C471.663 316.332 471.784 315.831 471.569 315.464C471.371 315.137 470.874 315.031 470.502 315.249C470.132 315.459 470 315.927 470.211 316.263Z" fill="#E5E9EC"/>
<path d="M482.439 319.522C482.641 319.841 483.188 319.967 483.534 319.771C483.903 319.563 483.997 319.13 483.756 318.734C483.537 318.373 483.082 318.239 482.736 318.432C482.37 318.638 482.223 319.173 482.439 319.522Z" fill="#E5E9EC"/>
<path d="M476.569 330.323C476.79 330.689 477.284 330.797 477.688 330.568C478.03 330.372 478.147 329.923 477.948 329.581C477.734 329.223 477.227 329.079 476.88 329.276C476.494 329.493 476.348 329.966 476.569 330.323Z" fill="#E5E9EC"/>
<path d="M477.113 315.03C477.326 315.39 477.808 315.513 478.177 315.304C478.567 315.079 478.69 314.663 478.468 314.307C478.227 313.915 477.75 313.797 477.343 314.027C476.995 314.224 476.894 314.661 477.113 315.03Z" fill="#E5E9EC"/>
<path d="M466.999 322.333C467.213 322.661 467.651 322.749 468.024 322.534C468.432 322.3 468.54 321.904 468.305 321.518C468.081 321.154 467.615 321.012 467.266 321.207C466.883 321.421 466.758 321.955 466.999 322.333Z" fill="#E5E9EC"/>
<path d="M468.211 312.29C468.385 312.572 468.791 312.694 469.068 312.547C469.34 312.398 469.442 312.002 469.278 311.709C469.12 311.442 468.719 311.331 468.439 311.482C468.172 311.626 468.052 312.033 468.211 312.29Z" fill="#E5E9EC"/>
<path d="M487.216 325.272C487.223 325.306 487.232 325.337 487.25 325.365C487.235 325.483 487.257 325.603 487.325 325.71C487.51 325.999 487.933 326.113 488.203 325.948C488.454 325.794 488.549 325.483 488.441 325.223C488.44 325.178 488.438 325.136 488.428 325.092C488.361 324.741 488.047 324.521 487.702 324.585C487.376 324.642 487.147 324.967 487.216 325.272Z" fill="#E5E9EC"/>
<path d="M467.873 332.399C468.036 332.67 468.423 332.764 468.71 332.597C469.007 332.426 469.111 332.027 468.935 331.747C468.769 331.49 468.401 331.421 468.107 331.592C467.814 331.765 467.71 332.125 467.873 332.399Z" fill="#E5E9EC"/>
<path d="M473.891 310.363C474.072 310.659 474.398 310.761 474.682 310.606C475.005 310.429 475.104 310.079 474.919 309.775C474.742 309.48 474.4 309.385 474.095 309.548C473.82 309.696 473.723 310.079 473.891 310.363Z" fill="#E5E9EC"/>
<path d="M474.206 333.688C474.219 333.707 474.23 333.723 474.239 333.744C474.066 333.67 473.862 333.669 473.702 333.763C473.414 333.935 473.312 334.317 473.481 334.598C473.646 334.881 474.02 334.975 474.31 334.807C474.589 334.649 474.687 334.283 474.528 333.994C474.674 334.052 474.841 334.048 475.006 333.98C475.321 333.848 475.468 333.502 475.341 333.215C475.206 332.91 474.845 332.785 474.518 332.923C474.195 333.058 474.066 333.374 474.206 333.688Z" fill="#E5E9EC"/>
<path d="M484.482 330.835C484.654 331.118 485.025 331.216 485.311 331.062C485.603 330.903 485.689 330.553 485.51 330.258C485.322 329.954 484.973 329.86 484.667 330.035C484.373 330.199 484.293 330.529 484.482 330.835Z" fill="#E5E9EC"/>
<path d="M487.425 319.9C487.595 320.161 488.016 320.254 488.3 320.094C488.579 319.935 488.681 319.548 488.511 319.289C488.332 319.012 487.969 318.938 487.668 319.109C487.365 319.286 487.254 319.638 487.425 319.9Z" fill="#E5E9EC"/>
<path d="M479.861 311.24C480.031 311.522 480.358 311.611 480.65 311.453C480.946 311.296 481.072 310.884 480.902 310.61C480.745 310.353 480.358 310.255 480.081 310.404C479.773 310.575 479.68 310.936 479.861 311.24Z" fill="#E5E9EC"/>
<path d="M463.971 327.925C464.146 328.215 464.496 328.3 464.799 328.124C465.095 327.958 465.2 327.601 465.035 327.329C464.864 327.041 464.495 326.959 464.187 327.129C463.879 327.303 463.791 327.629 463.971 327.925Z" fill="#E5E9EC"/>
<path d="M484.421 314.368C484.44 314.516 484.573 314.631 484.719 314.645C484.725 314.654 484.728 314.667 484.733 314.675C484.901 314.947 485.271 315.026 485.572 314.851C485.864 314.683 485.971 314.315 485.802 314.052C485.621 313.774 485.258 313.687 484.97 313.855C484.886 313.901 484.824 313.961 484.773 314.031C484.75 314.03 484.722 314.031 484.7 314.034C484.507 314.065 484.395 314.201 484.421 314.368Z" fill="#E5E9EC"/>
<path d="M462.618 322.226C462.792 322.497 463.199 322.586 463.489 322.416C463.774 322.252 463.859 321.936 463.692 321.653C463.506 321.347 463.138 321.245 462.829 321.418C462.545 321.581 462.447 321.96 462.618 322.226Z" fill="#E5E9EC"/>
<path d="M464.164 316.561C464.348 316.862 464.718 316.951 465.026 316.772C465.314 316.609 465.386 316.307 465.211 316.015C465.029 315.718 464.653 315.598 464.371 315.754C464.091 315.906 463.991 316.284 464.164 316.561Z" fill="#E5E9EC"/>
<path d="M481.557 307.096C481.697 307.323 481.999 307.404 482.23 307.27C482.433 307.153 482.513 306.851 482.393 306.652C482.262 306.426 481.927 306.344 481.7 306.481C481.483 306.609 481.424 306.874 481.557 307.096Z" fill="#E5E9EC"/>
<path d="M458.802 326.456C458.933 326.692 459.209 326.775 459.438 326.648C459.677 326.516 459.764 326.222 459.629 326.001C459.493 325.783 459.2 325.707 458.977 325.832C458.745 325.955 458.671 326.225 458.802 326.456Z" fill="#E5E9EC"/>
<path d="M459.45 316.275C459.578 316.489 459.881 316.56 460.105 316.429C460.327 316.3 460.399 315.99 460.254 315.777C460.117 315.568 459.837 315.5 459.621 315.626C459.388 315.761 459.313 316.045 459.45 316.275Z" fill="#E5E9EC"/>
<path d="M466.123 308.416C466.236 308.619 466.588 308.713 466.805 308.593C467.007 308.485 467.094 308.15 466.982 307.948C466.864 307.739 466.554 307.665 466.324 307.788C466.092 307.917 466.002 308.197 466.123 308.416Z" fill="#E5E9EC"/>
<path d="M486.148 309.763C486.277 309.98 486.574 310.057 486.798 309.931C487.047 309.798 487.119 309.552 486.978 309.317C486.839 309.081 486.539 308.998 486.313 309.128C486.098 309.247 486.022 309.552 486.148 309.763Z" fill="#E5E9EC"/>
<path d="M488.475 333.11C488.601 333.316 488.928 333.387 489.136 333.258C489.338 333.134 489.425 332.799 489.309 332.609C489.174 332.401 488.871 332.327 488.645 332.457C488.417 332.59 488.337 332.893 488.475 333.11Z" fill="#E5E9EC"/>
<path d="M474.257 338.97C474.393 339.179 474.722 339.258 474.941 339.132C475.156 339.011 475.233 338.732 475.112 338.515C474.989 338.298 474.66 338.211 474.438 338.339C474.211 338.468 474.125 338.766 474.257 338.97Z" fill="#E5E9EC"/>
<path d="M479.568 338.518C479.696 338.731 480.024 338.807 480.251 338.679C480.466 338.562 480.537 338.29 480.408 338.075C480.264 337.831 479.981 337.75 479.75 337.885C479.531 338.017 479.444 338.315 479.568 338.518Z" fill="#E5E9EC"/>
<path d="M469.812 337.919C469.964 337.781 470 337.543 469.885 337.35C469.741 337.12 469.473 337.049 469.235 337.182C469.144 337.232 469.076 337.307 469.035 337.392C469.294 337.57 469.552 337.746 469.812 337.919Z" fill="#E5E9EC"/>
<path d="M460.928 331.23C461.059 331.454 461.356 331.533 461.58 331.402C461.811 331.273 461.885 330.996 461.752 330.772C461.621 330.553 461.318 330.472 461.099 330.594C460.873 330.714 460.799 331.009 460.928 331.23Z" fill="#E5E9EC"/>
<path d="M458.306 321.325C458.454 321.55 458.703 321.612 458.937 321.474C459.159 321.347 459.243 321.054 459.114 320.836C458.993 320.624 458.671 320.537 458.46 320.665C458.231 320.799 458.164 321.093 458.306 321.325Z" fill="#E5E9EC"/>
<path d="M462.129 311.822C462.246 312.037 462.551 312.108 462.785 311.975C463.027 311.842 463.114 311.55 462.973 311.332C462.838 311.126 462.559 311.067 462.331 311.193C462.095 311.326 462.008 311.6 462.129 311.822Z" fill="#E5E9EC"/>
<path d="M491.18 328.662C491.307 328.867 491.607 328.945 491.819 328.829C492.041 328.707 492.126 328.397 491.991 328.172C491.858 327.948 491.6 327.885 491.362 328.02C491.122 328.148 491.045 328.436 491.18 328.662Z" fill="#E5E9EC"/>
<path d="M484.471 336.513C484.598 336.714 484.886 336.77 485.116 336.639C485.357 336.506 485.441 336.235 485.312 336.017C485.19 335.807 484.883 335.738 484.651 335.864C484.417 335.992 484.331 336.297 484.471 336.513Z" fill="#E5E9EC"/>
<path d="M492.336 323.62C492.472 323.826 492.757 323.893 492.977 323.766C493.215 323.627 493.283 323.356 493.133 323.12C492.997 322.904 492.707 322.831 492.498 322.955C492.284 323.08 492.2 323.414 492.336 323.62Z" fill="#E5E9EC"/>
<path d="M471.032 306.374C471.183 306.622 471.435 306.686 471.689 306.544C471.919 306.41 471.998 306.125 471.867 305.916C471.731 305.708 471.445 305.644 471.208 305.776C470.958 305.918 470.892 306.14 471.032 306.374Z" fill="#E5E9EC"/>
<path d="M476.358 305.936C476.501 306.17 476.76 306.23 477.003 306.09C477.228 305.963 477.309 305.697 477.188 305.483C477.069 305.277 476.715 305.183 476.502 305.303C476.282 305.425 476.215 305.709 476.358 305.936Z" fill="#E5E9EC"/>
<path d="M486.801 304.701C486.89 304.854 487.107 304.909 487.25 304.818C487.396 304.73 487.438 304.536 487.35 304.39C487.257 304.24 487.04 304.182 486.901 304.27C486.755 304.358 486.712 304.554 486.801 304.701Z" fill="#E5E9EC"/>
<path d="M492.62 335.123C492.712 335.284 492.906 335.34 493.064 335.245C493.214 335.159 493.271 334.968 493.194 334.826C493.114 334.678 492.901 334.622 492.742 334.71C492.586 334.794 492.533 334.968 492.62 335.123Z" fill="#E5E9EC"/>
<path d="M453.999 324.117C454.093 324.265 454.294 324.322 454.434 324.242C454.592 324.151 454.639 323.945 454.541 323.797C454.449 323.656 454.247 323.608 454.098 323.698C453.941 323.791 453.901 323.963 453.999 324.117Z" fill="#E5E9EC"/>
<path d="M496.893 320.644C496.981 320.783 497.188 320.841 497.334 320.763C497.479 320.686 497.532 320.492 497.455 320.34C497.358 320.172 497.203 320.126 497.031 320.213C496.86 320.301 496.806 320.483 496.893 320.644Z" fill="#E5E9EC"/>
<path d="M489.941 337.963C490.031 338.107 490.226 338.151 490.378 338.067C490.551 337.968 490.594 337.802 490.481 337.637C490.391 337.491 490.185 337.447 490.047 337.536C489.901 337.626 489.853 337.825 489.941 337.963Z" fill="#E5E9EC"/>
<path d="M496.17 316.854C496.259 316.988 496.468 317.038 496.609 316.951C496.754 316.867 496.8 316.679 496.712 316.528C496.613 316.366 496.455 316.322 496.291 316.416C496.132 316.503 496.075 316.711 496.17 316.854Z" fill="#E5E9EC"/>
<path d="M454.732 316.487C454.817 316.616 455.041 316.665 455.18 316.583C455.332 316.494 455.372 316.321 455.278 316.165C455.18 316.016 454.984 315.955 454.844 316.036C454.708 316.113 454.646 316.353 454.732 316.487Z" fill="#E5E9EC"/>
<path d="M454.015 320.256C454.103 320.405 454.289 320.461 454.446 320.376C454.593 320.297 454.647 320.076 454.55 319.933C454.462 319.793 454.26 319.753 454.115 319.843C453.947 319.941 453.915 320.088 454.015 320.256Z" fill="#E5E9EC"/>
<path d="M494.716 331.864C494.806 332.012 495 332.07 495.151 331.996C495.302 331.915 495.356 331.708 495.267 331.555C495.173 331.404 494.995 331.36 494.839 331.452C494.675 331.541 494.626 331.716 494.716 331.864Z" fill="#E5E9EC"/>
<path d="M483.236 302.927C483.328 303.104 483.503 303.158 483.671 303.064C483.826 302.975 483.884 302.792 483.803 302.645C483.722 302.5 483.521 302.44 483.366 302.515C483.218 302.587 483.157 302.779 483.236 302.927Z" fill="#E5E9EC"/>
<path d="M496.89 324.511C496.973 324.635 497.208 324.692 497.337 324.618C497.477 324.54 497.523 324.347 497.43 324.195C497.337 324.038 497.153 323.981 497.001 324.062C496.856 324.14 496.799 324.368 496.89 324.511Z" fill="#E5E9EC"/>
<path d="M458.255 309.63C458.339 309.768 458.538 309.809 458.693 309.726C458.858 309.632 458.913 309.462 458.823 309.311C458.743 309.175 458.528 309.115 458.383 309.187C458.241 309.255 458.171 309.497 458.255 309.63Z" fill="#E5E9EC"/>
<path d="M456.164 312.872C456.245 313.031 456.459 313.091 456.613 313.009C456.758 312.928 456.811 312.735 456.725 312.581C456.631 312.417 456.474 312.373 456.304 312.466C456.14 312.554 456.081 312.721 456.164 312.872Z" fill="#E5E9EC"/>
<path d="M479.421 301.856C479.509 302.006 479.699 302.061 479.851 301.982C480.009 301.903 480.063 301.697 479.968 301.542C479.876 301.393 479.698 301.357 479.536 301.448C479.369 301.539 479.327 301.699 479.421 301.856Z" fill="#E5E9EC"/>
<path d="M496.166 328.278C496.261 328.434 496.443 328.483 496.59 328.397C496.747 328.305 496.799 328.102 496.705 327.957C496.622 327.82 496.417 327.777 496.267 327.862C496.111 327.947 496.07 328.122 496.166 328.278Z" fill="#E5E9EC"/>
<path d="M475.447 301.462C475.529 301.613 475.726 301.662 475.885 301.577C476.048 301.491 476.11 301.289 476.02 301.142C475.935 301.014 475.712 300.959 475.575 301.034C475.437 301.111 475.377 301.325 475.447 301.462Z" fill="#E5E9EC"/>
<path d="M471.503 301.775C471.594 301.931 471.806 301.992 471.952 301.9C472.097 301.815 472.143 301.609 472.055 301.475C471.97 301.331 471.762 301.275 471.618 301.36C471.463 301.444 471.409 301.619 471.503 301.775Z" fill="#E5E9EC"/>
<path d="M464.107 304.491C464.181 304.638 464.418 304.703 464.561 304.622C464.7 304.545 464.761 304.326 464.688 304.19C464.612 304.048 464.402 303.996 464.252 304.078C464.09 304.164 464.028 304.347 464.107 304.491Z" fill="#E5E9EC"/>
<path d="M489.978 307.052C490.068 307.204 490.25 307.251 490.408 307.157C490.561 307.072 490.609 306.894 490.524 306.74C490.439 306.594 490.237 306.538 490.089 306.614C489.937 306.695 489.881 306.897 489.978 307.052Z" fill="#E5E9EC"/>
<path d="M460.961 306.81C461.057 306.954 461.244 306.993 461.394 306.893C461.541 306.796 461.585 306.612 461.49 306.471C461.398 306.332 461.197 306.283 461.05 306.369C460.899 306.459 460.854 306.657 460.961 306.81Z" fill="#E5E9EC"/>
<path d="M494.735 313.218C494.83 313.379 495.024 313.433 495.18 313.34C495.319 313.259 495.373 313.056 495.287 312.912C495.209 312.774 495 312.719 494.85 312.805C494.686 312.897 494.642 313.056 494.735 313.218Z" fill="#E5E9EC"/>
<path d="M467.677 302.813C467.775 302.96 467.955 303.004 468.116 302.915C468.263 302.831 468.324 302.643 468.241 302.499C468.165 302.362 467.921 302.299 467.781 302.384C467.638 302.471 467.592 302.677 467.677 302.813Z" fill="#E5E9EC"/>
<path d="M492.712 309.551C492.6 309.641 492.558 309.794 492.629 309.92C492.702 310.058 492.944 310.125 493.087 310.051C493.203 309.987 493.252 309.846 493.222 309.716C493.329 309.63 493.371 309.478 493.309 309.347C493.236 309.188 493.061 309.125 492.892 309.198C492.731 309.265 492.665 309.398 492.712 309.551Z" fill="#E5E9EC"/>
<path d="M507.283 325.588C507.313 325.638 507.343 325.691 507.375 325.743C507.423 325.755 507.474 325.766 507.524 325.783C507.737 325.845 507.893 325.771 507.948 325.575C507.992 325.423 507.881 325.239 507.723 325.194C507.524 325.142 507.371 325.236 507.324 325.446C507.311 325.491 507.296 325.54 507.283 325.588Z" fill="#E5E9EC"/>
<path d="M523.686 314.561C523.925 314.948 524.622 315.101 525.055 314.888C525.388 314.729 525.543 314.165 525.259 313.618C525.052 313.224 524.549 313.122 524.114 313.359C523.65 313.615 523.45 314.177 523.686 314.561Z" fill="#E5E9EC"/>
<path d="M525.299 320.425C525.549 320.853 526.218 321.033 526.655 320.786C527.038 320.568 527.139 320.002 526.876 319.546C526.613 319.108 526.203 318.997 525.752 319.246C525.246 319.521 525.056 320.014 525.299 320.425Z" fill="#E5E9EC"/>
<path d="M529.725 316.139C529.987 316.576 530.647 316.77 531.072 316.532C531.479 316.303 531.593 315.738 531.323 315.288C531.073 314.877 530.599 314.747 530.189 314.969C529.83 315.165 529.45 315.794 529.725 316.139Z" fill="#E5E9EC"/>
<path d="M521.057 322.824C521.28 323.204 521.783 323.366 522.134 323.166C522.477 322.97 522.611 322.43 522.404 322.087C522.192 321.742 521.695 321.627 521.315 321.833C520.946 322.038 520.835 322.449 521.057 322.824Z" fill="#E5E9EC"/>
<path d="M521.658 310.6C521.874 310.962 522.388 311.098 522.753 310.892C523.112 310.691 523.241 310.192 523.029 309.824C522.836 309.486 522.342 309.38 521.966 309.592C521.597 309.798 521.454 310.258 521.658 310.6Z" fill="#E5E9EC"/>
<path d="M533.489 320.818C533.671 321.172 534.124 321.317 534.478 321.141C534.904 320.924 535.072 320.446 534.863 320.061C534.681 319.726 534.178 319.592 533.806 319.772C533.434 319.952 533.285 320.434 533.489 320.818Z" fill="#E5E9EC"/>
<path d="M533.836 314.043C534.031 314.368 534.576 314.501 534.926 314.31C534.965 314.288 535.004 314.263 535.038 314.234C535.021 313.845 535.008 313.456 534.99 313.069C534.753 312.868 534.42 312.814 534.147 312.96C533.777 313.16 533.625 313.692 533.836 314.043Z" fill="#E5E9EC"/>
<path d="M527.792 324.751C528.008 325.121 528.501 325.234 528.908 325.015C529.251 324.823 529.376 324.377 529.183 324.033C528.978 323.671 528.469 323.52 528.119 323.709C527.728 323.923 527.581 324.392 527.792 324.751Z" fill="#E5E9EC"/>
<path d="M528.581 309.473C528.788 309.835 529.271 309.966 529.643 309.761C530.033 309.547 530.164 309.128 529.949 308.769C529.714 308.375 529.236 308.247 528.83 308.471C528.478 308.665 528.367 309.098 528.581 309.473Z" fill="#E5E9EC"/>
<path d="M518.352 316.62C518.558 316.951 518.996 317.046 519.372 316.838C519.781 316.61 519.896 316.219 519.671 315.829C519.45 315.459 518.986 315.311 518.632 315.501C518.25 315.709 518.117 316.237 518.352 316.62Z" fill="#E5E9EC"/>
<path d="M519.723 306.601C519.894 306.881 520.298 307.009 520.576 306.867C520.852 306.724 520.958 306.326 520.799 306.032C520.65 305.764 520.243 305.646 519.966 305.791C519.694 305.931 519.569 306.337 519.723 306.601Z" fill="#E5E9EC"/>
<path d="M519.061 326.695C519.218 326.971 519.605 327.067 519.893 326.908C520.193 326.74 520.307 326.342 520.134 326.062C519.975 325.804 519.603 325.728 519.307 325.897C519.013 326.062 518.903 326.42 519.061 326.695Z" fill="#E5E9EC"/>
<path d="M525.437 304.756C525.611 305.06 525.935 305.163 526.222 305.011C526.547 304.838 526.652 304.494 526.474 304.184C526.3 303.886 525.956 303.784 525.652 303.945C525.373 304.088 525.272 304.474 525.437 304.756Z" fill="#E5E9EC"/>
<path d="M524.632 328.979C524.797 329.265 525.162 329.366 525.46 329.203C525.748 329.044 525.854 328.664 525.684 328.371C525.527 328.104 525.138 327.994 524.87 328.15C524.578 328.316 524.471 328.695 524.632 328.979Z" fill="#E5E9EC"/>
<path d="M531.392 305.725C531.555 306.008 531.886 306.101 532.174 305.95C532.473 305.798 532.605 305.387 532.442 305.11C532.29 304.85 531.905 304.744 531.627 304.891C531.315 305.056 531.213 305.416 531.392 305.725Z" fill="#E5E9EC"/>
<path d="M515.233 322.163C515.401 322.455 515.752 322.545 516.054 322.379C516.353 322.214 516.467 321.86 516.307 321.585C516.141 321.297 515.771 321.205 515.458 321.373C515.151 321.542 515.057 321.867 515.233 322.163Z" fill="#E5E9EC"/>
<path d="M513.968 316.446C514.14 316.719 514.545 316.813 514.835 316.65C515.126 316.489 515.215 316.172 515.051 315.89C514.871 315.58 514.502 315.471 514.196 315.639C513.909 315.798 513.803 316.176 513.968 316.446Z" fill="#E5E9EC"/>
<path d="M530.643 328.532C530.81 328.802 531.174 328.895 531.458 328.739C531.754 328.576 531.84 328.24 531.665 327.94C531.486 327.646 531.105 327.521 530.844 327.676C530.562 327.842 530.466 328.24 530.643 328.532Z" fill="#E5E9EC"/>
<path d="M515.607 310.806C515.782 311.108 516.151 311.207 516.469 311.032C516.757 310.872 516.837 310.573 516.663 310.277C516.489 309.973 516.113 309.858 515.828 310.005C515.546 310.15 515.441 310.528 515.607 310.806Z" fill="#E5E9EC"/>
<path d="M510.087 320.617C510.211 320.854 510.491 320.941 510.719 320.818C510.96 320.687 511.052 320.394 510.918 320.173C510.787 319.953 510.493 319.874 510.266 319.993C510.034 320.116 509.957 320.382 510.087 320.617Z" fill="#E5E9EC"/>
<path d="M510.902 310.449C511.026 310.666 511.326 310.743 511.551 310.614C511.775 310.49 511.85 310.182 511.711 309.962C511.579 309.752 511.296 309.682 511.079 309.805C510.846 309.934 510.766 310.219 510.902 310.449Z" fill="#E5E9EC"/>
<path d="M517.696 302.694C517.808 302.896 518.159 302.995 518.379 302.88C518.577 302.774 518.675 302.44 518.567 302.236C518.454 302.024 518.143 301.948 517.912 302.07C517.67 302.193 517.582 302.471 517.696 302.694Z" fill="#E5E9EC"/>
<path d="M515.608 329.377C515.739 329.606 516.021 329.688 516.249 329.57C516.484 329.449 516.575 329.169 516.452 328.95C516.332 328.729 516.003 328.634 515.783 328.753C515.556 328.873 515.476 329.148 515.608 329.377Z" fill="#E5E9EC"/>
<path d="M525.342 333.361C525.475 333.572 525.802 333.656 526.022 333.534C526.24 333.416 526.319 333.139 526.204 332.923C526.081 332.704 525.757 332.609 525.529 332.733C525.304 332.858 525.213 333.154 525.342 333.361Z" fill="#E5E9EC"/>
<path d="M530.658 332.99C530.781 333.206 531.11 333.29 531.335 333.167C531.555 333.048 531.63 332.781 531.506 332.561C531.365 332.315 531.085 332.23 530.85 332.364C530.628 332.49 530.535 332.784 530.658 332.99Z" fill="#E5E9EC"/>
<path d="M520.74 331.356C520.754 331.421 520.795 331.477 520.847 331.518C520.703 331.42 520.52 331.406 520.345 331.499C520.119 331.617 520.03 331.889 520.145 332.103C520.257 332.317 520.601 332.417 520.824 332.307C521.046 332.193 521.127 331.904 520.991 331.676C520.959 331.624 520.923 331.583 520.879 331.546C520.951 331.591 521.037 331.613 521.122 331.596C521.287 331.565 521.396 331.402 521.365 331.233C521.331 331.045 521.196 330.952 521.004 330.985C520.828 331.016 520.701 331.187 520.74 331.356Z" fill="#E5E9EC"/>
<path d="M512.137 325.424C512.266 325.648 512.559 325.732 512.785 325.604C513.019 325.481 513.097 325.207 512.965 324.976C512.84 324.757 512.543 324.669 512.314 324.787C512.089 324.906 512.009 325.198 512.137 325.424Z" fill="#E5E9EC"/>
<path d="M509.674 315.48C509.814 315.705 510.066 315.77 510.303 315.639C510.527 315.515 510.615 315.222 510.491 315.005C510.369 314.789 510.053 314.701 509.836 314.823C509.605 314.954 509.535 315.249 509.674 315.48Z" fill="#E5E9EC"/>
<path d="M513.649 306.036C513.767 306.254 514.066 306.327 514.303 306.202C514.546 306.069 514.635 305.78 514.5 305.559C514.367 305.354 514.093 305.289 513.862 305.412C513.626 305.544 513.529 305.812 513.649 306.036Z" fill="#E5E9EC"/>
<path d="M535.593 331.062C535.627 331.118 535.673 331.161 535.729 331.195C535.714 330.958 535.7 330.722 535.682 330.49C535.523 330.636 535.48 330.879 535.593 331.062Z" fill="#E5E9EC"/>
<path d="M522.638 300.723C522.786 300.977 523.04 301.047 523.293 300.905C523.525 300.778 523.61 300.493 523.484 300.278C523.353 300.067 523.063 300.001 522.825 300.131C522.577 300.268 522.504 300.488 522.638 300.723Z" fill="#E5E9EC"/>
<path d="M527.97 300.37C528.111 300.604 528.369 300.67 528.617 300.533C528.842 300.41 528.928 300.139 528.806 299.93C528.694 299.719 528.343 299.621 528.128 299.736C527.903 299.856 527.834 300.143 527.97 300.37Z" fill="#E5E9EC"/>
<path d="M505.322 318.207C505.409 318.356 505.612 318.414 505.756 318.332C505.91 318.249 505.962 318.045 505.865 317.892C505.777 317.747 505.577 317.702 505.427 317.787C505.268 317.879 505.225 318.051 505.322 318.207Z" fill="#E5E9EC"/>
<path d="M526.432 337.704C526.514 337.847 526.714 337.898 526.871 337.816C527.037 337.728 527.1 337.53 527.003 337.382C526.92 337.25 526.701 337.197 526.557 337.274C526.419 337.35 526.354 337.57 526.432 337.704Z" fill="#E5E9EC"/>
<path d="M522.487 337.241C522.575 337.392 522.794 337.45 522.942 337.363C523.086 337.283 523.127 337.085 523.04 336.937C522.946 336.775 522.785 336.735 522.616 336.83C522.452 336.92 522.4 337.091 522.487 337.241Z" fill="#E5E9EC"/>
<path d="M506.179 310.588C506.258 310.72 506.482 310.771 506.623 310.691C506.778 310.602 506.819 310.434 506.724 310.276C506.631 310.124 506.438 310.061 506.297 310.14C506.157 310.216 506.093 310.454 506.179 310.588Z" fill="#E5E9EC"/>
<path d="M518.679 336.098C518.772 336.248 518.975 336.294 519.134 336.199C519.294 336.105 519.329 335.951 519.226 335.786C519.135 335.639 518.936 335.587 518.796 335.672C518.651 335.761 518.597 335.965 518.679 336.098Z" fill="#E5E9EC"/>
<path d="M534.666 336.596C534.828 336.514 534.899 336.332 534.819 336.187C534.802 336.153 534.775 336.123 534.747 336.1C534.583 336.234 534.418 336.368 534.252 336.501C534.342 336.619 534.526 336.666 534.666 336.596Z" fill="#E5E9EC"/>
<path d="M509.813 303.787C509.895 303.926 510.09 303.971 510.249 303.887C510.413 303.798 510.472 303.627 510.384 303.476C510.307 303.338 510.092 303.275 509.948 303.345C509.802 303.413 509.729 303.651 509.813 303.787Z" fill="#E5E9EC"/>
<path d="M507.667 306.999C507.747 307.156 507.96 307.221 508.113 307.137C508.261 307.058 508.317 306.87 508.233 306.714C508.142 306.551 507.987 306.505 507.813 306.592C507.648 306.678 507.588 306.847 507.667 306.999Z" fill="#E5E9EC"/>
<path d="M509.398 328.956C509.489 329.118 509.693 329.186 509.842 329.101C509.984 329.017 510.042 328.813 509.964 328.676C509.881 328.531 509.682 328.48 509.531 328.557C509.359 328.646 509.308 328.797 509.398 328.956Z" fill="#E5E9EC"/>
<path d="M527.134 295.883C527.214 296.032 527.408 296.087 527.568 296.006C527.734 295.92 527.801 295.719 527.709 295.571C527.629 295.441 527.413 295.381 527.266 295.458C527.126 295.53 527.064 295.743 527.134 295.883Z" fill="#E5E9EC"/>
<path d="M523.186 296.133C523.274 296.292 523.481 296.354 523.632 296.267C523.777 296.183 523.831 295.981 523.743 295.84C523.659 295.696 523.453 295.642 523.308 295.718C523.15 295.802 523.095 295.976 523.186 296.133Z" fill="#E5E9EC"/>
<path d="M515.157 334.292C515.239 334.437 515.442 334.495 515.59 334.419C515.75 334.338 515.798 334.141 515.702 333.982C515.612 333.832 515.434 333.786 515.272 333.877C515.12 333.962 515.068 334.149 515.157 334.292Z" fill="#E5E9EC"/>
<path d="M515.746 298.736C515.818 298.884 516.054 298.955 516.2 298.876C516.333 298.8 516.399 298.581 516.331 298.444C516.259 298.301 516.047 298.246 515.899 298.326C515.735 298.412 515.669 298.589 515.746 298.736Z" fill="#E5E9EC"/>
<path d="M512.561 301.008C512.657 301.156 512.842 301.195 512.995 301.097C513.143 301.003 513.19 300.82 513.098 300.674C513.01 300.534 512.806 300.486 512.662 300.565C512.507 300.656 512.462 300.853 512.561 301.008Z" fill="#E5E9EC"/>
<path d="M506 322.03C506.104 322.188 506.252 322.215 506.416 322.142C506.567 322.073 506.623 321.839 506.535 321.701C506.45 321.566 506.227 321.51 506.093 321.583C505.942 321.671 505.898 321.878 506 322.03Z" fill="#E5E9EC"/>
<path d="M519.346 297.115C519.438 297.265 519.618 297.31 519.779 297.225C519.929 297.146 519.992 296.953 519.914 296.809C519.84 296.671 519.594 296.607 519.454 296.689C519.311 296.772 519.26 296.977 519.346 297.115Z" fill="#E5E9EC"/>
<path d="M446.969 250.696C446.807 249.703 445.595 249.165 444.705 249.41C443.663 249.696 443.258 250.686 443.42 251.675C444.566 258.615 445.089 265.661 445.099 272.693C445.102 275.068 448.784 275.068 448.78 272.693C448.768 265.328 448.17 257.963 446.969 250.696Z" fill="#E5E9EC"/>
<path d="M391.682 272.787C391.07 275.236 390.488 277.712 390.454 280.251C390.422 282.626 394.105 282.624 394.136 280.251C394.164 278.034 394.698 275.904 395.233 273.765C395.808 271.461 392.257 270.484 391.682 272.787Z" fill="#E5E9EC"/>
<path d="M424.758 266.27C423.886 266.031 422.632 266.559 422.493 267.555C421.934 271.585 421.845 275.61 421.845 279.671C421.845 282.046 425.528 282.046 425.528 279.671C425.528 275.954 425.531 272.222 426.042 268.534C426.182 267.542 425.817 266.561 424.758 266.27Z" fill="#E5E9EC"/>
<path d="M476.501 277.317C474.618 272.483 473.717 267.444 473.422 262.282C473.28 259.786 469.412 259.996 469.553 262.493C469.867 267.973 470.827 273.419 472.826 278.549C473.729 280.866 477.41 279.652 476.501 277.317Z" fill="#4A9AD4"/>
<path d="M411.608 168.201C410.865 181.743 407.017 194.802 405.045 208.171C404.799 209.838 407.347 210.556 407.595 208.873C409.601 195.269 413.496 181.982 414.252 168.201C414.346 166.496 411.701 166.505 411.608 168.201Z" fill="#4A9AD4"/>
<path d="M400.419 231.967C398.385 245.651 393.916 258.863 392.439 272.64C392.258 274.334 394.903 274.317 395.083 272.64C396.534 259.106 400.971 246.117 402.968 232.67C403.215 231.003 400.668 230.285 400.419 231.967Z" fill="#4A9AD4"/>
<path d="M424.791 191.882C421.623 204.729 421.61 218.042 420.847 231.175C420.721 233.345 424.088 233.332 424.213 231.175C424.959 218.341 424.941 205.331 428.038 192.777C428.557 190.669 425.311 189.775 424.791 191.882Z" fill="#E5E9EC"/>
<path d="M449.015 213.636C446.716 205.925 445.218 198.066 445.19 189.999C445.182 187.829 441.816 187.828 441.823 189.999C441.852 198.35 443.389 206.548 445.768 214.531C446.387 216.606 449.636 215.722 449.015 213.636Z" fill="#E5E9EC"/>
<path d="M349.776 115.616C348.531 114.498 347.711 113.229 348.014 111.874C348.627 109.134 353.533 108.133 355.931 107.877C355.067 107.969 351.719 104.635 350.918 104.039C349.149 102.726 347.292 101.479 345.605 100.066C344.389 99.047 339.413 95.7643 339.887 93.9118C340.386 92.1191 347.729 89.6144 349.326 89.1528C348.458 88.3229 334.923 77.5995 335.522 76.9868C338.19 74.2516 340.609 72.6544 344.078 71.2988C346.591 70.3146 349.513 68.8054 352.245 68.5837C355.504 68.3192 357.995 70.3685 360.429 72.2616C363.31 74.5037 376.448 85.3641 375.827 88.9314C375.331 91.7827 370.639 90.8073 368.446 92.0565C365.166 93.9242 375.428 102.504 377.834 105.263C379.388 107.045 382.926 109.614 382.744 112.119C380.048 113.575 373.282 111.514 371.763 114.37C371.576 114.72 375.92 118.499 376.296 118.955C378.224 121.284 388.032 131.808 388.353 134.859C386.499 135.097 384.574 133.82 383.041 132.925C374.363 127.857 364.817 124.406 356.037 119.496C354.649 118.72 351.703 117.347 349.776 115.616Z" fill="#C1E4FB"/>
<path d="M587.347 175.2C584.447 174.191 576.803 171.641 572.694 172.03C576.916 171.433 591.918 151.475 596.738 143.625C592.601 142.925 543.651 166.502 547.854 176.848C547.435 176.803 547.018 176.755 546.601 176.701C545.298 176.533 543.826 176.273 542.761 175.689C542.339 175.458 542.229 175.359 542.035 174.99C542.103 175.119 541.993 174.714 541.995 174.744C541.974 174.366 542.006 174.37 542.117 173.985C542.676 172.073 544.423 170.398 545.756 169.013C547.524 167.175 549.378 165.455 551.416 163.918C555.719 160.672 560.5 158.092 565.311 155.692C573.175 151.77 581.387 148.478 588.945 143.964C590.383 143.106 589.076 140.857 587.632 141.719C578.366 147.252 568.163 151.008 558.714 156.205C554.144 158.719 549.713 161.594 545.902 165.177C544.053 166.915 542.249 168.795 540.81 170.893C539.927 172.181 539.204 173.74 539.459 175.334C539.925 178.247 543.679 178.896 546.05 179.228C547.838 179.479 549.638 179.616 551.438 179.77C552.964 180.21 554.613 180.171 556.231 180.479C555.308 184.662 551.748 188.286 548.863 191.157C545.371 194.634 541.438 197.631 537.944 201.101C536.753 202.285 538.593 204.123 539.783 202.94C541.873 200.865 544.111 198.95 546.324 197.007C541.327 203.258 536.955 209.484 537.807 211.521C538.572 213.338 575.326 190.381 582.624 185.172C583.051 184.869 583.373 184.618 583.58 184.43C586.007 182.226 591.517 176.652 587.347 175.2ZM558.156 182.899C558.353 182.386 558.523 181.864 558.66 181.332C558.798 181.411 558.935 181.493 559.07 181.584C559.132 181.647 558.79 182.119 558.156 182.899Z" fill="#A3D9E7"/>
<path d="M303.314 208.031C299.245 206.712 294.482 206.558 291.999 210.652C290.988 212.319 290.591 214.307 290.452 216.259C288.44 215.603 286.654 214.431 284.935 213.177C282.682 211.533 280.516 209.803 278.107 208.383C276.664 207.532 275.633 209.922 277.059 210.763C281.872 213.601 285.784 218.126 291.488 219.196C292.119 219.314 292.953 218.789 292.964 218.098C292.987 216.704 293.106 215.314 293.434 213.956C293.608 213.235 294.146 212.036 294.51 211.537C294.835 211.092 294.977 210.968 295.198 210.782C295.621 210.427 295.851 210.316 296.095 210.203C296.279 210.119 296.469 210.049 296.66 209.984C297.053 209.852 296.722 209.947 297.035 209.881C297.495 209.783 297.967 209.745 298.437 209.734C298.638 209.728 299.147 209.759 299.627 209.819C300.18 209.887 300.728 209.999 301.269 210.13C302.26 210.369 303.4 210.785 304.508 211.249C307.127 212.346 309.612 213.768 312.004 215.29C315.69 217.636 319.21 220.218 322.625 222.937C317.099 219.301 312.882 216.615 311.81 215.962C308.765 214.107 303.841 211.242 300.048 211.759C298.269 212.001 297.245 212.67 296.688 213.598C295.093 216.279 299.252 221.815 296.324 223.621C293.934 225.095 284.07 217.926 281.928 216.786C279.066 215.264 275.592 212.172 272.171 212.685C272.918 217.19 273.135 221.545 274.354 226.082C276.404 233.708 277.097 241.384 284.991 244.928C288.475 246.492 325.452 259.56 323.129 249.511C322.197 245.482 319.388 242.251 316.958 239.011C311.087 231.185 327.705 239.528 329.639 240.404C336.041 243.306 360.375 253.738 360.036 251.425C359.703 249.168 350.834 242.333 340.771 235.246C338.407 233.192 336.135 231.018 333.786 228.955C328.951 224.707 323.999 220.576 318.79 216.791C314.05 213.347 308.935 209.854 303.314 208.031Z" fill="#C1E4FB"/>
<path d="M412.625 77.6593C413.825 77.82 415.139 77.6894 416.536 77.1807C418.768 76.3674 420.216 74.9769 421.013 73.3402C421.193 73.3949 421.389 73.35 421.529 73.1351C425.96 66.2518 416.582 54.9098 409.587 61.0709C409.228 61.3876 409.403 61.9022 409.719 62.059C404.814 64.5934 404.652 70.3893 407.224 74.1763C406.999 74.0048 406.78 73.8306 406.567 73.6512C406.024 73.1876 405.316 74.0398 405.86 74.504C407.762 76.1272 410.141 77.4139 412.625 77.6593ZM421.54 67.8555C420.515 63.4076 416.276 59.585 410.845 61.5647C410.772 61.5912 410.703 61.6208 410.632 61.6496C415.141 58.2272 420.737 62.8853 421.54 67.8555ZM413.788 65.0166C418.445 65.1935 419.702 71.8371 415.188 73.4826C408.697 75.8483 407.193 64.7637 413.788 65.0166Z" fill="#A3D9E7"/>
<path d="M353.301 167.255C355.202 169.002 357.416 169.803 359.99 169.364C360.191 169.33 360.331 169.22 360.414 169.081C360.448 169.072 360.48 169.067 360.516 169.057C363.568 168.127 365.521 165.565 365.564 162.606C365.81 163.042 366.675 162.866 366.692 162.22C366.84 157.744 363.132 154.434 358.762 154.54C358.417 154.548 358.246 154.789 358.231 155.053C357.488 155.057 356.747 155.162 356.054 155.383C353.058 156.324 350.8 159.199 351.905 163.501C352.175 164.555 352.647 165.538 353.265 166.391C353.068 166.622 353.011 166.988 353.301 167.255ZM365.422 161.098C365.356 160.772 365.275 160.444 365.162 160.115C364.93 159.454 364.635 158.869 364.298 158.341C364.873 159.132 365.268 160.067 365.422 161.098ZM356.347 160.514C356.329 160.787 356.472 161.053 356.823 161.094C357.747 161.198 358.63 161.344 359.482 161.726C360.187 162.043 360.696 160.956 359.989 160.638C359.043 160.215 358.061 160.029 357.039 159.91C356.938 159.901 356.849 159.912 356.768 159.938C357.158 159.564 357.707 159.352 358.436 159.413C361.216 159.653 362.526 163.913 359.634 165.064C359.561 165.093 359.489 165.118 359.415 165.142C356.664 165.998 355.379 162.413 356.347 160.514Z" fill="#A3D9E7"/>
<path d="M527.407 90.7375C527.667 90.7919 527.886 90.7369 528.077 90.6174C528.163 90.6399 528.259 90.6199 528.341 90.5305C530.182 88.5117 531.052 85.6779 530.965 82.9718C530.952 82.5753 530.334 82.5505 530.348 82.9504C530.404 84.723 530.039 86.5743 529.222 88.1778C530.759 82.2219 530.987 74.8034 529.069 68.9417C527.858 65.2424 526.333 69.8565 526.114 71.3963C525.538 75.4692 525.504 79.6865 525.56 83.7902C525.574 85.1136 525.627 90.3717 527.407 90.7375Z" fill="#A3D9E7"/>
<path d="M519.188 80.6581C524.765 82.2542 531.805 82.5026 537.353 80.5405C539.313 79.847 538.765 79.0572 537.669 78.4689C537.645 78.4413 537.619 78.4139 537.582 78.3936C536.176 77.5451 534.61 76.8305 532.932 76.9523C532.721 76.9658 532.62 77.1441 532.623 77.3048C532.202 77.2653 531.783 77.2318 531.361 77.2013C531.376 74.1523 530.728 71.1403 529.568 68.3203C529.417 67.952 528.873 68.2473 529.024 68.613C530.137 71.3244 530.75 74.2321 530.743 77.1624C528.747 77.0476 526.737 77.0332 524.748 77.0555C524.756 77.031 524.763 77.0076 524.764 76.9785C525.087 74.026 525.566 71.0258 526.882 68.3335C527.056 67.9768 526.532 67.6457 526.358 68.0036C524.989 70.8013 524.481 73.8872 524.145 76.9571C524.142 76.996 524.145 77.0316 524.152 77.0623C523.956 77.0657 523.759 77.0668 523.561 77.0716C522.332 77.0899 517.445 77.1551 517.1 78.9339C516.883 80.0568 518.494 80.4607 519.188 80.6581Z" fill="#A3D9E7"/>
<path d="M625.495 284.766C633.453 281.866 633.646 269.124 625.166 266.571C622.891 265.888 620.778 266.093 618.974 266.887C612.793 269.608 610.236 279.235 617.264 283.561C619.655 285.037 622.797 285.749 625.495 284.766ZM624.213 272.916C626.72 274.86 626.915 278.487 623.644 279.679C621.549 280.442 619.219 279.352 618.453 277.249C617.118 273.585 621.367 270.707 624.213 272.916Z" fill="#C1E4FB"/>
<path d="M375.806 206.595C370.249 201.968 361.86 203.168 357.505 208.81C357.071 209.372 357.419 210.265 357.972 210.589C358.643 210.982 359.319 210.682 359.751 210.122C359.795 210.066 359.842 210.012 359.887 209.957C357.601 213.551 357.724 218.69 362.17 221.435C364.292 222.743 367.078 223.377 369.47 222.505C376.453 219.96 376.685 208.851 369.39 206.424C371.049 206.673 372.641 207.331 373.966 208.435C375.246 209.5 377.096 207.67 375.806 206.595ZM367.825 217.987C365.968 218.664 363.906 217.694 363.225 215.827C362.038 212.571 365.8 210.022 368.325 211.983C370.55 213.711 370.725 216.931 367.825 217.987Z" fill="#C1E4FB"/>
<path fill-rule="evenodd" clip-rule="evenodd" d="M296.816 164.001C298.989 165.292 301.173 166.563 303.214 168.04C303.414 167.878 303.606 167.702 303.786 167.51C305.179 166.019 306.537 164.508 307.783 162.908C308.897 163.67 310.01 164.432 311.075 165.261C311.611 165.678 312.162 165.93 312.702 166.047C314.224 164.224 315.765 162.417 317.316 160.616C317.084 159.968 316.653 159.349 315.972 158.819C314.07 157.338 312.018 156.069 310.078 154.641C309.326 154.205 308.571 153.773 307.814 153.342C307.318 153.22 306.793 153.184 306.278 153.236C303.135 156.835 299.843 160.305 296.816 164.001Z" fill="#A3D9E7"/>
<path fill-rule="evenodd" clip-rule="evenodd" d="M570.184 243.834C570.935 243.694 571.654 243.358 572.244 242.809C574.633 240.582 576.766 237.997 578.388 235.16C578.715 234.589 578.914 233.972 578.991 233.353C576.815 232.015 574.673 230.636 572.612 229.146C572.042 229.468 571.549 229.926 571.208 230.522C569.821 232.947 568.419 234.694 566.477 236.5C565.667 237.255 565.213 238.266 565.124 239.306C566.785 240.845 568.475 242.35 570.184 243.834Z" fill="#A3D9E7"/>
<path fill-rule="evenodd" clip-rule="evenodd" d="M583.727 342.26C584.269 342.228 584.815 342.106 585.344 341.895C585.891 341.675 586.305 341.604 586.706 341.606C586.764 341.606 587.344 341.71 587.486 341.718C587.595 341.753 587.703 341.791 587.808 341.834C587.864 341.868 587.942 341.918 588.048 341.982C588.091 342.01 588.124 342.03 588.156 342.051C588.185 342.101 588.245 342.181 588.36 342.311C587.838 341.713 588.424 342.795 588.503 342.71C588.543 342.978 588.6 343.345 588.619 343.276C588.612 343.871 588.506 344.462 588.387 345.042C588.272 345.603 588.325 346.156 588.501 346.673C591.107 346.754 593.705 346.869 596.293 347.164C596.511 346.716 596.676 346.229 596.783 345.717C597.622 341.628 596.175 337.933 593.086 335.247C589.963 332.532 585.249 332.904 581.688 334.314C582.396 336.957 583.173 339.596 583.727 342.26Z" fill="#C1E4FB"/>
<path fill-rule="evenodd" clip-rule="evenodd" d="M320.974 301.493C322.853 299.803 324.717 298.097 326.736 296.588C326.64 296.349 326.529 296.113 326.399 295.885C325.391 294.11 324.353 292.364 323.197 290.698C324.256 289.861 325.315 289.026 326.424 288.256C326.983 287.869 327.385 287.418 327.659 286.936C326.371 284.941 325.106 282.931 323.848 280.914C323.161 280.943 322.441 281.17 321.733 281.662C319.753 283.037 317.929 284.617 315.989 286.044C315.349 286.632 314.712 287.224 314.075 287.818C313.81 288.255 313.619 288.747 313.516 289.253C316.015 293.327 318.347 297.502 320.974 301.493Z" fill="#C1E4FB"/>
<path fill-rule="evenodd" clip-rule="evenodd" d="M480.372 150.056C480.542 149.133 480.458 148.147 480.057 147.204C478.427 143.38 476.243 139.672 473.521 136.421C472.971 135.765 472.309 135.234 471.59 134.84C468.971 136.658 466.319 138.415 463.567 140.027C463.701 140.835 464.035 141.623 464.607 142.306C466.934 145.086 468.426 147.547 469.748 150.653C470.3 151.95 471.328 152.967 472.555 153.582C475.186 152.452 477.787 151.271 480.372 150.056Z" fill="#C1E4FB"/>
<path d="M541.241 123.187C543.511 125.272 546.155 126.229 549.226 125.705C549.465 125.665 549.632 125.535 549.732 125.368C549.773 125.357 549.811 125.35 549.854 125.339C553.497 124.229 555.829 121.17 555.88 117.638C556.173 118.158 557.205 117.949 557.227 117.177C557.402 111.835 552.976 107.883 547.761 108.009C547.347 108.019 547.146 108.307 547.127 108.623C546.239 108.626 545.355 108.753 544.527 109.016C540.952 110.139 538.256 113.571 539.575 118.708C539.897 119.964 540.461 121.137 541.2 122.156C540.963 122.431 540.896 122.869 541.241 123.187ZM555.71 115.838C555.632 115.449 555.535 115.058 555.4 114.665C555.124 113.876 554.771 113.177 554.369 112.548C555.057 113.491 555.526 114.608 555.71 115.838ZM544.878 115.141C544.857 115.466 545.027 115.784 545.446 115.833C546.549 115.957 547.603 116.132 548.62 116.587C549.462 116.966 550.07 115.669 549.225 115.288C548.096 114.784 546.923 114.562 545.705 114.42C545.584 114.408 545.478 114.422 545.38 114.454C545.846 114.007 546.502 113.754 547.371 113.826C550.69 114.112 552.253 119.199 548.803 120.572C548.714 120.606 548.628 120.637 548.54 120.665C545.255 121.687 543.723 117.407 544.878 115.141Z" fill="#C1E4FB"/>
<path d="M541.346 366.058C542.901 367.486 544.711 368.141 546.816 367.782C546.979 367.753 547.094 367.665 547.162 367.552C547.19 367.543 547.216 367.539 547.246 367.531C549.74 366.771 551.337 364.676 551.371 362.257C551.574 362.614 552.28 362.47 552.295 361.942C552.416 358.283 549.384 355.576 545.812 355.662C545.53 355.669 545.391 355.866 545.378 356.082C544.77 356.085 544.164 356.172 543.598 356.352C541.15 357.121 539.303 359.472 540.206 362.989C540.426 363.85 540.813 364.653 541.318 365.351C541.157 365.539 541.111 365.84 541.346 366.058ZM551.256 361.024C551.202 360.758 551.137 360.489 551.043 360.221C550.855 359.68 550.613 359.201 550.337 358.77C550.808 359.417 551.129 360.181 551.256 361.024ZM543.838 360.547C543.822 360.77 543.939 360.987 544.226 361.021C544.982 361.106 545.702 361.225 546.4 361.537C546.977 361.796 547.393 360.908 546.815 360.648C546.042 360.302 545.238 360.15 544.403 360.054C544.321 360.046 544.248 360.054 544.181 360.076C544.5 359.77 544.95 359.597 545.544 359.647C547.818 359.843 548.888 363.326 546.525 364.267C546.464 364.291 546.405 364.311 546.346 364.331C544.096 365.031 543.046 362.099 543.838 360.547Z" fill="#A3D9E7"/>
<path fill-rule="evenodd" clip-rule="evenodd" d="M311.034 346.911C310.121 344.158 309.184 341.413 308.525 338.598C308.229 338.588 307.931 338.597 307.631 338.628C305.302 338.872 302.988 339.161 300.704 339.611C300.312 338.113 299.921 336.615 299.62 335.095C299.47 334.33 299.182 333.699 298.801 333.189C296.111 333.627 293.415 334.033 290.717 334.429C290.431 335.165 290.34 336.025 290.531 336.997C291.066 339.711 291.891 342.355 292.498 345.05C292.821 345.995 293.151 346.936 293.484 347.88C293.822 348.358 294.251 348.785 294.736 349.126C300.167 348.372 305.63 347.839 311.034 346.911Z" fill="#A3D9E7"/>
<path fill-rule="evenodd" clip-rule="evenodd" d="M588.051 301.634C588.088 300.695 587.868 299.731 587.339 298.854C585.187 295.297 582.505 291.932 579.354 289.095C578.718 288.523 577.988 288.09 577.22 287.801C574.882 289.968 572.503 292.081 570.005 294.062C570.251 294.844 570.692 295.577 571.355 296.173C574.049 298.599 575.871 300.826 577.617 303.716C578.346 304.922 579.506 305.784 580.807 306.222C583.252 304.733 585.663 303.199 588.051 301.634Z" fill="#C1E4FB"/>
<path fill-rule="evenodd" clip-rule="evenodd" d="M593.855 103.315C594.907 103.077 595.909 102.545 596.723 101.696C600.023 98.2513 602.952 94.2757 605.155 89.9365C605.599 89.0606 605.861 88.1233 605.953 87.1856C602.854 85.2418 599.803 83.2356 596.862 81.0586C596.068 81.5645 595.388 82.2723 594.926 83.1843C593.041 86.8929 591.116 89.5773 588.435 92.3733C587.316 93.5405 586.706 95.0833 586.61 96.6563C588.989 98.9222 591.408 101.135 593.855 103.315Z" fill="#C1E4FB"/>
<path fill-rule="evenodd" clip-rule="evenodd" d="M428.517 372.095C428.924 371.453 429.174 370.713 429.191 369.938C429.257 366.798 428.903 363.627 428.034 360.681C427.859 360.087 427.566 359.56 427.192 359.123C424.809 359.915 422.423 360.656 420.013 361.27C419.854 361.89 419.839 362.537 420.022 363.156C420.764 365.674 421.028 367.789 420.973 370.34C420.95 371.404 421.344 372.362 422.001 373.067C424.176 372.781 426.347 372.452 428.517 372.095Z" fill="#A3D9E7"/>
<path d="M362.847 70.9606C363.856 72.4158 365.215 73.6636 366.444 74.9267C368.464 77.0011 370.494 79.0653 372.475 81.1781C374.555 83.3985 376.608 85.6644 378.464 88.0789C379.265 89.1214 380.027 90.1975 380.703 91.3258C381.296 92.3148 381.605 92.8954 381.88 93.8965C381.91 94.0068 381.934 94.119 381.956 94.2316C381.942 94.1822 381.984 94.4856 381.986 94.559C381.989 94.6145 381.976 94.7688 381.971 94.8412C381.966 94.8638 381.962 94.8869 381.956 94.9089C381.937 94.9507 381.886 95.0812 381.85 95.1435C381.83 95.1607 381.804 95.1853 381.76 95.2284C381.755 95.2332 381.752 95.236 381.751 95.2383C381.727 95.253 381.69 95.2738 381.635 95.3071C381.558 95.3545 381.518 95.381 381.497 95.3962C381.492 95.392 381.462 95.3962 381.364 95.4301C380.618 95.6864 380.025 95.665 379.052 95.6148C377.678 95.5437 376.317 95.2473 374.981 94.9326C373.679 94.6261 372.866 96.1661 373.74 97.1201C378.198 101.987 384.655 106.069 387.306 112.323C384.286 112.398 381.204 112.645 378.396 113.756C377.618 114.064 377.186 114.895 377.64 115.675C381.019 121.495 386.734 125.247 390.807 130.491C391.822 131.796 394.069 130.479 393.039 129.154C389.311 124.355 384.16 120.751 380.744 115.72C383.466 114.978 386.352 114.924 389.16 114.894C390 114.885 390.637 114.047 390.396 113.234C388.511 106.868 383.217 102.66 378.507 98.2165C379.97 98.3403 381.428 98.2413 382.742 97.6596C384.594 96.8387 384.827 94.707 384.324 92.9803C383.655 90.6837 382.126 88.6164 380.696 86.7425C378.789 84.2445 376.693 81.8952 374.553 79.5974C372.561 77.4588 370.512 75.3737 368.471 73.2818C367.713 72.5035 366.954 71.7249 366.212 70.9299C365.952 70.6507 365.695 70.3684 365.445 70.0808C365.349 69.9711 365.256 69.8591 365.163 69.7466C365.146 69.7204 365.12 69.6832 365.078 69.624C364.129 68.2534 361.888 69.5777 362.847 70.9606Z" fill="#C1E4FB"/>
<path d="M617.826 285.582C614.716 285.518 612.679 283.441 610.905 281.097C609.76 279.584 607.166 281.068 608.328 282.604C610.77 285.831 613.556 288.478 617.826 288.568C619.752 288.607 619.748 285.622 617.826 285.582Z" fill="#C1E4FB"/>
<path fill-rule="evenodd" clip-rule="evenodd" d="M486.384 362.447C486.778 363.606 487.56 364.655 488.633 365.419C489.735 366.203 490.182 366.734 490.573 367.501C490.576 367.53 490.587 367.586 490.603 367.661L490.603 367.664C490.586 367.686 490.576 367.703 490.561 367.724C490.45 367.831 490.332 367.929 490.215 368.028C490.911 367.377 488.852 368.58 489.899 368.224C488.428 368.723 487.781 368.624 486.048 368.38C485.372 368.286 484.716 368.375 484.103 368.593C483.558 371.584 482.815 374.531 482.073 377.482C483.005 378.353 484.264 378.915 485.642 379.108C491.05 379.861 497.637 377.829 500.128 372.557C503.186 366.084 499.655 360.113 494.284 356.289C493.588 355.794 492.793 355.542 491.982 355.48C490.27 357.948 488.45 360.327 486.384 362.447Z" fill="#C1E4FB"/>
<path d="M501.789 372.539C500.295 379.442 491.87 380.267 486.063 379.652C484.15 379.449 484.17 382.436 486.063 382.637C493.251 383.398 502.876 381.611 504.668 373.332C505.073 371.456 502.197 370.658 501.789 372.539Z" fill="#C1E4FB"/>
<path d="M505.413 361.345C504.457 357.79 502.022 354.701 498.757 352.99C497.055 352.097 495.545 354.673 497.251 355.567C499.86 356.935 501.769 359.29 502.535 362.138C503.035 363.995 505.915 363.207 505.413 361.345Z" fill="#C1E4FB"/>
<path d="M603.821 94.54C602.327 97.4643 600.388 100.11 598.084 102.447C596.732 103.818 598.841 105.93 600.194 104.558C602.664 102.052 604.796 99.1823 606.398 96.0465C607.272 94.3361 604.697 92.8254 603.821 94.54Z" fill="#C1E4FB"/>
<path d="M313.43 151.321C311.984 149.492 310.138 148.229 307.793 147.974C305.694 147.747 303.564 148.736 301.86 149.858C298.205 152.264 295.536 155.84 292.731 159.125C291.649 160.393 293.48 162.242 294.57 160.965C297.021 158.095 299.336 155.003 302.353 152.689C303.673 151.676 305.246 150.701 306.944 150.565C308.934 150.406 310.428 151.689 311.591 153.161C312.631 154.476 314.458 152.622 313.43 151.321Z" fill="#A3D9E7"/>
<path d="M576.437 238.452C575.879 239.994 574.578 241.459 573.133 242.227C571.651 243.015 572.965 245.26 574.445 244.474C576.502 243.38 578.16 241.313 578.945 239.144C579.517 237.563 577.003 236.888 576.437 238.452Z" fill="#A3D9E7"/>
<path d="M300.839 349.265C299.054 350.249 296.86 351.299 294.762 350.852C293.179 350.515 292.24 349.199 291.586 347.815C289.871 344.189 290.084 339.515 290.398 335.628C290.552 333.708 287.567 333.723 287.413 335.628C287.03 340.371 287.025 345.829 289.41 350.103C290.426 351.923 292.115 353.336 294.174 353.774C297.012 354.379 299.906 353.188 302.345 351.842C304.031 350.912 302.525 348.334 300.839 349.265Z" fill="#A3D9E7"/>
<path d="M284.218 297.255C290.545 294.949 290.7 284.817 283.956 282.788C282.147 282.244 280.468 282.407 279.033 283.039C274.118 285.202 272.084 292.857 277.673 296.297C279.574 297.47 282.072 298.037 284.218 297.255ZM283.199 287.833C285.192 289.378 285.347 292.262 282.746 293.21C281.081 293.817 279.228 292.95 278.619 291.278C277.556 288.364 280.935 286.076 283.199 287.833Z" fill="#C1E4FB"/>
<path d="M278.12 297.903C275.647 297.852 274.028 296.2 272.617 294.337C271.706 293.133 269.644 294.314 270.568 295.535C272.51 298.101 274.725 300.206 278.12 300.276C279.652 300.309 279.648 297.935 278.12 297.903Z" fill="#C1E4FB"/>
<path fill-rule="evenodd" clip-rule="evenodd" d="M344.808 370.882C345.583 370.837 346.365 370.662 347.121 370.36C347.905 370.045 348.496 369.943 349.071 369.947C349.154 369.947 349.984 370.095 350.188 370.106C350.343 370.157 350.497 370.212 350.648 370.272C350.727 370.322 350.839 370.392 350.991 370.484C351.052 370.524 351.099 370.553 351.145 370.583C351.188 370.655 351.273 370.769 351.436 370.956C350.69 370.1 351.53 371.648 351.642 371.527C351.699 371.91 351.781 372.436 351.808 372.336C351.799 373.188 351.645 374.034 351.476 374.864C351.312 375.667 351.387 376.458 351.639 377.198C355.369 377.313 359.087 377.478 362.789 377.9C363.102 377.259 363.338 376.562 363.49 375.83C364.691 369.978 362.62 364.691 358.201 360.846C353.731 356.961 346.986 357.494 341.889 359.512C342.903 363.295 344.015 367.071 344.808 370.882Z" fill="#C1E4FB"/>
<path fill-rule="evenodd" clip-rule="evenodd" d="M626.964 217.916C628.452 215.873 629.922 213.818 631.585 211.924C631.442 211.71 631.284 211.503 631.11 211.306C629.757 209.779 628.379 208.285 626.903 206.894C627.766 205.856 628.629 204.82 629.554 203.837C630.02 203.342 630.322 202.818 630.49 202.29C628.817 200.605 627.162 198.9 625.515 197.188C624.848 197.359 624.191 197.729 623.6 198.358C621.948 200.112 620.491 202.036 618.888 203.833C618.383 204.541 617.882 205.252 617.382 205.966C617.214 206.448 617.129 206.968 617.133 207.485C620.421 210.953 623.567 214.555 626.964 217.916Z" fill="#A3D9E7"/>
<path d="M615.897 200.186C613.94 201.454 612.509 203.173 612.037 205.484C611.613 207.552 612.398 209.766 613.356 211.568C615.408 215.432 618.719 218.424 621.726 221.525C622.887 222.721 624.899 221.072 623.73 219.866C621.103 217.158 618.241 214.562 616.22 211.342C615.336 209.933 614.512 208.276 614.536 206.573C614.564 204.576 615.982 203.209 617.556 202.19C618.963 201.278 617.288 199.284 615.897 200.186Z" fill="#A3D9E7"/>
<path d="M711.167 282.398V249.713L807.448 97.5909H834.704V144.125H818.085L753.269 246.832V248.605H887.664V282.398H711.167ZM819.414 324.5V272.426L819.857 257.801V97.5909H858.636V324.5H819.414Z" fill="#6495B4"/>
</svg>
