<svg width="1920" height="553" viewBox="0 0 1920 553" fill="none" xmlns="http://www.w3.org/2000/svg">
<g clip-path="url(#clip0_1_13898)">
<mask id="mask0_1_13898" style="mask-type:luminance" maskUnits="userSpaceOnUse" x="0" y="-314" width="1920" height="1297">
<path d="M0 -314H1920V983H0V-314Z" fill="white"/>
</mask>
<g mask="url(#mask0_1_13898)">
<mask id="mask1_1_13898" style="mask-type:luminance" maskUnits="userSpaceOnUse" x="607" y="58" width="767" height="518">
<path d="M607.184 58H1374V576H607.184V58Z" fill="white"/>
</mask>
<g mask="url(#mask1_1_13898)">
<path opacity="0.08" d="M985.474 422.238C915.141 422.238 858.125 365.178 858.125 294.791C858.125 224.404 915.141 167.344 985.474 167.344C1055.81 167.344 1112.82 224.404 1112.82 294.791C1112.82 365.178 1055.81 422.238 985.474 422.238Z" fill="#3B6FA3"/>
</g>
<mask id="mask2_1_13898" style="mask-type:luminance" maskUnits="userSpaceOnUse" x="607" y="58" width="767" height="518">
<path d="M607.184 58H1374V576H607.184V58Z" fill="white"/>
</mask>
<g mask="url(#mask2_1_13898)">
<path d="M990.592 417.816C920.259 417.816 863.243 360.756 863.243 290.369C863.243 219.982 920.259 162.922 990.592 162.922C1060.92 162.922 1117.94 219.982 1117.94 290.369C1117.94 360.756 1060.92 417.816 990.592 417.816Z" fill="#F0F7FC"/>
</g>
<mask id="mask3_1_13898" style="mask-type:luminance" maskUnits="userSpaceOnUse" x="0" y="-314" width="1920" height="1297">
<path d="M0 -314H1920V983H0V-314Z" fill="white"/>
</mask>
<g mask="url(#mask3_1_13898)">
<path opacity="0.31" d="M1200.28 426.337L1137.36 399.567L1169.74 323.347L1232.66 350.117L1234.24 346.379C1236.94 340.044 1244.25 337.092 1250.58 339.785L1262.67 344.931L1263.57 342.827C1264.62 340.359 1267.46 339.209 1269.93 340.258L1284.43 346.429C1286.9 347.478 1288.05 350.329 1287 352.797L1286.1 354.901L1292.96 357.816L1293.85 355.711C1294.9 353.244 1297.75 352.094 1300.21 353.143L1314.72 359.314C1317.18 360.363 1318.33 363.214 1317.28 365.681L1316.39 367.786L1401.62 404.053C1407.95 406.746 1410.91 414.066 1408.21 420.401L1400.23 439.19L1428.53 451.229L1423.56 462.93C1494.25 493.385 1573.78 526.853 1650.9 529.058C1683.92 530.001 1747.99 517.771 1806.11 425.234C1821.99 399.957 1834.86 372.912 1845.37 349.79C1847.19 345.777 1848.96 341.485 1850.83 336.941C1859.83 315.082 1870.03 290.307 1893.85 278.286C1927.87 261.114 1958.25 280.417 1982.65 295.928C1985.62 297.814 1988.55 299.675 1991.44 301.441C1999.22 306.204 2007.24 311.371 2015 316.37C2055.82 342.686 2098.04 369.9 2143.86 365.366C2185.18 361.276 2222.07 333.928 2242.53 292.201C2283.47 208.719 2276.67 124.28 2221.76 34.0592C2173.36 -45.4613 2096.64 -115.885 2028.95 -178.018C2018.71 -187.418 2009.04 -196.295 1999.56 -205.115C1980.3 -223.038 1958.58 -244.395 1944.71 -271.083C1928.91 -301.465 1926.38 -334.084 1937.76 -360.578C1947.49 -383.248 1967.91 -402.579 1998.44 -418.049C2047.8 -443.063 2100.39 -453.608 2154.74 -449.387C2201.87 -445.728 2251.72 -430.798 2302.89 -405.012C2394.38 -358.911 2476.12 -286.893 2550.81 -215.935L2603.96 -165.444L2587.43 -148.007L2534.28 -198.498C2460.91 -268.188 2380.8 -338.839 2292.09 -383.538C2243.72 -407.912 2196.88 -422.002 2152.88 -425.418C2102.98 -429.293 2054.67 -419.596 2009.29 -396.599C1983.92 -383.744 1967.27 -368.43 1959.83 -351.084C1951.43 -331.54 1953.75 -305.782 1966.02 -282.181C1978.13 -258.891 1998.12 -239.277 2015.91 -222.722C2025.33 -213.958 2034.98 -205.108 2045.19 -195.736C2114.05 -132.524 2192.1 -60.8786 2242.27 21.5523C2270.13 67.3163 2286.13 110.859 2291.2 154.669C2296.97 204.51 2287.85 254.346 2264.1 302.79C2259.49 312.189 2254.16 320.966 2248.2 329.06C2222.93 363.376 2186.4 385.312 2146.22 389.289C2092.07 394.648 2044.21 363.799 2001.99 336.581C1994 331.432 1986.45 326.568 1978.91 321.953C1975.91 320.117 1972.86 318.184 1969.78 316.224C1943.64 299.614 1924.98 289.495 1904.66 299.752C1888.83 307.74 1880.8 327.241 1873.04 346.098C1871.17 350.639 1869.24 355.333 1867.24 359.739C1856.4 383.591 1843.08 411.543 1826.45 438.027C1798.77 482.092 1739.08 555.628 1650.22 553.088C1568.59 550.755 1486.81 516.351 1414.16 485.055L1409.14 496.862L1380.84 484.823L1372.66 504.097C1369.96 510.432 1362.65 513.384 1356.32 510.691L1271.08 474.424L1270.19 476.529C1269.14 478.997 1266.29 480.147 1263.83 479.097L1249.32 472.927C1246.86 471.878 1245.71 469.027 1246.76 466.559L1247.65 464.454L1240.8 461.539L1239.91 463.644C1238.86 466.111 1236.01 467.261 1233.54 466.212L1219.04 460.041C1216.57 458.992 1215.43 456.141 1216.47 453.674L1217.37 451.57L1205.27 446.424C1198.94 443.731 1195.99 436.411 1198.69 430.076L1200.28 426.337Z" fill="#3B6FA3"/>
<path d="M1236.38 440.144C1235.33 442.612 1232.48 443.761 1230.01 442.712L1215.51 436.542C1213.04 435.493 1211.9 432.642 1212.94 430.174L1213.84 428.07L1201.74 422.924C1195.41 420.231 1192.46 412.911 1195.16 406.576L1230.71 322.88C1233.4 316.545 1240.72 313.593 1247.05 316.286L1259.14 321.432L1260.04 319.328C1261.08 316.86 1263.93 315.71 1266.4 316.759L1280.9 322.93C1283.37 323.979 1284.52 326.83 1283.47 329.298L1282.57 331.402L1289.43 334.317L1290.32 332.213C1291.37 329.745 1294.22 328.596 1296.68 329.645L1311.19 335.815C1313.65 336.864 1314.8 339.715 1313.75 342.183L1312.86 344.288L1398.09 380.554C1404.42 383.248 1407.37 390.567 1404.68 396.903L1369.13 480.599C1366.43 486.935 1359.12 489.887 1352.79 487.193L1267.55 450.927L1266.66 453.031C1265.61 455.499 1262.76 456.649 1260.3 455.6L1245.79 449.429C1243.33 448.38 1242.18 445.529 1243.23 443.061L1244.12 440.957L1237.27 438.041L1236.38 440.144Z" fill="#E2F0FE"/>
<mask id="mask4_1_13898" style="mask-type:luminance" maskUnits="userSpaceOnUse" x="1194" y="315" width="212" height="174">
<path d="M1236.38 440.144C1235.33 442.612 1232.48 443.761 1230.01 442.712L1215.51 436.542C1213.04 435.493 1211.9 432.642 1212.94 430.174L1213.84 428.07L1201.74 422.924C1195.41 420.231 1192.46 412.911 1195.16 406.576L1230.71 322.88C1233.4 316.545 1240.72 313.593 1247.05 316.286L1259.14 321.432L1260.04 319.328C1261.08 316.86 1263.93 315.71 1266.4 316.759L1280.9 322.93C1283.37 323.979 1284.52 326.83 1283.47 329.298L1282.57 331.402L1289.43 334.317L1290.32 332.213C1291.37 329.745 1294.22 328.596 1296.68 329.645L1311.19 335.815C1313.65 336.864 1314.8 339.715 1313.75 342.183L1312.86 344.288L1398.09 380.554C1404.42 383.248 1407.37 390.567 1404.68 396.903L1369.13 480.599C1366.43 486.935 1359.12 489.887 1352.79 487.193L1267.55 450.927L1266.66 453.031C1265.61 455.499 1262.76 456.649 1260.3 455.6L1245.79 449.429C1243.33 448.38 1242.18 445.529 1243.23 443.061L1244.12 440.957L1237.27 438.041L1236.38 440.144Z" fill="white"/>
</mask>
<g mask="url(#mask4_1_13898)">
<path opacity="0.14" d="M1388.16 438.302L1200.88 359.292L1236.41 292.789L1425.24 375.754L1408.21 420.402L1388.16 438.302Z" fill="#86B2E8"/>
</g>
<path d="M1133.81 376.106L1166.2 299.885L1229.12 326.658L1196.73 402.879L1133.81 376.106Z" fill="#86B2E8"/>
<path d="M1164.5 317.298L1169.34 305.914L1184.96 312.56L1180.12 323.944L1164.5 317.298Z" fill="white"/>
<path d="M1156.43 336.304L1161.26 324.92L1176.88 331.566L1172.05 342.95L1156.43 336.304Z" fill="white"/>
<path d="M1148.35 355.314L1153.19 343.93L1168.81 350.576L1163.97 361.96L1148.35 355.314Z" fill="white"/>
<path d="M1140.29 374.314L1145.13 362.93L1160.75 369.576L1155.91 380.96L1140.29 374.314Z" fill="white"/>
<path d="M1237.26 438.078L1282.57 331.438L1289.42 334.354L1244.11 440.994L1237.26 438.078Z" fill="#86B2E8"/>
<path d="M1378.11 461.988L1397.5 416.354L1427.95 429.312L1408.56 474.946L1378.11 461.988Z" fill="#86B2E8"/>
<path d="M2247.62 307.104C2253.58 299.01 2258.91 290.232 2263.52 280.833C2287.28 232.388 2296.4 182.553 2290.63 132.713C2285.56 88.9022 2269.55 45.3595 2241.7 -0.404449C2191.52 -82.8354 2113.47 -154.481 2044.61 -217.693C2034.4 -227.064 2024.76 -235.915 2015.34 -244.679C1997.55 -261.234 1977.55 -280.848 1965.44 -304.138C1953.17 -327.738 1950.86 -353.497 1959.25 -373.041C1966.7 -390.387 1983.34 -405.701 2008.71 -418.556C2054.09 -441.553 2102.41 -451.249 2152.31 -447.375C2196.31 -443.959 2243.14 -429.868 2291.51 -405.495C2380.22 -360.796 2460.34 -290.145 2533.7 -220.454L2586.85 -169.964L2603.39 -187.401L2550.24 -237.892C2475.54 -308.85 2393.81 -380.868 2302.31 -426.969C2251.14 -452.755 2201.29 -467.685 2154.17 -471.344C2099.81 -475.565 2047.23 -465.02 1997.86 -440.006C1967.33 -424.536 1946.91 -405.204 1937.18 -382.535C1925.8 -356.041 1928.34 -323.422 1944.13 -293.041C1958.01 -266.353 1979.72 -244.996 1998.98 -227.073C2008.46 -218.253 2018.13 -209.376 2028.37 -199.976C2096.06 -137.842 2172.78 -67.4193 2221.18 12.1012C2276.09 102.322 2282.89 186.76 2241.95 270.242C2221.49 311.969 2184.61 339.317 2143.28 343.407C2097.47 347.942 2055.25 320.728 2014.42 294.411C2006.66 289.413 1998.65 284.246 1990.86 279.482C1987.97 277.716 1985.05 275.856 1982.08 273.969C1957.67 258.458 1927.29 239.156 1893.27 256.327C1869.45 268.349 1859.25 293.124 1850.25 314.982C1848.38 319.526 1846.61 323.819 1844.79 327.831C1834.29 350.953 1821.41 377.999 1805.53 403.275C1747.42 495.812 1683.34 508.042 1650.33 507.099C1571.13 504.836 1489.41 469.608 1417.31 438.527L1406.86 434.03L1397.38 456.118L1407.8 460.608C1481.88 492.541 1565.85 528.736 1649.64 531.131C1738.5 533.67 1798.2 460.135 1825.87 416.07C1842.5 389.586 1855.82 361.633 1866.66 337.782C1868.66 333.375 1870.59 328.681 1872.46 324.141C1880.23 305.283 1888.25 285.782 1904.09 277.795C1924.41 267.537 1943.06 277.657 1969.2 294.266C1972.29 296.226 1975.33 298.159 1978.33 299.996C1985.88 304.611 1993.42 309.475 2001.41 314.624C2043.64 341.842 2091.5 372.691 2145.64 367.332C2185.83 363.356 2222.35 341.42 2247.62 307.104Z" fill="#86B2E8"/>
</g>
<mask id="mask5_1_13898" style="mask-type:luminance" maskUnits="userSpaceOnUse" x="0" y="-314" width="1920" height="1297">
<path d="M0 -314H1920V983H0V-314Z" fill="white"/>
</mask>
<g mask="url(#mask5_1_13898)">
<path opacity="0.31" d="M-559.281 595.494C-520.733 595.711 -470.45 569.786 -445.008 511.378C-413.614 439.313 -429.942 361.737 -445.712 286.717C-446.917 280.989 -448.118 275.282 -449.293 269.599L-450.192 265.243C-468.139 178.433 -486.701 88.6474 -486.999 -1.7327C-487.182 -56.8754 -476.201 -113.159 -456.082 -160.215C-432.021 -216.49 -395.473 -257.985 -350.388 -280.217C-308.101 -301.067 -260.618 -303.096 -223.369 -285.643C-190.185 -270.095 -167.697 -241.398 -158.335 -202.654C-142.866 -138.625 -155.496 -71.7265 -167.708 -7.02444C-169.276 1.28018 -170.832 9.51886 -172.309 17.6711C-173.109 22.0885 -173.926 26.5444 -174.749 31.0362C-191.835 124.293 -211.2 229.992 -149.031 307.81C-130.004 331.622 -108.697 344.026 -83.896 345.73C-19.0582 350.184 54.9686 279.885 114.451 223.399C137.636 201.381 157.659 182.366 174.662 170.02C281.977 92.1086 378.01 66.8789 467.794 93.102L475.127 77.203L508.732 92.7273L515.545 77.9569C518.137 72.3391 524.788 69.8867 530.401 72.48L616.325 112.173L617.998 108.547C619.339 105.639 622.782 104.37 625.688 105.712L710.481 144.883C713.386 146.225 714.655 149.671 713.314 152.579L711.641 156.205L748.884 173.409C754.497 176.002 756.947 182.659 754.356 188.277L743.179 212.511L828.334 252.096C835.18 255.258 838.167 263.375 835.008 270.225C831.848 277.076 823.737 280.065 816.892 276.903L731.692 237.416L720.371 261.959C717.78 267.576 711.129 270.029 705.515 267.435L668.272 250.231L666.6 253.857C665.258 256.765 661.815 258.034 658.91 256.692L574.117 217.521C571.211 216.179 569.943 212.733 571.284 209.825L572.956 206.199L487.033 166.506C481.419 163.912 478.969 157.256 481.56 151.638L486.649 140.605L488.373 136.868L454.767 121.343L462.967 103.566C377.218 79.2058 284.933 104.045 181.35 179.247C164.955 191.151 145.184 209.927 122.29 231.667C61.192 289.689 -14.8464 361.899 -84.6768 357.101C-112.446 355.195 -137.091 341.004 -157.929 314.927C-223.34 233.054 -203.48 124.633 -185.954 28.9796C-185.133 24.4968 -184.318 20.0467 -183.518 15.6375C-182.036 7.45709 -180.476 -0.807831 -178.903 -9.14066C-166.914 -72.6578 -154.505 -138.329 -169.41 -199.974C-177.93 -235.238 -198.259 -261.292 -228.2 -275.32C-262.347 -291.32 -306.144 -289.327 -345.356 -269.992C-387.968 -248.98 -422.637 -209.469 -445.613 -155.73C-465.135 -110.072 -475.788 -55.3946 -475.612 -1.77051C-475.318 87.4612 -456.875 176.674 -439.041 262.933L-438.141 267.29C-436.969 272.959 -435.771 278.652 -434.569 284.367C-418.417 361.149 -401.721 440.528 -434.568 515.933C-445.504 541.038 -463.17 563.808 -484.311 580.046C-507.367 597.756 -533.314 607.039 -559.346 606.893L-559.281 595.494Z" fill="#3B6FA3"/>
<path d="M514.089 55.431L480.103 129.112C477.512 134.73 479.962 141.387 485.576 143.98L704.059 244.91C709.672 247.503 716.324 245.051 718.915 239.433L752.9 165.752C755.492 160.134 753.042 153.477 747.428 150.884L528.945 49.9541C523.332 47.3608 516.68 49.8126 514.089 55.431Z" fill="#E2F0FE"/>
<mask id="mask6_1_13898" style="mask-type:luminance" maskUnits="userSpaceOnUse" x="479" y="48" width="275" height="198">
<path d="M514.089 55.431L480.103 129.112C477.512 134.73 479.962 141.387 485.576 143.98L704.059 244.91C709.672 247.503 716.324 245.051 718.915 239.433L752.9 165.752C755.492 160.134 753.042 153.477 747.428 150.884L528.945 49.9541C523.332 47.3608 516.68 49.8126 514.089 55.431Z" fill="white"/>
</mask>
<g mask="url(#mask6_1_13898)">
<path opacity="0.14" d="M493.053 92.2565L751.452 208.648L772.437 144.092L680.728 75.6466L505.085 27.4238L493.053 92.2565Z" fill="#86B2E8"/>
</g>
<path d="M616.541 86.0206L569.827 187.299C568.485 190.207 569.754 193.652 572.659 194.995L657.452 234.165C660.358 235.508 663.801 234.238 665.142 231.331L711.857 130.053C713.198 127.144 711.93 123.698 709.024 122.356L624.231 83.1857C621.326 81.8433 617.882 83.1127 616.541 86.0206Z" fill="#86B2E8"/>
<path d="M580.282 182.974C579.318 185.064 580.23 187.541 582.319 188.506L656.009 222.548C658.098 223.513 660.573 222.6 661.537 220.51C662.502 218.419 661.59 215.943 659.501 214.977L585.811 180.936C583.722 179.97 581.247 180.883 580.282 182.974Z" fill="#E2F0FE"/>
<path d="M588.232 165.737C587.268 167.828 588.18 170.305 590.269 171.27L663.959 205.311C666.048 206.277 668.523 205.364 669.487 203.273C670.452 201.183 669.54 198.705 667.451 197.741L593.761 163.699C591.672 162.735 589.196 163.647 588.232 165.737Z" fill="#E2F0FE"/>
<path d="M596.184 148.501C595.219 150.591 596.13 153.068 598.22 154.033L671.91 188.075C673.999 189.04 676.474 188.128 677.439 186.037C678.403 183.946 677.491 181.47 675.402 180.504L601.712 146.463C599.622 145.498 597.147 146.41 596.184 148.501Z" fill="#E2F0FE"/>
<path d="M604.134 131.265C603.169 133.355 604.081 135.832 606.17 136.797L679.86 170.839C681.949 171.804 684.424 170.891 685.389 168.801C686.353 166.71 685.441 164.234 683.352 163.268L609.662 129.227C607.573 128.261 605.098 129.174 604.134 131.265Z" fill="#E2F0FE"/>
<path d="M612.083 114.026C611.118 116.117 612.03 118.594 614.119 119.559L687.81 153.6C689.899 154.566 692.374 153.653 693.338 151.562C694.303 149.472 693.391 146.994 691.302 146.03L617.611 111.988C615.523 111.024 613.047 111.936 612.083 114.026Z" fill="#E2F0FE"/>
<path d="M620.034 96.7898C619.07 98.8804 619.982 101.358 622.071 102.322L695.761 136.364C697.85 137.329 700.325 136.417 701.289 134.326C702.254 132.235 701.342 129.759 699.253 128.793L625.562 94.7518C623.474 93.7872 620.999 94.6993 620.034 96.7898Z" fill="#E2F0FE"/>
<path d="M741.629 190.188L730.186 214.995L815.435 254.377C822.28 257.539 830.391 254.549 833.551 247.699C836.71 240.849 833.723 232.732 826.877 229.57L741.629 190.188Z" fill="#86B2E8"/>
<path d="M507.286 70.2581L486.927 114.396L453.323 98.8723L473.682 54.7339L507.286 70.2581Z" fill="#86B2E8"/>
<path d="M477.746 74.1852C384.693 42.2924 285.078 66.2712 173.205 147.493C156.202 159.838 136.178 178.853 112.994 200.872C53.5114 257.358 -20.5155 327.657 -85.3533 323.203C-110.155 321.498 -131.461 309.095 -150.488 285.282C-212.658 207.465 -193.292 101.765 -176.206 8.50891C-175.384 4.01776 -174.567 -0.438782 -173.767 -4.85626C-172.288 -13.0085 -170.733 -21.2471 -169.166 -29.5518C-156.954 -94.2545 -144.324 -161.152 -159.792 -225.182C-169.154 -263.925 -191.643 -292.622 -224.826 -308.17C-262.076 -325.623 -309.559 -323.595 -351.845 -302.744C-396.931 -280.513 -433.478 -239.017 -457.54 -182.743C-477.659 -135.686 -488.64 -79.4027 -488.457 -24.26C-488.159 66.1201 -469.596 155.906 -451.65 242.716L-450.75 247.072C-449.575 252.754 -448.374 258.462 -447.17 264.19C-431.399 339.21 -415.071 416.786 -446.464 488.85C-471.906 547.26 -522.19 573.184 -560.738 572.967L-560.801 584.366C-534.77 584.512 -508.823 575.229 -485.766 557.52C-464.624 541.281 -446.959 518.512 -436.023 493.406C-403.175 418.001 -419.872 338.623 -436.023 261.841C-437.225 256.126 -438.424 250.432 -439.595 244.763L-440.496 240.406C-458.33 154.147 -476.773 64.9345 -477.067 -24.2972C-477.243 -77.9212 -466.589 -132.599 -447.067 -178.257C-424.091 -231.995 -389.422 -271.507 -346.81 -292.519C-307.598 -311.854 -263.801 -313.846 -229.655 -297.847C-199.713 -283.818 -179.384 -257.764 -170.864 -222.501C-155.959 -160.856 -168.368 -95.1844 -180.357 -31.6673C-181.93 -23.3345 -183.49 -15.0695 -184.972 -6.88919C-185.772 -2.47937 -186.587 1.97012 -187.408 6.45358C-204.934 102.107 -224.794 210.527 -159.383 292.401C-138.546 318.478 -113.901 332.669 -86.1308 334.575C-16.3004 339.373 59.738 267.163 120.836 209.141C143.73 187.401 163.501 168.625 179.896 156.721C288.55 77.8379 384.771 54.3676 474.059 84.9704L477.746 74.1852Z" fill="#86B2E8"/>
</g>
<mask id="mask7_1_13898" style="mask-type:luminance" maskUnits="userSpaceOnUse" x="612" y="78" width="759" height="513">
<path d="M612.318 78H1371V590.506H612.318V78Z" fill="white"/>
</mask>
<g mask="url(#mask7_1_13898)">
<path d="M999.189 361.689C998.764 360.697 998.182 359.831 997.442 359.091C996.703 358.351 995.837 357.768 994.846 357.343C993.855 356.917 992.792 356.705 991.659 356.705C990.526 356.705 989.464 356.917 988.473 357.343C987.481 357.768 986.616 358.351 985.876 359.091C985.137 359.831 984.554 360.697 984.129 361.689C983.704 362.681 983.492 363.744 983.492 364.878C983.492 366.012 983.704 367.075 984.129 368.068C984.554 369.059 985.137 369.926 985.876 370.666C986.616 371.406 987.481 371.989 988.473 372.414C989.464 372.839 990.526 373.052 991.659 373.052C992.792 373.052 993.855 372.839 994.846 372.414C995.837 371.989 996.703 371.406 997.442 370.666C998.182 369.926 998.764 369.06 999.189 368.068C999.614 367.075 999.826 366.012 999.826 364.878C999.826 363.744 999.614 362.681 999.189 361.689ZM979.759 233.259C979.759 228.606 980.649 225.115 982.426 222.787C984.205 220.461 987.283 219.297 991.659 219.297C996.037 219.297 999.114 220.461 1000.89 222.787C1002.67 225.115 1003.56 228.606 1003.56 233.259V275.229L997.404 337.732V337.568C997.131 339.649 996.419 341.073 995.27 341.839C994.121 342.606 992.918 342.989 991.659 342.989C990.401 342.989 989.211 342.619 988.089 341.88C986.968 341.141 986.271 339.758 985.996 337.732L979.759 275.229L979.759 233.259Z" fill="#86B2E8"/>
</g>
</g>
</g>
<defs>
<clipPath id="clip0_1_13898">
<rect width="1920" height="553" fill="white" transform="matrix(-1 0 0 1 1920 0)"/>
</clipPath>
</defs>
</svg>
