<svg width="375" height="396" viewBox="0 0 375 396" fill="none" xmlns="http://www.w3.org/2000/svg">
<g clip-path="url(#clip0_1_13985)">
<mask id="mask0_1_13985" style="mask-type:luminance" maskUnits="userSpaceOnUse" x="-238" y="-52" width="896" height="606">
<path d="M-238 -51.4961H658V553.614H-238V-51.4961Z" fill="white"/>
</mask>
<g mask="url(#mask0_1_13985)">
<mask id="mask1_1_13985" style="mask-type:luminance" maskUnits="userSpaceOnUse" x="-408" y="-22" width="896" height="606">
<path d="M-408 -21.4961H488V583.614H-408V-21.4961Z" fill="white"/>
</mask>
<g mask="url(#mask1_1_13985)">
<path opacity="0.31" d="M152.128 323.906L122.767 311.417L137.878 275.857L167.239 288.346L167.98 286.602C169.236 283.646 172.649 282.269 175.604 283.526L181.247 285.926L181.664 284.945C182.154 283.793 183.483 283.257 184.634 283.747L191.402 286.625C192.552 287.115 193.089 288.445 192.599 289.596L192.182 290.578L195.38 291.938L195.797 290.956C196.286 289.805 197.616 289.268 198.766 289.758L205.534 292.637C206.685 293.126 207.221 294.456 206.732 295.608L206.315 296.59L246.091 313.51C249.046 314.766 250.422 318.181 249.166 321.137L245.441 329.903L258.646 335.52L256.326 340.979C289.319 355.187 326.429 370.802 362.422 371.83C377.83 372.271 407.731 366.565 434.851 323.392C442.26 311.599 448.27 298.981 453.172 288.194C454.023 286.322 454.847 284.319 455.721 282.199C459.92 272.001 464.68 260.442 475.794 254.834C491.671 246.822 505.848 255.828 517.239 263.064C518.624 263.944 519.991 264.812 521.338 265.637C524.971 267.859 528.713 270.27 532.331 272.601C551.385 284.879 571.086 297.576 592.466 295.46C611.752 293.552 628.967 280.793 638.514 261.326C657.617 222.377 654.446 182.983 628.82 140.891C606.233 103.791 570.43 70.9348 538.842 41.9469C534.063 37.5614 529.55 33.4198 525.127 29.305C516.138 20.9431 506.005 10.979 499.53 -1.47225C492.159 -15.6471 490.977 -30.8654 496.287 -43.2258C500.827 -53.8025 510.356 -62.8212 524.603 -70.0386C547.641 -81.709 572.182 -86.6285 597.547 -84.6595C619.54 -82.9524 642.801 -75.9869 666.682 -63.9564C709.379 -42.4479 747.522 -8.84833 782.38 24.2567L807.184 47.813L799.465 55.9484L774.662 32.3921C740.426 -0.12159 703.039 -33.0838 661.641 -53.9379C639.068 -65.3092 617.212 -71.8829 596.679 -73.4768C573.392 -75.2844 550.846 -70.7605 529.668 -60.0314C517.828 -54.0341 510.062 -46.8893 506.587 -38.7967C502.669 -29.6782 503.749 -17.6608 509.476 -6.64991C515.126 4.21578 524.457 13.3665 532.76 21.0901C537.156 25.1792 541.656 29.3083 546.42 33.6803C578.556 63.1721 614.981 96.5978 638.394 135.056C651.393 156.407 658.862 176.721 661.229 197.161C663.92 220.414 659.664 243.664 648.578 266.266C646.427 270.651 643.94 274.746 641.158 278.522C629.366 294.532 612.321 304.766 593.569 306.622C568.301 309.122 545.966 294.729 526.261 282.031C522.533 279.629 519.012 277.36 515.491 275.206C514.089 274.35 512.669 273.448 511.23 272.533C499.032 264.784 490.326 260.063 480.842 264.849C473.453 268.575 469.708 277.673 466.085 286.471C465.213 288.59 464.311 290.78 463.377 292.835C458.321 303.963 452.104 317.004 444.342 329.36C431.427 349.919 403.569 384.227 362.101 383.041C324.011 381.953 285.845 365.902 251.939 351.301L249.598 356.81L236.394 351.193L232.573 360.185C231.317 363.141 227.904 364.518 224.949 363.261L185.173 346.341L184.755 347.323C184.266 348.475 182.937 349.011 181.786 348.521L175.018 345.643C173.867 345.153 173.331 343.823 173.821 342.672L174.238 341.69L171.04 340.33L170.623 341.312C170.133 342.463 168.804 342.999 167.653 342.51L160.885 339.631C159.735 339.142 159.198 337.811 159.688 336.66L160.105 335.678L154.461 333.278C151.507 332.021 150.13 328.606 151.387 325.651L152.128 323.906Z" fill="#3B6FA3"/>
<path d="M168.974 330.348C168.485 331.5 167.156 332.036 166.005 331.546L159.237 328.668C158.087 328.178 157.55 326.848 158.04 325.697L158.457 324.715L152.813 322.314C149.859 321.058 148.482 317.643 149.739 314.687L166.332 275.639C167.588 272.683 171.001 271.306 173.955 272.563L179.599 274.963L180.016 273.982C180.505 272.83 181.834 272.294 182.985 272.784L189.753 275.662C190.904 276.152 191.44 277.482 190.951 278.633L190.533 279.615L193.731 280.975L194.148 279.993C194.638 278.842 195.967 278.306 197.118 278.795L203.886 281.674C205.036 282.163 205.572 283.494 205.083 284.645L204.666 285.627L244.443 302.547C247.397 303.803 248.774 307.218 247.517 310.174L230.924 349.223C229.668 352.178 226.255 353.555 223.301 352.299L183.524 335.379L183.107 336.361C182.618 337.512 181.288 338.049 180.138 337.559L173.37 334.68C172.219 334.191 171.683 332.861 172.172 331.709L172.589 330.727L169.392 329.367L168.974 330.348Z" fill="#E2F0FE"/>
<mask id="mask2_1_13985" style="mask-type:luminance" maskUnits="userSpaceOnUse" x="149" y="272" width="99" height="81">
<path d="M168.974 330.348C168.485 331.5 167.156 332.036 166.005 331.546L159.237 328.668C158.087 328.178 157.55 326.848 158.04 325.697L158.457 324.715L152.813 322.314C149.859 321.058 148.482 317.643 149.739 314.687L166.332 275.639C167.588 272.683 171.001 271.306 173.955 272.563L179.599 274.963L180.016 273.982C180.505 272.83 181.834 272.294 182.985 272.784L189.753 275.662C190.904 276.152 191.44 277.482 190.951 278.633L190.533 279.615L193.731 280.975L194.148 279.993C194.638 278.842 195.967 278.306 197.118 278.795L203.886 281.674C205.036 282.163 205.572 283.494 205.083 284.645L204.666 285.627L244.443 302.547C247.397 303.803 248.774 307.218 247.517 310.174L230.924 349.223C229.668 352.178 226.255 353.555 223.301 352.299L183.524 335.379L183.107 336.361C182.618 337.512 181.288 338.049 180.138 337.559L173.37 334.68C172.219 334.191 171.683 332.861 172.172 331.709L172.589 330.727L169.392 329.367L168.974 330.348Z" fill="white"/>
</mask>
<g mask="url(#mask2_1_13985)">
<path opacity="0.14" d="M239.805 329.488L152.411 292.626L168.991 261.6L257.111 300.306L249.166 321.137L239.805 329.488Z" fill="#86B2E8"/>
</g>
<path d="M121.112 300.471L136.225 264.91L165.587 277.401L150.474 312.962L121.112 300.471Z" fill="#86B2E8"/>
<path d="M135.433 273.034L137.69 267.723L144.98 270.823L142.722 276.135L135.433 273.034Z" fill="white"/>
<path d="M131.666 281.901L133.923 276.59L141.212 279.691L138.955 285.002L131.666 281.901Z" fill="white"/>
<path d="M127.895 290.77L130.152 285.459L137.441 288.56L135.184 293.871L127.895 290.77Z" fill="white"/>
<path d="M124.136 299.633L126.393 294.322L133.682 297.423L131.425 302.734L124.136 299.633Z" fill="white"/>
<path d="M169.387 329.384L190.53 279.631L193.728 280.991L172.585 330.744L169.387 329.384Z" fill="#86B2E8"/>
<path d="M235.116 340.539L244.164 319.248L258.376 325.294L249.328 346.584L235.116 340.539Z" fill="#86B2E8"/>
<path d="M640.889 268.278C643.671 264.502 646.158 260.407 648.309 256.022C659.395 233.42 663.651 210.169 660.959 186.917C658.593 166.477 651.124 146.163 638.125 124.812C614.711 86.3537 578.287 52.9277 546.151 23.4363C541.386 19.0642 536.886 14.9348 532.491 10.8461C524.188 3.1225 514.857 -6.02827 509.206 -16.894C503.48 -27.9049 502.4 -39.9222 506.318 -49.0407C509.792 -57.1333 517.559 -64.2781 529.398 -70.2754C550.577 -81.0046 573.123 -85.5284 596.41 -83.7208C616.943 -82.1269 638.799 -75.5532 661.372 -64.1819C702.77 -43.3279 740.157 -10.3656 774.392 22.1481L799.196 45.7043L806.914 37.569L782.11 14.0127C747.252 -19.0924 709.11 -52.6923 666.413 -74.2004C642.532 -86.2309 619.271 -93.1964 597.277 -94.9036C571.913 -96.8728 547.372 -91.953 524.334 -80.2826C510.086 -73.0652 500.558 -64.0462 496.018 -53.4698C490.708 -41.1091 491.89 -25.8911 499.261 -11.7169C505.736 0.734329 515.868 10.6985 524.857 19.0604C529.28 23.1751 533.794 27.3168 538.572 31.7022C570.16 60.6905 605.963 93.546 628.55 130.646C654.177 172.738 657.347 212.132 638.245 251.081C628.697 270.548 611.482 283.307 592.197 285.215C570.817 287.331 551.115 274.635 532.062 262.357C528.443 260.025 524.702 257.614 521.068 255.392C519.721 254.568 518.354 253.7 516.969 252.819C505.578 245.583 491.401 236.577 475.525 244.589C464.41 250.197 459.65 261.756 455.451 271.954C454.578 274.074 453.753 276.077 452.902 277.949C448 288.736 441.99 301.354 434.581 313.147C407.461 356.32 377.56 362.025 362.152 361.585C325.193 360.529 287.056 344.094 253.409 329.593L248.536 327.495L244.11 337.8L248.974 339.895C283.545 354.794 322.729 371.68 361.832 372.797C403.3 373.982 431.158 339.674 444.072 319.116C451.835 306.76 458.051 293.719 463.108 282.591C464.042 280.535 464.944 278.345 465.816 276.227C469.438 267.429 473.184 258.331 480.573 254.604C490.057 249.819 498.762 254.54 510.961 262.289C512.4 263.203 513.82 264.105 515.221 264.962C518.742 267.115 522.263 269.385 525.991 271.787C545.697 284.485 568.031 298.878 593.299 296.378C612.052 294.522 629.097 284.288 640.889 268.278Z" fill="#86B2E8"/>
</g>
<mask id="mask3_1_13985" style="mask-type:luminance" maskUnits="userSpaceOnUse" x="-138" y="-160" width="896" height="606">
<path d="M-138 -159.496H758V445.614H-138V-159.496Z" fill="white"/>
</mask>
<g mask="url(#mask3_1_13985)">
<path opacity="0.31" d="M-398.997 264.825C-381.008 264.926 -357.543 252.831 -345.67 225.58C-331.019 191.959 -338.639 155.766 -345.999 120.766C-346.561 118.093 -347.121 115.431 -347.669 112.779L-348.089 110.747C-356.464 70.2463 -365.127 28.3571 -365.266 -13.8093C-365.351 -39.5359 -360.226 -65.7947 -350.837 -87.7487C-339.609 -114.003 -322.553 -133.363 -301.514 -143.735C-281.78 -153.463 -259.621 -154.409 -242.238 -146.267C-226.752 -139.013 -216.258 -125.624 -211.889 -107.549C-204.67 -77.6758 -210.564 -46.4647 -216.263 -16.2782C-216.995 -12.4037 -217.721 -8.55997 -218.41 -4.75659C-218.784 -2.69562 -219.165 -0.616745 -219.549 1.47888C-227.522 44.9874 -236.56 94.301 -207.547 130.606C-198.668 141.716 -188.725 147.503 -177.151 148.298C-146.893 150.376 -112.347 117.578 -84.589 91.225C-73.7692 80.9524 -64.4252 72.0811 -56.4905 66.3213C-6.41037 29.972 38.4055 18.2011 80.3042 30.4354L83.7264 23.0178L99.409 30.2606L102.588 23.3695C103.798 20.7486 106.902 19.6044 109.521 20.8143L149.619 39.3331L150.399 37.6412C151.025 36.2845 152.632 35.6923 153.988 36.3186L193.558 54.5935C194.914 55.2198 195.506 56.8275 194.88 58.1841L194.1 59.8758L211.48 67.9024C214.099 69.1123 215.243 72.2179 214.033 74.8389L208.817 86.1453L248.557 104.613C251.751 106.089 253.145 109.876 251.671 113.071C250.196 116.268 246.411 117.662 243.217 116.187L203.457 97.7646L198.174 109.215C196.965 111.836 193.861 112.98 191.241 111.77L173.861 103.743L173.081 105.435C172.455 106.792 170.848 107.384 169.492 106.758L129.922 88.4827C128.566 87.8564 127.974 86.2487 128.6 84.8921L129.38 83.2005L89.2825 64.6817C86.6629 63.4718 85.5193 60.3661 86.7286 57.7452L89.1032 52.598L89.9079 50.8541L74.2252 43.6113L78.0517 35.3176C38.0354 23.9522 -5.03046 35.5411 -53.3694 70.6261C-61.0206 76.18 -70.247 84.9399 -80.9306 95.0824C-109.443 122.152 -144.928 155.842 -177.515 153.603C-190.474 152.714 -201.975 146.093 -211.699 133.927C-242.225 95.7294 -232.957 45.146 -224.778 0.519379C-224.395 -1.57205 -224.014 -3.64825 -223.641 -5.70534C-222.95 -9.52187 -222.221 -13.3778 -221.487 -17.2655C-215.892 -46.8992 -210.102 -77.5378 -217.057 -106.298C-221.033 -122.75 -230.52 -134.905 -244.493 -141.451C-260.428 -148.915 -280.866 -147.985 -299.165 -138.965C-319.051 -129.162 -335.23 -110.728 -345.952 -85.6564C-355.062 -64.3547 -360.034 -38.8451 -359.952 -13.827C-359.815 27.8037 -351.208 69.4255 -342.885 109.669L-342.465 111.702C-341.918 114.347 -341.359 117.003 -340.798 119.669C-333.261 155.492 -325.469 192.525 -340.798 227.706C-345.901 239.418 -354.145 250.041 -364.011 257.617C-374.771 265.88 -386.879 270.211 -399.027 270.142L-398.997 264.825Z" fill="#3B6FA3"/>
<path d="M101.908 12.86L86.0485 47.2356C84.8392 49.8566 85.9825 52.9622 88.6024 54.1721L190.561 101.26C193.181 102.47 196.285 101.327 197.494 98.7053L213.354 64.3296C214.563 61.7087 213.42 58.603 210.8 57.3931L108.841 10.3048C106.222 9.09486 103.118 10.2387 101.908 12.86Z" fill="#E2F0FE"/>
<mask id="mask4_1_13985" style="mask-type:luminance" maskUnits="userSpaceOnUse" x="85" y="9" width="129" height="93">
<path d="M101.908 12.86L86.0485 47.2356C84.8392 49.8566 85.9825 52.9622 88.6024 54.1721L190.561 101.26C193.181 102.47 196.285 101.327 197.494 98.7053L213.354 64.3296C214.563 61.7087 213.42 58.603 210.8 57.3931L108.841 10.3048C106.222 9.09486 103.118 10.2387 101.908 12.86Z" fill="white"/>
</mask>
<g mask="url(#mask4_1_13985)">
<path opacity="0.14" d="M92.0919 30.0404L212.678 84.3423L222.471 54.2239L179.674 22.2911L97.7066 -0.207031L92.0919 30.0404Z" fill="#86B2E8"/>
</g>
<path d="M149.72 27.1309L127.92 74.3818C127.294 75.7388 127.886 77.3461 129.242 77.9725L168.812 96.2474C170.168 96.8737 171.775 96.2814 172.401 94.9248L194.201 47.6739C194.827 46.317 194.235 44.7093 192.879 44.0833L153.309 25.8084C151.953 25.182 150.346 25.7743 149.72 27.1309Z" fill="#86B2E8"/>
<path d="M132.799 72.3648C132.349 73.3401 132.774 74.4957 133.749 74.946L168.138 90.828C169.113 91.2783 170.268 90.8525 170.718 89.8771C171.168 88.9018 170.742 87.7463 169.768 87.2959L135.379 71.414C134.404 70.9636 133.249 71.3894 132.799 72.3648Z" fill="#E2F0FE"/>
<path d="M136.509 64.3237C136.059 65.299 136.484 66.4548 137.459 66.9049L171.848 82.7868C172.823 83.2372 173.978 82.8114 174.428 81.836C174.878 80.8607 174.452 79.7048 173.478 79.2548L139.089 63.3728C138.114 62.9228 136.959 63.3483 136.509 64.3237Z" fill="#E2F0FE"/>
<path d="M140.219 56.2807C139.769 57.256 140.194 58.4116 141.169 58.8619L175.558 74.7439C176.533 75.1942 177.688 74.7684 178.138 73.793C178.588 72.8177 178.162 71.6621 177.188 71.2118L142.799 55.3298C141.824 54.8798 140.669 55.3053 140.219 56.2807Z" fill="#E2F0FE"/>
<path d="M143.93 48.2398C143.48 49.2151 143.905 50.3707 144.88 50.821L179.269 66.703C180.244 67.1533 181.399 66.7275 181.849 65.7521C182.299 64.7768 181.873 63.6212 180.898 63.1709L146.51 47.289C145.535 46.8386 144.38 47.2645 143.93 48.2398Z" fill="#E2F0FE"/>
<path d="M147.64 40.1967C147.19 41.1721 147.615 42.3276 148.59 42.7779L182.979 58.6599C183.954 59.1102 185.109 58.6844 185.559 57.709C186.009 56.7337 185.583 55.5779 184.608 55.1278L150.22 39.2459C149.245 38.7958 148.09 39.2214 147.64 40.1967Z" fill="#E2F0FE"/>
<path d="M151.35 32.1557C150.9 33.131 151.325 34.2869 152.3 34.7369L186.689 50.6189C187.664 51.0692 188.819 50.6434 189.269 49.668C189.719 48.6927 189.293 47.5371 188.318 47.0868L153.93 31.2048C152.955 30.7548 151.8 31.1803 151.35 32.1557Z" fill="#E2F0FE"/>
<path d="M208.094 75.7305L202.754 87.3044L242.537 105.678C245.732 107.153 249.517 105.758 250.991 102.562C252.466 99.3662 251.071 95.5793 247.877 94.104L208.094 75.7305Z" fill="#86B2E8"/>
<path d="M98.7344 19.7785L89.2334 40.3711L73.5514 33.1284L83.0524 12.5358L98.7344 19.7785Z" fill="#86B2E8"/>
<path d="M84.9492 21.6101C41.5249 6.73068 -4.96228 17.9179 -57.1698 55.8116C-65.1045 61.5713 -74.4489 70.4427 -85.2684 80.7152C-113.027 107.069 -147.573 139.866 -177.83 137.788C-189.404 136.993 -199.347 131.207 -208.226 120.097C-237.239 83.7913 -228.202 34.4776 -220.228 -9.03088C-219.845 -11.1262 -219.463 -13.2054 -219.09 -15.2664C-218.4 -19.0697 -217.674 -22.9134 -216.943 -26.7879C-211.244 -56.9747 -205.35 -88.1856 -212.568 -118.058C-216.937 -136.134 -227.432 -149.523 -242.918 -156.776C-260.301 -164.919 -282.46 -163.973 -302.193 -154.245C-323.233 -143.873 -340.289 -124.513 -351.517 -98.2585C-360.906 -76.3045 -366.031 -50.0457 -365.945 -24.3191C-365.806 17.8474 -357.144 59.7365 -348.769 100.237L-348.349 102.27C-347.8 104.921 -347.24 107.584 -346.678 110.256C-339.318 145.256 -331.699 181.449 -346.349 215.071C-358.222 242.321 -381.687 254.416 -399.676 254.315L-399.706 259.633C-387.558 259.701 -375.449 255.37 -364.69 247.108C-354.823 239.532 -346.58 228.909 -341.476 217.196C-326.147 182.016 -333.939 144.982 -341.476 109.16C-342.037 106.494 -342.597 103.838 -343.143 101.193L-343.563 99.1599C-351.886 58.916 -360.493 17.2943 -360.63 -24.3364C-360.712 -49.3545 -355.74 -74.8642 -346.63 -96.1659C-335.908 -121.237 -319.729 -139.671 -299.844 -149.474C-281.544 -158.495 -261.106 -159.425 -245.171 -151.96C-231.198 -145.415 -221.711 -133.26 -217.735 -116.808C-210.78 -88.0472 -216.57 -57.4086 -222.165 -27.7749C-222.899 -23.8873 -223.628 -20.0313 -224.319 -16.2148C-224.692 -14.1574 -225.073 -12.0815 -225.456 -9.98978C-233.635 34.6369 -242.903 85.2199 -212.377 123.418C-202.653 135.584 -191.153 142.205 -178.193 143.094C-145.606 145.333 -110.121 111.643 -81.6085 84.5733C-70.9249 74.4307 -61.6985 65.6708 -54.0472 60.1169C-3.34229 23.3143 41.561 12.3643 83.2286 26.642L84.9492 21.6101Z" fill="#86B2E8"/>
</g>
<mask id="mask5_1_13985" style="mask-type:luminance" maskUnits="userSpaceOnUse" x="8" y="72" width="359" height="242">
<path d="M8.35284 72.0586H366.2V313.729H8.35284V72.0586Z" fill="white"/>
</mask>
<g mask="url(#mask5_1_13985)">
<path opacity="0.08" d="M184.888 241.992C152.066 241.992 125.459 215.371 125.459 182.532C125.459 149.693 152.066 123.072 184.888 123.072C217.71 123.072 244.317 149.693 244.317 182.532C244.317 215.371 217.71 241.992 184.888 241.992Z" fill="#3B6FA3"/>
</g>
<mask id="mask6_1_13985" style="mask-type:luminance" maskUnits="userSpaceOnUse" x="8" y="81" width="355" height="240">
<path d="M8.74802 81.3887H362.8V320.496H8.74802V81.3887Z" fill="white"/>
</mask>
<g mask="url(#mask6_1_13985)">
<path d="M189.288 213.743C189.09 213.28 188.818 212.876 188.473 212.531C188.128 212.186 187.724 211.914 187.261 211.715C186.799 211.517 186.303 211.418 185.774 211.418C185.245 211.418 184.75 211.517 184.287 211.715C183.824 211.914 183.42 212.186 183.075 212.531C182.73 212.876 182.458 213.28 182.26 213.743C182.062 214.206 181.963 214.702 181.963 215.231C181.963 215.76 182.062 216.256 182.26 216.719C182.458 217.182 182.73 217.586 183.075 217.931C183.42 218.277 183.824 218.548 184.287 218.747C184.75 218.945 185.245 219.044 185.774 219.044C186.303 219.044 186.799 218.945 187.261 218.747C187.724 218.548 188.128 218.277 188.473 217.931C188.818 217.586 189.09 217.182 189.288 216.719C189.486 216.256 189.585 215.76 189.585 215.231C189.585 214.702 189.486 214.206 189.288 213.743ZM180.221 153.825C180.221 151.654 180.636 150.025 181.465 148.939C182.296 147.854 183.732 147.311 185.774 147.311C187.817 147.311 189.253 147.854 190.083 148.939C190.913 150.025 191.327 151.654 191.327 153.825V173.405L188.455 202.566V202.489C188.327 203.461 187.995 204.125 187.459 204.482C186.923 204.84 186.361 205.018 185.774 205.018C185.187 205.018 184.632 204.846 184.108 204.501C183.585 204.156 183.259 203.511 183.131 202.566L180.221 173.405L180.221 153.825Z" fill="#86B2E8"/>
</g>
</g>
</g>
<defs>
<clipPath id="clip0_1_13985">
<rect width="896" height="396" fill="white" transform="matrix(-1 0 0 1 658 0)"/>
</clipPath>
</defs>
</svg>
